<svg width="24" height="24" viewBox="0 0 24 24" fill="none" xmlns="http://www.w3.org/2000/svg">
<path d="M14.7 3L15.1848 5.15241C15.5961 6.97814 17.0218 8.40388 18.8476 8.81514L21 9.3L18.8476 9.78486C17.0218 10.1961 15.5961 11.6218 15.1848 13.4476L14.7 15.6L14.2152 13.4476C13.8039 11.6218 12.3782 10.1961 10.5524 9.78486L8.39999 9.3L10.5524 8.81514C12.3781 8.40388 13.8039 6.97814 14.2152 5.15242L14.7 3Z" stroke="white" stroke-width="1.35" stroke-linejoin="round"/>
<path d="M7.5 12L7.84633 13.5375C8.14009 14.8415 9.15848 15.8599 10.4625 16.1537L12 16.5L10.4625 16.8463C9.15848 17.1401 8.14009 18.1584 7.84633 19.4625L7.5 21L7.15367 19.4625C6.85991 18.1584 5.84152 17.1401 4.53744 16.8463L3 16.5L4.53744 16.1537C5.84152 15.8599 6.85991 14.8416 7.15367 13.5375L7.5 12Z" stroke="white" stroke-width="1.35" stroke-linejoin="round"/>
</svg>
