<svg width="24" height="24" viewBox="0 0 24 24" fill="none" xmlns="http://www.w3.org/2000/svg">
<path d="M11.9971 13.9227L17.6999 8.21989C17.8503 8.06948 18.0294 7.99624 18.2371 8.00015C18.4448 8.00406 18.6239 8.08122 18.7744 8.23162C18.9248 8.38203 19 8.56107 19 8.76876C19 8.97645 18.9248 9.15556 18.7744 9.30609L12.9668 15.102C12.8298 15.2388 12.6765 15.3402 12.5066 15.4061C12.3368 15.4723 12.167 15.5053 11.9971 15.5053C11.8273 15.5053 11.6575 15.4723 11.4876 15.4061C11.3178 15.3402 11.1644 15.2388 11.0275 15.102L5.21989 9.29435C5.06948 9.14395 4.99624 8.96686 5.00015 8.76308C5.00406 8.55918 5.08122 8.38203 5.23162 8.23162C5.38203 8.08122 5.56107 8.00602 5.76876 8.00602C5.97645 8.00602 6.15556 8.08122 6.30609 8.23162L11.9971 13.9227Z" fill="white"/>
</svg>
