<svg width="16" height="17" viewBox="0 0 16 17" fill="none" xmlns="http://www.w3.org/2000/svg">
<path fill-rule="evenodd" clip-rule="evenodd" d="M13.9979 7.08122V3.55455C13.9979 3.25455 13.6379 3.10788 13.4312 3.32122L12.2446 4.50788C11.0379 3.30122 9.31789 2.60788 7.43789 2.77455C4.64456 3.02788 2.34456 5.27455 2.03789 8.06788C1.63789 11.6812 4.45789 14.7479 7.99789 14.7479C11.0579 14.7479 13.5846 12.4546 13.9512 9.49455C13.9979 9.09455 13.6846 8.74788 13.2846 8.74788C12.9512 8.74788 12.6712 8.99455 12.6312 9.32122C12.3446 11.6479 10.3379 13.4479 7.93122 13.4145C5.45789 13.3812 3.37122 11.2945 3.33122 8.81455C3.29122 6.21455 5.40456 4.08122 7.99789 4.08122C9.28456 4.08122 10.4512 4.60788 11.2979 5.44788L9.90456 6.84122C9.69122 7.05455 9.83789 7.41455 10.1379 7.41455H13.6646C13.8512 7.41455 13.9979 7.26788 13.9979 7.08122Z" fill="white"/>
</svg>
