<svg width="24" height="24" viewBox="0 0 24 24" fill="none" xmlns="http://www.w3.org/2000/svg">
<path d="M5.70141 21C5.22596 21 4.82353 20.8352 4.49412 20.5056C4.16471 20.1761 4 19.7734 4 19.2977V6.69412C4 6.21842 4.16471 5.81579 4.49412 5.48621C4.82353 5.15663 5.22596 4.99184 5.70141 4.99184H7.00447V3H8.45247V4.99184H15.5838V3H16.9955V4.99184H18.2986C18.774 4.99184 19.1765 5.15663 19.5059 5.48621C19.8353 5.81579 20 6.21842 20 6.69412V19.2977C20 19.7734 19.8353 20.1761 19.5059 20.5056C19.1765 20.8352 18.774 21 18.2986 21H5.70141ZM5.70141 19.5875H18.2986C18.3711 19.5875 18.4374 19.5573 18.4976 19.4969C18.558 19.4366 18.5882 19.3702 18.5882 19.2977V10.4607H5.41176V19.2977C5.41176 19.3702 5.44196 19.4366 5.50235 19.4969C5.56259 19.5573 5.62894 19.5875 5.70141 19.5875ZM5.41176 9.04826H18.5882V6.69412C18.5882 6.62161 18.558 6.55522 18.4976 6.49496C18.4374 6.43453 18.3711 6.40432 18.2986 6.40432H5.70141C5.62894 6.40432 5.56259 6.43453 5.50235 6.49496C5.44196 6.55522 5.41176 6.62161 5.41176 6.69412V9.04826ZM12 14.0101C11.7696 14.0101 11.5732 13.9289 11.4108 13.7664C11.2486 13.6042 11.1675 13.4077 11.1675 13.177C11.1675 12.9464 11.2486 12.7499 11.4108 12.5875C11.5732 12.4252 11.7696 12.3441 12 12.3441C12.2304 12.3441 12.4268 12.4252 12.5892 12.5875C12.7514 12.7499 12.8325 12.9464 12.8325 13.177C12.8325 13.4077 12.7514 13.6042 12.5892 13.7664C12.4268 13.9289 12.2304 14.0101 12 14.0101ZM8.23529 14.0101C8.00486 14.0101 7.80847 13.9289 7.64612 13.7664C7.48392 13.6042 7.40282 13.4077 7.40282 13.177C7.40282 12.9464 7.48392 12.7499 7.64612 12.5875C7.80847 12.4252 8.00486 12.3441 8.23529 12.3441C8.46573 12.3441 8.66212 12.4252 8.82447 12.5875C8.98667 12.7499 9.06776 12.9464 9.06776 13.177C9.06776 13.4077 8.98667 13.6042 8.82447 13.7664C8.66212 13.9289 8.46573 14.0101 8.23529 14.0101ZM15.7647 14.0101C15.5343 14.0101 15.3379 13.9289 15.1755 13.7664C15.0133 13.6042 14.9322 13.4077 14.9322 13.177C14.9322 12.9464 15.0133 12.7499 15.1755 12.5875C15.3379 12.4252 15.5343 12.3441 15.7647 12.3441C15.9951 12.3441 16.1915 12.4252 16.3539 12.5875C16.5161 12.7499 16.5972 12.9464 16.5972 13.177C16.5972 13.4077 16.5161 13.6042 16.3539 13.7664C16.1915 13.9289 15.9951 14.0101 15.7647 14.0101ZM12 17.7042C11.7696 17.7042 11.5732 17.623 11.4108 17.4605C11.2486 17.2983 11.1675 17.1019 11.1675 16.8713C11.1675 16.6406 11.2486 16.4441 11.4108 16.2818C11.5732 16.1194 11.7696 16.0382 12 16.0382C12.2304 16.0382 12.4268 16.1194 12.5892 16.2818C12.7514 16.4441 12.8325 16.6406 12.8325 16.8713C12.8325 17.1019 12.7514 17.2983 12.5892 17.4605C12.4268 17.623 12.2304 17.7042 12 17.7042ZM8.23529 17.7042C8.00486 17.7042 7.80847 17.623 7.64612 17.4605C7.48392 17.2983 7.40282 17.1019 7.40282 16.8713C7.40282 16.6406 7.48392 16.4441 7.64612 16.2818C7.80847 16.1194 8.00486 16.0382 8.23529 16.0382C8.46573 16.0382 8.66212 16.1194 8.82447 16.2818C8.98667 16.4441 9.06776 16.6406 9.06776 16.8713C9.06776 17.1019 8.98667 17.2983 8.82447 17.4605C8.66212 17.623 8.46573 17.7042 8.23529 17.7042ZM15.7647 17.7042C15.5343 17.7042 15.3379 17.623 15.1755 17.4605C15.0133 17.2983 14.9322 17.1019 14.9322 16.8713C14.9322 16.6406 15.0133 16.4441 15.1755 16.2818C15.3379 16.1194 15.5343 16.0382 15.7647 16.0382C15.9951 16.0382 16.1915 16.1194 16.3539 16.2818C16.5161 16.4441 16.5972 16.6406 16.5972 16.8713C16.5972 17.1019 16.5161 17.2983 16.3539 17.4605C16.1915 17.623 15.9951 17.7042 15.7647 17.7042Z" fill="white"/>
</svg>
