<svg width="24" height="24" viewBox="0 0 24 24" fill="none" xmlns="http://www.w3.org/2000/svg">
<path d="M19.8125 7.13862L9.57291 17.8045C9.51347 17.8665 9.44289 17.9156 9.3652 17.9492C9.28751 17.9827 9.20423 18 9.12013 18C9.03603 18 8.95275 17.9827 8.87506 17.9492C8.79737 17.9156 8.72678 17.8665 8.66735 17.8045L4.18755 13.1382C4.06746 13.0131 4 12.8434 4 12.6665C4 12.4896 4.06746 12.32 4.18755 12.1949C4.30763 12.0698 4.4705 11.9996 4.64033 11.9996C4.81015 11.9996 4.97302 12.0698 5.09311 12.1949L9.12013 16.3904L18.9069 6.19536C19.027 6.07027 19.1898 6 19.3597 6C19.5295 6 19.6924 6.07027 19.8125 6.19536C19.9325 6.32044 20 6.49009 20 6.66699C20 6.84388 19.9325 7.01353 19.8125 7.13862Z" fill="white"/>
<path d="M19.8496 6.66699C19.8496 6.52795 19.7968 6.39536 19.7041 6.29883C19.6117 6.20269 19.4873 6.15039 19.3594 6.15039C19.2315 6.15047 19.107 6.20258 19.0146 6.29883L9.22852 16.4941L9.12012 16.6074L9.01172 16.4941L4.98535 12.2988C4.89295 12.2026 4.76854 12.1495 4.64062 12.1494C4.51263 12.1494 4.38836 12.2025 4.2959 12.2988C4.20323 12.3954 4.15039 12.5279 4.15039 12.667C4.15051 12.8059 4.20333 12.9378 4.2959 13.0342L8.77539 17.7002C8.82119 17.748 8.87552 17.786 8.93457 17.8115C8.99358 17.837 9.05662 17.8496 9.12012 17.8496C9.18361 17.8496 9.24665 17.837 9.30566 17.8115C9.36472 17.786 9.41904 17.748 9.46484 17.7002L19.7041 7.03516C19.7968 6.93863 19.8496 6.80603 19.8496 6.66699ZM20.1504 6.66699C20.1504 6.88161 20.0682 7.08858 19.9209 7.24219L9.68164 17.9082C9.6086 17.9844 9.52109 18.0453 9.4248 18.0869C9.32846 18.1285 9.2248 18.1504 9.12012 18.1504C9.01544 18.1504 8.91177 18.1285 8.81543 18.0869C8.71923 18.0454 8.63257 17.9843 8.55957 17.9082L4.0791 13.2422C3.93174 13.0887 3.84972 12.8816 3.84961 12.667C3.84961 12.4522 3.93161 12.2445 4.0791 12.0908C4.2268 11.937 4.429 11.8496 4.64062 11.8496C4.85206 11.8497 5.05356 11.9372 5.20117 12.0908L9.12012 16.1729L18.7988 6.0918C18.9465 5.93802 19.1479 5.84969 19.3594 5.84961C19.571 5.84961 19.7732 5.93795 19.9209 6.0918C20.0682 6.24541 20.1504 6.45238 20.1504 6.66699Z" fill="white"/>
</svg>
