<svg width="24" height="24" viewBox="0 0 24 24" fill="none" xmlns="http://www.w3.org/2000/svg">
<path fill-rule="evenodd" clip-rule="evenodd" d="M13.0927 11.9975C13.152 12.0725 13.2113 12.1474 13.2706 12.2216C13.9004 13.012 14.5499 13.7804 15.1871 14.5342C15.4756 14.8758 15.7737 15.2284 16.0659 15.5773C16.1003 15.6185 16.1098 15.6758 16.0893 15.725L15.5979 16.9731C15.4134 16.8012 15.0648 16.4625 14.6386 15.9777C14.0542 15.3121 13.5167 14.795 12.7683 13.4058C12.7595 13.3896 12.7646 13.3903 12.7361 13.3646C12.7075 13.3396 12.6255 13.3154 12.5698 13.3455C12.4981 13.3845 12.4717 13.4733 12.5105 13.5446C12.5259 13.574 12.542 13.6019 12.5574 13.6306C13.3014 14.9911 13.8404 15.5119 14.424 16.176C14.9359 16.7585 15.3306 17.1273 15.4829 17.2647L14.8715 18.8184C14.8524 18.8683 14.8085 18.9029 14.7557 18.9102C14.7038 18.9175 14.651 18.8962 14.6195 18.8544C13.6295 17.5651 12.5728 15.8491 11.765 14.4592C11.7408 14.4181 11.7174 14.3776 11.6939 14.3372C11.7174 14.2998 11.7401 14.2616 11.7635 14.2241C11.7664 14.2197 11.7686 14.2153 11.7715 14.2109C11.9876 13.8972 12.1838 13.5688 12.3779 13.2412C12.6218 12.8298 12.8634 12.417 13.0926 11.9968L13.0927 11.9975Z" fill="white"/>
<path fill-rule="evenodd" clip-rule="evenodd" d="M10.0969 11.5259C9.87502 11.1755 9.69854 10.8045 9.56232 10.4666C9.48177 10.2667 9.41513 10.0787 9.36168 9.9134C9.18446 9.36905 9.10902 8.9628 9.09879 8.90919C8.77145 7.60231 9.0673 6.69646 9.38584 6.15654C9.56306 6.83017 9.82962 7.19527 10.2602 7.90124C10.529 8.34201 10.8168 8.79013 11.057 9.1567C11.1932 9.3646 11.314 9.54604 11.4063 9.68488C11.3843 9.71941 11.3616 9.75394 11.3396 9.78846C11.1046 10.1492 10.8607 10.5047 10.6066 10.8529C10.4404 11.0799 10.2697 11.3032 10.0984 11.5258L10.0969 11.5259Z" fill="white"/>
<path fill-rule="evenodd" clip-rule="evenodd" d="M8.40013 18.9985C8.39574 18.9985 8.39208 18.9985 8.38768 18.9977C8.33276 18.9933 8.28516 18.9581 8.26539 18.9067L7.7374 17.6049L9.85748 14.5739C9.90435 14.5078 9.88751 14.416 9.8216 14.369C9.75569 14.322 9.66416 14.3389 9.6173 14.405L7.60632 17.281L7.01096 15.8125C6.99046 15.7626 6.99924 15.706 7.03293 15.6648C7.45108 15.1499 7.89632 14.6283 8.36791 14.0751C9.00062 13.3339 9.65383 12.5685 10.2711 11.7825C10.7573 11.1463 11.0957 10.6791 11.5848 9.95036C11.7174 9.74173 12.2359 8.90501 12.7316 8.08812C13.1095 7.46517 13.4061 7.00457 13.7385 6.33167C13.822 6.50724 13.8916 6.69164 13.9458 6.88483C14.0351 7.20072 14.0871 7.53865 14.0981 7.89053C14.1157 8.45325 14.0249 8.86463 14.0109 8.9256C13.9092 9.59777 13.5349 10.5462 12.8971 11.7473C12.8971 11.7473 12.0506 13.3766 11.5292 14.0503C11.5219 14.062 11.5175 14.0708 11.5145 14.0738C11.2736 14.5241 8.63952 18.748 8.52667 18.928C8.49811 18.9743 8.45124 19 8.40144 19L8.40013 18.9985Z" fill="white"/>
<path fill-rule="evenodd" clip-rule="evenodd" d="M9.6078 5.84812C9.68396 5.76437 9.76891 5.6843 9.85605 5.60422C10.2281 5.31111 10.6235 5.12305 11.0307 5.0437C11.2159 5.00771 11.4041 4.99375 11.5938 5.00256C11.7827 5.01211 11.9709 5.04444 12.1569 5.0988C12.6593 5.24572 13.2188 5.58511 13.5571 6.0347L13.4751 6.20073C13.3249 6.50486 13.1624 6.7965 12.994 7.08446C12.8782 6.98088 12.5992 6.75902 12.1826 6.60769C11.9834 6.5357 11.7871 6.49309 11.5938 6.48134C11.4005 6.47473 11.2042 6.4975 11.005 6.55039C10.4792 6.68997 10.1168 6.9963 10.0735 7.03376C9.90659 6.74139 9.7638 6.44094 9.66933 6.08244L9.60782 5.84883L9.6078 5.84812Z" fill="white"/>
</svg>
