
<svg width="24" height="24" viewBox="0 0 24 24" fill="none" xmlns="http://www.w3.org/2000/svg">
<path d="M9.90002 14.1C9.90002 12.1201 9.90002 11.1302 10.5151 10.5151C11.1302 9.90002 12.1201 9.90002 14.1 9.90002H14.8C16.7799 9.90002 17.7698 9.90002 18.3849 10.5151C19 11.1302 19 12.1201 19 14.1V14.8C19 16.7799 19 17.7698 18.3849 18.3849C17.7698 19 16.7799 19 14.8 19H14.1C12.1201 19 11.1302 19 10.5151 18.3849C9.90002 17.7698 9.90002 16.7799 9.90002 14.8V14.1Z" stroke="white" stroke-width="1.05" stroke-linecap="round" stroke-linejoin="round"/>
<path d="M15.4999 9.9C15.4983 7.83004 15.467 6.75785 14.8644 6.0237C14.7481 5.88192 14.6181 5.75193 14.4763 5.63557C13.7018 5 12.5512 5 10.25 5C7.94876 5 6.79815 5 6.0237 5.63557C5.88192 5.75192 5.75193 5.88192 5.63557 6.0237C5 6.79815 5 7.94876 5 10.25C5 12.5512 5 13.7018 5.63557 14.4763C5.75192 14.6181 5.88192 14.7481 6.0237 14.8644C6.75785 15.467 7.83004 15.4983 9.9 15.4999" stroke="white" stroke-width="1.05" stroke-linecap="round" stroke-linejoin="round"/>
</svg>
