<svg width="24" height="24" viewBox="0 0 24 24" fill="none" xmlns="http://www.w3.org/2000/svg">
<path d="M19.8212 12.8122C19.5423 12.5222 19.039 12.5125 18.6774 12.7891L15.4684 15.0327C15.294 15.8618 14.4894 16.5023 13.6014 16.497L9.89884 16.4665C9.67889 16.465 9.50218 16.2853 9.50442 16.0653C9.50665 15.8469 9.68411 15.6709 9.90182 15.6709H9.9048L13.6074 15.7015H13.6149C14.1703 15.7015 14.6579 15.2862 14.7049 14.771C14.7049 14.7695 14.7049 14.768 14.7057 14.7665C14.7251 14.5435 14.655 14.3326 14.5081 14.1715C14.344 13.9903 14.104 13.8897 13.8333 13.8882L8.58938 13.8613L4.35577 17.0003C4.21485 17.1009 4.12687 17.2471 4.10152 17.4126C4.07617 17.5781 4.11867 17.7436 4.22007 17.8771L5.57857 19.6673C5.7687 19.9178 6.11541 19.9849 6.38532 19.8246L8.13078 18.7539C8.19341 18.7159 8.26499 18.6958 8.33805 18.6958L14.7354 18.6943C15.1224 18.6965 15.4855 18.5325 15.739 18.2559L19.7756 13.8031C20.0582 13.4959 20.0754 13.0799 19.8189 12.8137L19.8212 12.8122Z" fill="white"/>
<path d="M13.8374 4.08862C13.0809 4.08862 12.4185 4.41395 12.0056 4.96384C11.5928 4.41395 10.9304 4.08862 10.1739 4.08862C9.57166 4.0893 8.99431 4.32883 8.56849 4.75465C8.14267 5.18047 7.90314 5.75782 7.90247 6.36002C7.90247 8.9245 11.7049 11.0003 11.8668 11.086C11.9095 11.1089 11.9572 11.121 12.0056 11.121C12.0541 11.121 12.1018 11.1089 12.1445 11.086C12.3064 11.0003 16.1088 8.9245 16.1088 6.36002C16.1081 5.75782 15.8686 5.18047 15.4428 4.75465C15.017 4.32883 14.4396 4.0893 13.8374 4.08862ZM12.0056 10.4925C11.3367 10.1027 8.48863 8.32697 8.48863 6.36002C8.48921 5.91325 8.66695 5.48494 8.98287 5.16902C9.29878 4.85311 9.72709 4.67537 10.1739 4.67479C10.8864 4.67479 11.4847 5.05433 11.7345 5.66395C11.7566 5.7177 11.7942 5.76368 11.8424 5.79603C11.8907 5.82839 11.9475 5.84567 12.0056 5.84567C12.0637 5.84567 12.1205 5.82839 12.1688 5.79603C12.2171 5.76368 12.2547 5.7177 12.2767 5.66395C12.5266 5.05323 13.1248 4.67479 13.8374 4.67479C14.2842 4.67537 14.7125 4.85311 15.0284 5.16902C15.3443 5.48494 15.5221 5.91325 15.5226 6.36002C15.5226 8.32404 12.6739 10.1023 12.0056 10.4925Z" fill="white"/>
<path d="M12.0056 10.4925C11.3367 10.1027 8.48863 8.32697 8.48863 6.36002C8.48921 5.91325 8.66695 5.48494 8.98287 5.16902C9.29878 4.85311 9.72709 4.67537 10.1739 4.67479C10.8864 4.67479 11.4847 5.05433 11.7345 5.66395C11.7566 5.7177 11.7942 5.76368 11.8424 5.79603C11.8907 5.82839 11.9475 5.84567 12.0056 5.84567C12.0637 5.84567 12.1205 5.82839 12.1688 5.79603C12.2171 5.76368 12.2547 5.7177 12.2767 5.66395C12.5266 5.05323 13.1248 4.67479 13.8374 4.67479C14.2842 4.67537 14.7125 4.85311 15.0284 5.16902C15.3443 5.48494 15.5221 5.91325 15.5226 6.36002C15.5226 8.32404 12.6739 10.1023 12.0056 10.4925Z" fill="white"/>
</svg>
