<svg width="24" height="24" viewBox="0 0 24 24" fill="none" xmlns="http://www.w3.org/2000/svg">
<path d="M6.4 19C6.015 19 5.68542 18.8631 5.41125 18.5893C5.13708 18.3154 5 17.9863 5 17.6017V7.81398C5 7.42946 5.13708 7.10029 5.41125 6.82647C5.68542 6.55264 6.015 6.41573 6.4 6.41573H12.6475L11.2475 7.81398H6.4V17.6017H16.2V12.7428L17.6 11.3446V17.6017C17.6 17.9863 17.4629 18.3154 17.1888 18.5893C16.9146 18.8631 16.585 19 16.2 19H6.4ZM9.2 14.8052V11.834L15.6225 5.41948C15.7625 5.27965 15.92 5.17478 16.095 5.10487C16.27 5.03496 16.445 5 16.62 5C16.8067 5 16.9846 5.03496 17.1538 5.10487C17.3229 5.17478 17.4775 5.27965 17.6175 5.41948L18.5975 6.41573C18.7258 6.55556 18.825 6.70995 18.895 6.8789C18.965 7.04786 19 7.21973 19 7.39451C19 7.56929 18.9679 7.74116 18.9038 7.91011C18.8396 8.07907 18.7375 8.23346 18.5975 8.37328L12.175 14.8052H9.2ZM10.6 13.407H11.58L15.64 9.35206L15.15 8.86267L14.6425 8.37328L10.6 12.4107V13.407Z" fill="white"/>
</svg>
