<svg width="24" height="24" viewBox="0 0 24 24" fill="none" xmlns="http://www.w3.org/2000/svg">
<path d="M13.6082 7.74204C13.8219 9.70625 13.8953 11.7085 13.8271 13.7257C13.7595 15.7306 13.5551 17.75 13.2136 19.7588C13.0206 20.8939 12.7835 22.0252 12.5038 23.1494C12.448 23.3738 12.1401 23.3427 12.1964 23.1167C12.6909 21.1287 13.0513 19.1178 13.2733 17.1062C13.4943 15.1038 13.5761 13.1023 13.5204 11.125C13.4888 10.0087 13.4128 8.90059 13.2936 7.80416C13.2693 7.58272 13.5842 7.52202 13.6082 7.74204Z" fill="white"/>
<path d="M12.6237 8.34499C12.2618 7.70718 11.635 7.20131 10.9128 7.08836C10.6761 7.05138 10.4236 7.05845 10.2106 7.16858C9.99764 7.2788 9.8354 7.50976 9.85904 7.74921C9.87624 7.92399 9.98738 8.07867 10.126 8.18586C10.2646 8.29306 10.4295 8.35934 10.593 8.42157C11.1102 8.61848 11.6375 8.78862 12.1722 8.93097" fill="black"/>
<path d="M13.6644 8.45887C14.0739 7.98958 14.366 7.41774 14.5067 6.80994C14.5398 6.66688 14.5643 6.51513 14.5203 6.3751C14.4705 6.21668 14.3347 6.09342 14.1783 6.03947C14.0219 5.98552 13.8481 5.99603 13.691 6.04765C13.253 6.19162 12.966 6.63414 12.874 7.08767C12.7821 7.5412 12.8509 8.01019 12.9199 8.46786" fill="black"/>
<path d="M13.1704 8.22469C13.1974 7.66326 13.1478 7.09809 13.0234 6.54999C12.9229 6.10697 12.7489 5.64202 12.3683 5.39651C12.2375 5.31225 12.0893 5.25901 11.9396 5.21718C11.7166 5.15475 11.4645 5.11939 11.2642 5.23598C11.1264 5.31619 11.0342 5.45784 10.9732 5.60565C10.7365 6.1788 10.9211 6.85753 11.2862 7.35804C11.6512 7.85855 12.1726 8.21721 12.6836 8.56577" fill="black"/>
<g opacity="0.24">
<path d="M10.2388 7.25174C10.9553 7.52958 11.6519 7.85854 12.3212 8.2371C12.5131 8.34561 12.7027 8.45836 12.89 8.57475C12.9353 8.60283 12.8925 8.67386 12.8473 8.64577C12.1976 8.24195 11.5193 7.8844 10.8182 7.57908C10.6191 7.4924 10.4182 7.40995 10.2157 7.33145C10.1664 7.31226 10.1892 7.23254 10.2388 7.25174Z" fill="white"/>
<path d="M10.0056 7.69378C10.6829 7.99596 11.369 8.27845 12.0626 8.54062C12.2596 8.61508 12.4571 8.68783 12.6552 8.75905C12.7051 8.77704 12.6821 8.85675 12.632 8.83867C11.9277 8.58548 11.2307 8.31189 10.5423 8.01789C10.3485 7.93514 10.1554 7.85068 9.96283 7.7648C9.91425 7.74318 9.95761 7.67246 10.0056 7.69378Z" fill="white"/>
<path d="M11.8447 5.23126C12.3261 5.97354 12.6765 6.80048 12.876 7.66349C12.9327 7.909 12.9769 8.15733 13.009 8.40739C13.0157 8.45982 12.9353 8.47932 12.9285 8.42618C12.8161 7.55125 12.5511 6.69824 12.1466 5.91514C12.0324 5.69409 11.9071 5.47889 11.7717 5.27026C11.7428 5.2255 11.8158 5.18671 11.8447 5.23126Z" fill="white"/>
<path d="M11.1769 5.47199C11.3597 6.35551 11.8542 7.12436 12.3838 7.83765C12.5263 8.02961 12.6722 8.21914 12.8167 8.40969C12.8486 8.45172 12.7889 8.5092 12.7568 8.46667C12.2211 7.76046 11.6594 7.05364 11.3221 6.22458C11.2256 5.98705 11.1484 5.74205 11.0964 5.49079C11.0857 5.43865 11.166 5.41956 11.1769 5.47199Z" fill="white"/>
<path d="M14.385 6.28004C14.3503 6.59991 14.2 6.89442 14.0669 7.18235C13.9198 7.5007 13.7645 7.81522 13.6013 8.12558C13.5081 8.30289 13.4122 8.47889 13.3139 8.65347C13.2876 8.70005 13.217 8.65691 13.2432 8.61054C13.5756 8.02001 13.8896 7.41281 14.1539 6.78803C14.2232 6.62456 14.2831 6.45533 14.3024 6.27782C14.3081 6.22498 14.3908 6.2268 14.385 6.28004Z" fill="white"/>
<path d="M13.871 6.19742C13.6533 6.43525 13.4897 6.7147 13.3837 7.01942C13.2736 7.33585 13.1967 7.66521 13.1084 7.98821C13.0569 8.17643 13.0055 8.36465 12.954 8.55287C12.9399 8.6045 12.8607 8.58106 12.8747 8.52963C12.9687 8.18623 13.0625 7.84282 13.1565 7.49942C13.243 7.18299 13.3285 6.86645 13.4912 6.57932C13.5816 6.41989 13.6908 6.27209 13.8143 6.13721C13.8503 6.09781 13.9069 6.15822 13.871 6.19742Z" fill="white"/>
</g>
<path d="M12.4651 7.19226C12.4565 7.07856 12.3799 6.97057 12.2726 6.93324C12.1653 6.89591 12.0337 6.93693 11.973 7.03327C11.9639 7.04763 11.9561 7.06464 11.9601 7.08125C11.9634 7.09526 11.9744 7.10589 11.9836 7.11694C12.0448 7.19065 12.0389 7.30696 12.108 7.37336C12.1735 7.43639 12.2844 7.42649 12.3599 7.3759C12.4354 7.32526 12.4837 7.24389 12.5296 7.16518" fill="white"/>
<path d="M12.3104 9.81883C12.1108 10.0104 11.9102 10.1326 11.5592 10.239C11.3107 10.3144 11.062 10.3898 10.8093 10.4495C10.6952 10.4764 10.5796 10.5003 10.4718 10.5463C10.3803 10.5854 10.2962 10.6396 10.2125 10.6936C9.99764 10.8323 9.7822 10.9713 9.58378 11.1329C8.99105 11.6155 8.57062 12.2844 8.27762 12.992C8.22393 13.1216 8.17389 13.2678 8.22371 13.3989C8.56321 13.1356 8.96689 12.9564 9.38931 12.8814C9.55675 12.8517 9.72665 12.8382 9.89428 12.8097C10.5702 12.6946 11.2004 12.327 11.6349 11.7945C12.0695 11.2619 12.3308 10.507 12.3104 9.81883Z" fill="white"/>
<path d="M12.3136 9.82451C11.9345 10.072 11.8604 10.0127 11.1639 10.3348C10.9085 10.453 10.6337 10.6472 10.4524 10.8631C10.3728 10.9579 10.3002 11.087 10.3506 11.2003C10.3972 11.3052 10.5293 11.3426 10.6434 11.3342C10.7575 11.3258 10.8682 11.2847 10.9825 11.2852C11.0017 11.2852 11.0221 11.2869 11.0376 11.2983C11.0709 11.3228 11.063 11.3736 11.0735 11.4136C11.0982 11.5078 11.2225 11.5311 11.318 11.5137C11.5035 11.4798 11.6649 11.3649 11.8 11.2327C12.1703 10.8704 12.3195 10.3436 12.3136 9.82451Z" fill="white"/>
<path d="M13.084 8.57811C12.7581 8.90656 12.3473 9.14282 11.8993 9.25672C11.7714 9.2892 11.6416 9.31191 11.5102 9.324C11.441 9.33036 11.428 9.22247 11.4975 9.2161C11.9358 9.17589 12.3597 9.015 12.7152 8.75455C12.8154 8.68114 12.9106 8.60017 12.9982 8.51195C13.0188 8.49118 13.0489 8.4825 13.0741 8.50203C13.095 8.51807 13.1048 8.5572 13.084 8.57811Z" fill="white"/>
<path d="M11.8913 9.17332C11.9161 9.57423 11.5863 9.92768 11.21 10.0636C10.8337 10.1995 10.4207 10.1675 10.0222 10.1338C9.74557 10.1103 9.46899 10.0869 9.19232 10.0635C8.95943 10.0438 8.71926 10.0248 8.49681 10.0968C8.35625 10.1423 8.22455 10.2236 8.07719 10.234C8.30226 9.83114 8.58199 9.45295 8.94132 9.16456C9.3007 8.87622 9.74503 8.6818 10.2049 8.67164C10.5947 8.66296 10.9806 8.78635 11.3168 8.98456C11.4835 9.08282 11.6985 9.18674 11.8913 9.17332Z" fill="white"/>
<path d="M11.8999 9.17669C11.7671 9.61919 11.2671 10.0215 10.8141 9.94046C10.742 9.92755 10.6543 9.88129 10.667 9.80883C10.671 9.78577 10.6855 9.76507 10.6866 9.74171C10.6897 9.67401 10.5957 9.65585 10.5283 9.65895C10.2774 9.67049 10.0049 9.63367 9.82282 9.45984C9.7944 9.43273 9.76801 9.40136 9.75772 9.36345C9.73617 9.28438 9.79322 9.201 9.86648 9.16495C9.93969 9.12886 10.0246 9.12848 10.1062 9.12885C10.1882 9.12922 10.2702 9.12959 10.3521 9.12996C10.4049 9.13018 10.4702 9.12234 10.489 9.07282C10.5091 9.01991 10.4576 8.96086 10.4738 8.90661C10.4883 8.85813 10.5473 8.84086 10.5975 8.83676C11.0712 8.79814 11.4285 9.23801 11.8999 9.17669Z" fill="white"/>
<path d="M12.5092 6.07003C12.6316 6.08047 12.7522 6.04841 12.868 6.01226C12.9967 5.97206 13.1233 5.9252 13.2473 5.8722C13.4949 5.76628 13.7312 5.63523 13.9523 5.48115C14.0769 5.39434 14.1964 5.30031 14.3105 5.2C14.3629 5.15392 14.4277 5.24089 14.3756 5.28675C13.9554 5.6561 13.4585 5.93841 12.9259 6.10759C12.7858 6.15211 12.6425 6.19029 12.4943 6.17763C12.4247 6.17162 12.44 6.06406 12.5092 6.07003Z" fill="white"/>
<path d="M13.392 7.85969C13.1825 8.01377 12.9635 8.1611 12.7331 8.28196C12.6199 8.3414 12.5018 8.37729 12.3764 8.40053C12.2609 8.42198 12.1447 8.44233 12.0279 8.45633C11.8943 8.47245 11.759 8.47798 11.6252 8.46221C11.5559 8.45405 11.571 8.34647 11.6402 8.35464C11.8644 8.38104 12.0886 8.34103 12.309 8.30241C12.4288 8.28144 12.5434 8.25475 12.6535 8.20109C12.764 8.14729 12.8689 8.0811 12.9726 8.01537C13.0935 7.93871 13.2116 7.85773 13.3269 7.77293C13.3829 7.73161 13.4482 7.81828 13.392 7.85969Z" fill="white"/>
<path d="M11.6505 8.43783C11.6505 8.34282 11.5675 8.26294 11.4758 8.23996C11.384 8.21694 11.2869 8.23942 11.1982 8.27227C11.1673 8.2837 11.136 8.29696 11.1128 8.32032C11.0895 8.34368 11.0759 8.37959 11.0872 8.41064C11.0929 8.42605 11.1039 8.43878 11.1131 8.45244C11.1793 8.55107 11.155 8.70714 11.2543 8.77207C11.3019 8.80313 11.3655 8.8006 11.4175 8.77766C11.4694 8.75472 11.5115 8.71407 11.549 8.67129C11.6097 8.602 11.6642 8.51439 11.6493 8.4233" fill="white"/>
<g opacity="0.23">
<path d="M12.3363 9.89955C12.1137 10.0619 11.9424 10.2793 11.7607 10.484C11.6716 10.5845 11.5792 10.6828 11.4771 10.7703C11.3719 10.8605 11.2555 10.9353 11.1345 11.0026C11.0081 11.0728 10.8773 11.1346 10.7483 11.1999C10.6212 11.2641 10.4964 11.3328 10.3743 11.4064C10.1302 11.5535 9.89685 11.7186 9.67668 11.8999C9.42824 12.1044 9.19729 12.3296 8.98604 12.5726C8.9632 12.5988 8.9203 12.5658 8.94315 12.5395C9.31652 12.1101 9.75133 11.7353 10.2315 11.4311C10.475 11.2769 10.7312 11.1511 10.9872 11.0199C11.1171 10.9533 11.245 10.8817 11.3619 10.7936C11.4722 10.7104 11.5707 10.6128 11.6639 10.511C11.8698 10.2858 12.0553 10.0376 12.3037 9.85629C12.3319 9.83571 12.3645 9.87897 12.3363 9.89955Z" fill="white"/>
</g>
<path d="M13.372 7.92743C13.2947 8.15772 13.2583 8.40041 13.2365 8.64174C13.2143 8.88664 13.2119 9.13287 13.2289 9.37822C13.2384 9.51726 13.2543 9.65572 13.2758 9.79342C13.2866 9.86254 13.1791 9.87526 13.1683 9.80614C13.0902 9.30585 13.0874 8.78925 13.1725 8.28957C13.1959 8.15265 13.228 8.01719 13.2722 7.88554C13.2944 7.81905 13.3941 7.86149 13.372 7.92743Z" fill="white"/>
<path d="M13.201 9.51437C12.774 10.2987 12.7679 11.2986 13.1853 12.0882C13.4882 12.6614 13.9952 13.1256 14.1929 13.7435C14.2786 13.4387 14.3644 13.1339 14.4502 12.829C14.4992 12.655 14.5483 12.4806 14.5795 12.3025C14.6767 11.7498 14.5962 11.1668 14.3529 10.6614C14.1096 10.156 13.7047 9.73072 13.2129 9.46392" fill="white"/>
<path d="M13.1938 9.46539C13.059 9.81299 12.999 10.2315 12.9831 10.6085C12.9743 10.8171 12.9857 11.0335 13.0723 11.2262C13.0962 11.2795 13.1295 11.334 13.1825 11.357C13.3104 11.4125 13.4234 11.2552 13.5581 11.2321C13.6787 11.2114 13.7908 11.3006 13.8916 11.3757C13.9923 11.4508 14.1278 11.5184 14.2323 11.4562C14.2805 11.4275 14.3112 11.3753 14.3278 11.3208C14.3833 11.1375 14.2963 10.9377 14.1949 10.7705C14.0935 10.6033 13.9718 10.4371 13.9492 10.2441C13.9409 10.1736 13.9454 10.0985 13.9102 10.0364C13.8871 9.99554 13.8495 9.96551 13.8127 9.9368C13.6151 9.78249 13.4443 9.61055 13.2382 9.4685" fill="white"/>
<g opacity="0.23">
<path d="M13.2716 9.55247C13.2149 9.94996 13.4137 10.3231 13.5662 10.6759C13.7471 11.0946 13.8928 11.5284 14.0026 11.9713C14.0648 12.2219 14.115 12.4754 14.1536 12.7307C14.1588 12.7653 14.1051 12.7717 14.0999 12.7371C14.0304 12.2781 13.9228 11.8252 13.7775 11.3845C13.7058 11.167 13.625 10.9526 13.5355 10.7419C13.4563 10.5556 13.3677 10.373 13.3013 10.1814C13.2305 9.97716 13.1871 9.76132 13.2179 9.54494C13.2229 9.51025 13.2765 9.51779 13.2716 9.55247Z" fill="white"/>
</g>
<path d="M14.5389 5.00057C14.4616 5.23085 14.4253 5.47354 14.4034 5.71487C14.3813 5.95976 14.3789 6.206 14.3958 6.45134C14.4054 6.59038 14.4212 6.72884 14.4427 6.86654C14.4535 6.93566 14.3461 6.94838 14.3353 6.87926C14.2571 6.37897 14.2543 5.86238 14.3395 5.3627C14.3628 5.22579 14.3949 5.09032 14.4391 4.95867C14.4613 4.89223 14.561 4.93467 14.5389 5.00057Z" fill="white"/>
<g opacity="0.23">
<path d="M11.8503 9.23837C11.5075 9.40193 11.1214 9.40977 10.7494 9.39444C10.3559 9.37824 9.95839 9.33785 9.57032 9.42881C9.35505 9.47924 9.15151 9.57429 8.98991 9.72774C8.96468 9.75175 8.93229 9.70817 8.95735 9.68435C9.24713 9.40922 9.65528 9.3291 10.0413 9.31766C10.4314 9.30614 10.8207 9.366 11.2109 9.33849C11.4246 9.32344 11.636 9.28062 11.8304 9.18782C11.8618 9.17283 11.8817 9.22338 11.8503 9.23837Z" fill="white"/>
</g>
<path d="M14.808 7.08455C14.7672 6.99666 14.6728 6.94353 14.5775 6.92782C14.4822 6.91212 14.3848 6.92802 14.2897 6.94489C14.0503 6.98741 13.8059 7.03854 13.6006 7.16941C13.418 7.28581 13.2786 7.45767 13.1424 7.62648C13.0203 7.77798 12.8981 7.92947 12.7759 8.0809C12.8222 8.17475 12.9286 8.22736 13.0326 8.23427C13.1367 8.24125 13.2393 8.20952 13.3367 8.17197C13.7372 8.01724 14.0887 7.75988 14.435 7.50543C14.5539 7.41805 14.6734 7.33009 14.7762 7.22396C14.7952 7.20431 14.8144 7.18266 14.8199 7.15584C14.825 7.13186 14.8183 7.10679 14.808 7.08455Z" fill="white"/>
<path d="M12.9607 8.23041C12.9607 8.23041 12.0994 9.42711 10.746 8.76083C10.746 8.76083 9.67363 8.53055 9.62351 8.73233C9.57358 8.93411 9.51058 7.87216 8.93431 7.56406C8.93431 7.56406 8.1035 6.66311 9.38807 6.49268C9.38807 6.49268 11.6939 8.58187 12.9607 8.23041Z" fill="white"/>
<path d="M12.9605 8.23032C12.9605 8.23032 13.8998 8.38977 14.1214 8.50804C14.1214 8.50804 15.6721 8.47973 15.9833 6.81801C15.9833 6.81801 16.0864 6.30154 16.5409 6.08749C16.5409 6.08749 17.6886 5.10148 16.2295 5.06444L16.0287 5.01416C16.0287 5.01416 15.691 6.83326 12.9605 8.23032Z" fill="white"/>
<path d="M9.38771 6.49268C9.38771 6.49268 8.65843 6.90289 9.05743 7.11617C9.05743 7.11617 9.50829 7.19302 10.0412 7.29901C10.295 7.34942 10.5955 7.5958 10.6948 8.10528C10.7557 8.41861 11.0531 9.03939 11.8973 8.51937L12.3548 8.19253C12.3548 8.19253 11.4718 8.46346 9.38771 6.49268Z" fill="white"/>
<path d="M9.79875 4.42755C9.79875 4.42755 8.95365 4.09024 8.62942 4.48804C8.62942 4.48804 8.88673 4.96864 8.62742 5.45828C8.62742 5.45828 8.58669 6.1793 9.38765 6.49276C9.38765 6.49276 11.6199 8.82807 12.9603 8.23049C12.9603 8.23049 13.9166 7.71351 13.7298 7.09945C13.7298 7.09945 11.7163 7.67996 9.97801 6.23702C9.97801 6.23702 8.42274 4.66338 9.79875 4.42755Z" fill="white"/>
<path d="M15.9985 4.42629L16.0195 4.84742L16.029 5.01469C16.029 5.01469 16.0295 5.03072 16.0284 5.06245C16.0272 5.08397 16.0243 5.11112 16.0207 5.14479C16.0121 5.22577 15.9931 5.33991 15.953 5.48359C15.9492 5.49696 15.9445 5.50905 15.9409 5.52223C15.8475 5.82975 15.6957 6.11109 15.5153 6.37536C15.3057 6.68242 15.0088 6.89642 14.6988 7.10311C14.6619 7.12773 14.624 7.15229 14.5813 7.1647C14.5291 7.17989 14.4736 7.17569 14.4192 7.17756C14.2231 7.18428 14.0357 7.27043 13.8395 7.27451C13.7375 7.27664 13.6366 7.25647 13.5355 7.2431C13.2562 7.20619 12.9701 7.22138 12.6962 7.28769C12.502 7.33468 12.3143 7.40694 12.1188 7.44836C11.9392 7.48637 11.7159 7.5086 11.5452 7.42458C11.3539 7.33041 11.1661 7.17349 10.9887 7.05256C10.8492 6.95782 10.7112 6.85984 10.5765 6.76127C10.1762 6.46429 9.80833 6.15142 9.54819 5.84797C9.31198 5.5795 9.10897 5.14098 9.18541 4.77685C9.19487 4.73186 9.20826 4.68707 9.23232 4.64791C9.25439 4.61204 9.2847 4.58205 9.31591 4.55381C9.38212 4.49383 9.45515 4.43896 9.53944 4.40961C9.62367 4.38034 9.72089 4.3793 9.79855 4.42325C9.679 4.23143 9.61607 3.91816 9.6209 3.69467C9.62379 3.56056 9.65288 3.42587 9.72681 3.30637C9.79952 3.18783 9.9136 3.08513 10.088 3.01145C10.1331 2.99135 10.1849 2.97416 10.2409 2.95962C10.2936 2.94372 10.3515 2.93183 10.415 2.92136C10.4172 2.92168 10.4208 2.92078 10.4242 2.92013C10.4439 2.91658 10.4668 2.91438 10.4885 2.91115C10.4885 2.91115 10.2923 2.32753 10.8191 2.063C10.8586 2.04335 10.9002 2.02616 10.9472 2.01071C11.1446 1.94537 11.4163 1.91648 11.7925 1.95112C11.7925 1.95112 12.263 1.17277 12.8753 1.84306L13.4863 2.51231C13.4863 2.51231 13.7236 2.29528 14.0588 2.19232C14.4069 2.08504 14.86 2.09848 15.2586 2.60241C15.2586 2.60241 16.9513 3.1645 15.9985 4.42629Z" fill="white"/>
<path d="M13.486 2.51309C13.486 2.51309 14.8887 2.11968 15.2442 3.16677C15.2442 3.16677 15.8958 4.94321 15.3175 5.60535L14.1545 6.29774L14.1584 4.35753C14.1584 4.35753 13.788 3.01702 13.3389 3.00571C13.3389 3.00571 13.303 2.64384 13.486 2.51309Z" fill="white"/>
<path d="M13.3238 2.71165C13.3238 2.71165 12.277 1.46686 10.8075 2.73802C10.8075 2.73802 9.95193 3.70897 10.7328 4.81176L10.9931 5.17932C10.9931 5.17932 12.8955 5.45342 12.9662 5.31989C13.0369 5.18643 13.9509 3.67529 13.9509 3.67529L13.3238 2.71165Z" fill="white"/>
<path d="M10.177 4.57251C10.177 4.57251 10.3581 5.41193 10.5976 5.71137L9.66959 5.10119C9.66959 5.10119 9.82697 5.98502 10.6485 6.36705C10.6485 6.36705 10.906 6.84726 12.1113 7.14869C12.1113 7.14869 13.4732 7.47663 13.7297 7.09945C13.7297 7.09945 14.7353 5.52297 14.56 4.45824L14.3554 3.66341C14.3554 3.66341 14.809 2.5919 13.4857 2.51331C13.4857 2.51331 13.1907 2.64102 13.3386 3.00586C13.3386 3.00586 13.6113 3.77981 12.933 4.84564C12.933 4.84564 12.8792 4.30255 11.905 4.63889C11.905 4.63889 11.471 4.92145 10.7326 4.81216C10.7326 4.81216 10.3752 4.73544 10.177 4.57251Z" fill="white"/>
<path d="M11.1891 3.62776C11.1891 3.62776 10.5978 4.36875 11.2335 4.99412L10.7636 4.91449C10.7636 4.91449 10.4431 3.37208 11.242 3.31326C11.242 3.31326 11.2648 2.41127 11.909 2.69836C11.909 2.69836 12.3277 2.12257 13.0105 2.65874C13.141 2.76118 13.4127 3.18794 13.4127 3.18794L13.3471 4.00972C13.3471 4.00972 13.1671 2.68518 12.686 3.05668C12.686 3.05668 11.959 2.49665 11.5108 3.3426C11.5108 3.3426 11.2692 4.01347 12.5916 4.57699L12.153 4.59993C12.153 4.59993 11.3993 4.19728 11.1891 3.62776Z" fill="white"/>
<path d="M13.486 2.51315C13.486 2.51315 14.7972 2.18547 15.0282 2.82299C15.0282 2.82299 15.1465 3.02897 14.8603 3.24736C14.7023 3.36789 14.2908 3.57116 14.7282 4.03359C14.9065 4.22199 15.3697 4.4334 14.6349 5.06917L14.5169 5.29183C14.5169 5.29183 14.6934 4.52918 14.3558 3.66326C14.3558 3.66326 14.6945 2.70168 13.486 2.51315Z" fill="white"/>
<path d="M12.9605 8.23027C12.9605 8.23027 14.1548 8.24119 14.7206 7.91403C15.0174 7.74217 15.4858 7.62616 15.5345 6.80658C15.5532 6.48956 15.9472 6.12466 16.257 5.76447C16.3304 5.67903 16.4249 5.3401 15.9966 5.39672C15.9966 5.39672 14.9063 7.6705 12.9605 8.23027Z" fill="white"/>
<path d="M13.4891 6.78494C13.4891 6.78494 13.3759 6.61037 13.1596 6.39308C13.05 6.28644 12.9133 6.17289 12.7596 6.06579C12.6799 6.01642 12.5995 5.96335 12.5108 5.9227C12.426 5.87474 12.3312 5.84598 12.2412 5.80914C12.1456 5.78794 12.0548 5.75253 11.9587 5.74671C11.9119 5.74051 11.8655 5.73437 11.8196 5.72836C11.7731 5.72784 11.7278 5.72428 11.683 5.7215C11.5942 5.708 11.5072 5.71407 11.424 5.70696C11.3779 5.70451 11.333 5.70218 11.2897 5.69992C11.2385 5.69488 11.1964 5.6879 11.153 5.67781C11.1104 5.66831 11.0704 5.65726 11.0332 5.6411C10.996 5.62643 10.9608 5.61422 10.9302 5.59341C10.8667 5.5609 10.8195 5.51714 10.7836 5.48159C10.7471 5.44708 10.7302 5.40708 10.7159 5.38613C10.7033 5.36358 10.6965 5.35156 10.6965 5.35156L10.7202 5.33191C10.7202 5.33191 10.7323 5.33779 10.7548 5.34878C10.7785 5.35757 10.8041 5.3787 10.8458 5.39027C10.8873 5.40216 10.9329 5.41832 10.9907 5.42356C11.0457 5.43325 11.1108 5.4339 11.1796 5.43241C11.2556 5.43028 11.3048 5.41903 11.4089 5.40889C11.5033 5.39841 11.6041 5.3871 11.7081 5.40113C11.76 5.40714 11.8129 5.41257 11.8657 5.42104C11.9181 5.4337 11.9703 5.44993 12.0228 5.46492C12.1289 5.49064 12.2291 5.54054 12.3314 5.57945C12.4282 5.63134 12.5283 5.67575 12.6157 5.73824C12.7073 5.7937 12.7881 5.86072 12.8672 5.92315C12.9415 5.99134 13.016 6.05377 13.0758 6.12383C13.1394 6.19001 13.1918 6.25904 13.2419 6.32063C13.4342 6.57457 13.5161 6.7704 13.5161 6.7704L13.4891 6.78494Z" fill="black"/>
<path d="M13.1042 5.94665C13.0831 5.85261 13.0738 5.75683 13.0709 5.6604C13.07 5.56429 13.0725 5.46709 13.0845 5.37092C13.0901 5.3227 13.0951 5.2741 13.1052 5.22653C13.1146 5.17877 13.1226 5.1303 13.1369 5.08363C13.1605 4.98863 13.1925 4.89614 13.2272 4.80397C13.2442 4.75783 13.2665 4.71407 13.2862 4.66883C13.3054 4.62333 13.3272 4.57906 13.352 4.53653L13.4235 4.4065L13.504 4.28189C13.5544 4.19535 13.6188 4.12012 13.6823 4.04353C13.7137 4.00481 13.7527 3.97424 13.7888 3.94051C13.8263 3.90832 13.8635 3.87594 13.9028 3.84615L13.9203 3.83296L13.921 3.83264C13.9311 3.82805 13.9556 3.81409 13.9714 3.80123C13.989 3.78746 14.0089 3.77544 14.0248 3.75967C14.0421 3.74481 14.0607 3.7302 14.0734 3.71217C14.0866 3.69478 14.1087 3.67979 14.1179 3.65975C14.1292 3.64043 14.1417 3.62071 14.1562 3.60029C14.1651 3.5787 14.1715 3.55582 14.1819 3.53217C14.195 3.50826 14.1962 3.48299 14.2 3.45616L14.2139 3.37111L14.2432 3.36206C14.258 3.38778 14.2729 3.41538 14.2861 3.44466C14.301 3.47381 14.3127 3.50438 14.315 3.53721C14.3199 3.56985 14.3227 3.60385 14.3246 3.63836C14.3209 3.67164 14.315 3.70564 14.3081 3.73996C14.3032 3.77557 14.2863 3.80472 14.2741 3.83781C14.2612 3.87084 14.2424 3.89895 14.2237 3.92784C14.2058 3.95783 14.1843 3.98452 14.1607 4.00966C14.1363 4.03668 14.1152 4.05678 14.0794 4.08502L14.0975 4.07145C14.0398 4.14099 13.975 4.20181 13.9122 4.2645C13.8541 4.33088 13.7812 4.38562 13.7243 4.454L13.6351 4.55444L13.5552 4.66217C13.5276 4.69779 13.5029 4.73521 13.4805 4.77405C13.4578 4.8127 13.4321 4.85012 13.4114 4.89013C13.3695 4.96988 13.3291 5.05099 13.2965 5.13573C13.2771 5.17709 13.266 5.22104 13.2497 5.26376C13.2329 5.30642 13.2212 5.35049 13.2087 5.39464C13.183 5.48273 13.1659 5.57328 13.1519 5.66486C13.1411 5.75631 13.1312 5.84951 13.1346 5.94219L13.1042 5.94665Z" fill="black"/>
<path d="M14.1548 6.29764C14.1548 6.29764 14.1267 6.15357 14.1526 5.93784C14.1655 5.83042 14.1894 5.70517 14.2333 5.57552C14.252 5.50966 14.2835 5.44561 14.3112 5.37904C14.3443 5.31473 14.378 5.249 14.4184 5.18708C14.4619 5.12704 14.5002 5.06345 14.5521 5.01097C14.5998 4.95545 14.6496 4.90355 14.7052 4.86076C14.7322 4.83866 14.758 4.81617 14.7846 4.79607C14.8131 4.77849 14.8412 4.76143 14.8684 4.74469C14.9221 4.71069 14.974 4.68141 15.0269 4.66396C15.0782 4.64347 15.1249 4.62589 15.1671 4.61349C15.2106 4.60386 15.2489 4.5981 15.2799 4.59287C15.3423 4.58317 15.3774 4.5802 15.3774 4.5802C15.3774 4.5802 15.3474 4.60211 15.296 4.63598C15.2702 4.65265 15.2394 4.6732 15.2038 4.69402C15.1708 4.71929 15.1337 4.74785 15.0931 4.77907C15.0515 4.80693 15.0128 4.84583 14.9705 4.88371C14.9497 4.90271 14.9283 4.92223 14.9064 4.94226C14.8873 4.96534 14.8663 4.98692 14.8458 5.0098C14.8021 5.05272 14.7639 5.10326 14.7244 5.15406C14.6825 5.20253 14.6494 5.25979 14.6117 5.31318C14.5748 5.36734 14.5441 5.42609 14.5099 5.48141C14.4819 5.54036 14.4469 5.59497 14.4221 5.65281C14.395 5.70956 14.3673 5.76417 14.3451 5.81814C14.3221 5.87217 14.3004 5.92329 14.2804 5.97047C14.2039 6.16165 14.1548 6.29764 14.1548 6.29764Z" fill="black"/>
<path d="M9.6754 5.08923C9.8591 5.16136 10.0342 5.25307 10.2053 5.35286C10.2903 5.40366 10.3751 5.45563 10.456 5.51341C10.5376 5.57022 10.6178 5.62961 10.6953 5.69263C10.7738 5.75467 10.849 5.82105 10.9227 5.88956C10.9609 5.92252 10.9946 5.96013 11.0309 5.99529C11.0664 6.03123 11.1033 6.066 11.1361 6.10491C11.2053 6.17936 11.2737 6.2555 11.3318 6.34042C11.3955 6.42102 11.4381 6.51654 11.4855 6.60728L11.4783 6.59507C11.4888 6.61323 11.5053 6.64005 11.5219 6.66144C11.5384 6.68432 11.5555 6.70701 11.5736 6.72911C11.5915 6.75135 11.6087 6.77494 11.6292 6.79452C11.6496 6.81404 11.6671 6.83853 11.6884 6.8576C11.7096 6.87673 11.7316 6.89528 11.7528 6.91635C11.7741 6.93684 11.7992 6.95028 11.8228 6.96902C11.8462 6.98854 11.8711 7.00521 11.8982 7.01795C11.9249 7.03204 11.9521 7.04781 11.9806 7.06442L11.9768 7.0904C11.9446 7.09169 11.9112 7.09227 11.8773 7.09111C11.8423 7.09247 11.8096 7.08536 11.7768 7.07689C11.7443 7.06804 11.7095 7.06112 11.678 7.04813C11.6464 7.03533 11.6158 7.01995 11.5843 7.00528C11.5532 6.98996 11.5251 6.97096 11.4962 6.95196C11.4666 6.93373 11.4407 6.91163 11.4138 6.89024C11.3859 6.86962 11.3618 6.84493 11.3374 6.82044C11.3119 6.79549 11.2908 6.77177 11.2646 6.73932L11.2574 6.72711C11.2035 6.6502 11.1611 6.56792 11.1083 6.49056C11.06 6.41061 11.0098 6.33105 10.9554 6.25349C10.9296 6.21368 10.8989 6.17762 10.8696 6.14013C10.8398 6.10323 10.8119 6.06438 10.779 6.02987C10.716 5.95826 10.6511 5.88794 10.5822 5.82111C10.5143 5.75332 10.4431 5.68836 10.37 5.62567C10.2968 5.56291 10.2223 5.50138 10.1461 5.44128C9.99294 5.32255 9.83208 5.21229 9.6644 5.11295L9.6754 5.08923Z" fill="black"/>
<path d="M13.0323 5.22159C13.018 5.12536 12.9879 5.03132 12.9498 4.94465C12.9308 4.90128 12.9076 4.85979 12.8807 4.82282C12.8668 4.80459 12.8549 4.78482 12.8382 4.76969C12.8219 4.7545 12.8091 4.73557 12.7905 4.72367C12.7573 4.69498 12.7194 4.67553 12.6815 4.65814C12.6615 4.65168 12.6409 4.64754 12.621 4.64172C12.6019 4.63429 12.5795 4.63675 12.5589 4.63403C12.518 4.62679 12.4738 4.63681 12.4315 4.63998C12.4104 4.64108 12.3886 4.65064 12.3672 4.65536L12.3031 4.67255L12.3238 4.66402C12.2367 4.71598 12.1539 4.75799 12.0656 4.79716C11.9782 4.83691 11.8885 4.87097 11.7972 4.90212C11.7059 4.93295 11.6129 4.96068 11.5176 4.98239C11.4701 4.99396 11.4225 5.00605 11.3735 5.01161C11.3246 5.01813 11.2761 5.0277 11.2264 5.02815C11.1768 5.03035 11.127 5.02906 11.0774 5.02931C11.0278 5.02434 10.978 5.0182 10.9288 5.01077C10.8794 5.00482 10.8309 4.98982 10.7826 4.97716C10.7343 4.96423 10.6863 4.95131 10.6408 4.92946C10.5947 4.91001 10.5493 4.88913 10.5052 4.86709C10.462 4.84247 10.4208 4.8139 10.3806 4.78566L10.3209 4.74326L10.2676 4.69162C10.2328 4.65704 10.1995 4.62143 10.1685 4.58491L10.1864 4.55984C10.2335 4.57212 10.2785 4.58524 10.3218 4.59933C10.364 4.61542 10.4075 4.62699 10.4517 4.63571L10.5793 4.66648C10.623 4.67178 10.6656 4.6783 10.7073 4.68625C10.7485 4.69647 10.7926 4.69362 10.8343 4.69944C10.8765 4.70319 10.9178 4.70946 10.9608 4.70706L11.0871 4.70997C11.1295 4.70933 11.1718 4.70713 11.2142 4.70836C11.2566 4.70984 11.2993 4.70429 11.3422 4.70435C11.3851 4.70403 11.4282 4.70144 11.4715 4.69718C11.5582 4.69226 11.6445 4.67636 11.7306 4.6593C11.8167 4.6414 11.9022 4.61839 11.9863 4.59092C12.0699 4.56468 12.1557 4.53172 12.2312 4.49734L12.2492 4.48919L12.252 4.48874L12.3328 4.47588C12.3601 4.47278 12.3856 4.46535 12.4139 4.46612C12.4699 4.46715 12.5248 4.46237 12.5811 4.47704C12.6089 4.48331 12.6371 4.48506 12.6633 4.49837C12.6898 4.50975 12.7165 4.51989 12.7418 4.53269C12.7907 4.56307 12.8358 4.59655 12.8728 4.63849C12.8934 4.65717 12.9065 4.68173 12.9233 4.70306C12.9404 4.72432 12.9513 4.74895 12.9643 4.77221C12.9892 4.81907 13.008 4.86825 13.022 4.91789C13.0512 5.01723 13.0639 5.1185 13.0631 5.21985L13.0323 5.22159Z" fill="black"/>
<path d="M12.9203 4.83751C12.9203 4.83751 12.9914 4.68434 13.0771 4.44837C13.1583 4.21266 13.2653 3.89184 13.2843 3.57527C13.2855 3.49733 13.2893 3.41861 13.2739 3.34777C13.2648 3.27493 13.2438 3.21069 13.2248 3.15259C13.213 3.12034 13.2015 3.08867 13.1902 3.05752C13.1722 3.01014 13.1616 2.96988 13.1543 2.92515C13.1392 2.83855 13.1373 2.74503 13.1727 2.65351C13.2054 2.55999 13.2935 2.49193 13.3622 2.47829C13.3967 2.46931 13.4273 2.4706 13.4548 2.46802C13.4815 2.4708 13.5048 2.47571 13.5256 2.4792C13.5668 2.48683 13.5952 2.50279 13.6152 2.51042C13.6346 2.51927 13.6449 2.52412 13.6449 2.52412L13.6411 2.55469C13.6411 2.55469 13.6305 2.55805 13.6105 2.56432C13.5914 2.57188 13.5622 2.57569 13.5302 2.58972C13.4976 2.60161 13.4611 2.61893 13.4358 2.64278C13.4092 2.66721 13.4091 2.69028 13.4094 2.7195C13.4115 2.75026 13.4216 2.79796 13.4421 2.85102C13.4532 2.87642 13.466 2.90686 13.4776 2.92948C13.4774 2.92896 13.4834 2.94086 13.4803 2.93426L13.4877 2.95036L13.5015 2.98332L13.5284 3.05079C13.5559 3.14231 13.5685 3.24062 13.5614 3.33349C13.5607 3.42817 13.5445 3.51846 13.5279 3.60746C13.4544 3.96093 13.3048 4.27251 13.1763 4.49452C13.0502 4.71762 12.9468 4.85322 12.9468 4.85322L12.9203 4.83751Z" fill="black"/>
<path d="M12.4002 3.23011C12.4002 3.23011 12.3633 3.22908 12.2987 3.23211C12.2345 3.23599 12.1417 3.24174 12.0372 3.26721C11.9849 3.27929 11.931 3.29907 11.8808 3.32563C11.8358 3.35666 11.7874 3.38949 11.7776 3.43867C11.7642 3.45923 11.7735 3.48947 11.7685 3.51365C11.7776 3.54254 11.7797 3.57039 11.7917 3.59954L11.8337 3.68757L11.892 3.7734C11.9008 3.78484 11.9135 3.80784 11.9189 3.80972L11.9567 3.85108C11.9817 3.88191 12.0073 3.89923 12.0316 3.91785C12.0764 3.9552 12.1373 3.99314 12.1887 4.02714C12.296 4.09506 12.3981 4.15937 12.4932 4.20087C12.5398 4.22639 12.5846 4.24081 12.6252 4.25645C12.6656 4.27461 12.7019 4.28644 12.7327 4.29374C12.7944 4.3099 12.8328 4.32353 12.8328 4.32353L12.8347 4.34654C12.8347 4.34654 12.7988 4.35973 12.7302 4.37504C12.7129 4.37899 12.6936 4.38345 12.6725 4.38823C12.6516 4.38881 12.6288 4.38946 12.6046 4.3901C12.5559 4.3901 12.4986 4.3925 12.4402 4.37808C12.4103 4.37227 12.3792 4.36613 12.3469 4.35986C12.3156 4.35081 12.2846 4.33801 12.2517 4.32651C12.1845 4.30602 12.1217 4.26724 12.0566 4.22846C11.9958 4.18012 11.9344 4.1385 11.8774 4.0696C11.8485 4.03754 11.8189 4.00529 11.8005 3.97537L11.7686 3.92942C11.7487 3.90363 11.7471 3.89122 11.7356 3.87151L11.6804 3.76448L11.6402 3.64627C11.6291 3.60594 11.6277 3.55947 11.6227 3.51791C11.6316 3.47267 11.6292 3.42549 11.6549 3.38587C11.6918 3.29804 11.7712 3.25551 11.8349 3.22662C11.9023 3.20271 11.9658 3.19056 12.0239 3.1859C12.1401 3.17621 12.2345 3.18306 12.3002 3.19127C12.3658 3.1996 12.4028 3.20717 12.4028 3.20717L12.4002 3.23011Z" fill="black"/>
<path d="M12.3046 3.06938C12.3046 3.06938 12.3666 3.05807 12.461 3.06053C12.5084 3.06137 12.5644 3.0646 12.6238 3.07779C12.6834 3.08981 12.7474 3.10849 12.8105 3.13757C12.8725 3.16659 12.9415 3.20091 12.9883 3.25688C13.0087 3.28687 13.0304 3.31492 13.0373 3.34898C13.0465 3.38142 13.0566 3.41102 13.054 3.44069C13.0543 3.46951 13.0511 3.49569 13.0477 3.51766C13.0404 3.5399 13.0329 3.55851 13.0253 3.57338C13.0108 3.60285 12.9982 3.61758 12.9982 3.61758L12.9752 3.61707C12.9752 3.61707 12.9607 3.60155 12.9429 3.57829C12.9337 3.56672 12.9242 3.55321 12.9146 3.5386C12.9024 3.52484 12.8887 3.51075 12.8779 3.49563C12.8683 3.47986 12.8506 3.46745 12.8395 3.45226C12.8282 3.43707 12.8115 3.42447 12.8007 3.4074C12.7903 3.38989 12.775 3.37315 12.7643 3.35105C12.7486 3.33243 12.7331 3.3122 12.7131 3.29495C12.634 3.22482 12.5269 3.1757 12.4451 3.14151C12.3622 3.10913 12.3033 3.09265 12.3033 3.09265L12.3046 3.06938Z" fill="black"/>
<path d="M12.0868 3.68214C12.0973 3.58823 12.1339 3.49038 12.2194 3.42006C12.2616 3.38555 12.3178 3.36241 12.3732 3.35931C12.4295 3.35271 12.4827 3.36247 12.5345 3.3743L12.5191 3.37042C12.552 3.37482 12.5747 3.37896 12.6009 3.38846C12.6268 3.39589 12.6514 3.40688 12.6753 3.42129C12.7004 3.43318 12.7224 3.45057 12.744 3.46996C12.7674 3.4876 12.7863 3.50912 12.8021 3.53394C12.8178 3.55798 12.84 3.58196 12.8473 3.60885C12.857 3.6356 12.8664 3.66314 12.8732 3.69119C12.8816 3.71924 12.8759 3.74477 12.877 3.77178C12.8747 3.79841 12.8735 3.82491 12.8691 3.85082L12.8667 3.86504L12.8661 3.86647C12.822 3.97071 12.7693 4.07257 12.6812 4.16493L12.659 4.15898C12.6288 4.03476 12.6338 3.91998 12.6475 3.80759L12.6446 3.82316C12.6407 3.80616 12.6401 3.78988 12.6383 3.77353C12.6373 3.75795 12.6408 3.73959 12.6377 3.72615C12.6343 3.71258 12.6336 3.69843 12.633 3.6835C12.6353 3.66669 12.6262 3.65751 12.6235 3.64317C12.621 3.62856 12.6144 3.61609 12.6049 3.60555C12.5971 3.5934 12.589 3.58054 12.576 3.57188C12.565 3.56102 12.5524 3.55139 12.5378 3.54389C12.5255 3.53491 12.5063 3.52864 12.4976 3.52412L12.4821 3.52024C12.4472 3.50479 12.4111 3.48986 12.3758 3.48721C12.3401 3.48224 12.3052 3.48702 12.2709 3.50169C12.2016 3.5311 12.1447 3.60607 12.1094 3.68731L12.0868 3.68214Z" fill="black"/>
<path d="M14.4472 7.21188C14.2626 7.23767 14.0749 7.24918 13.8926 7.27981C13.7098 7.3087 13.5279 7.33203 13.347 7.35608L13.3414 7.35685L13.3213 7.3564C13.2283 7.35401 13.1278 7.35543 13.0317 7.36493C12.9833 7.37004 12.9347 7.37178 12.8873 7.38173C12.8398 7.3904 12.7919 7.39692 12.7453 7.40707L12.6081 7.44514C12.5617 7.45528 12.5209 7.47758 12.4766 7.49031C12.4547 7.49723 12.4333 7.5055 12.4111 7.51125C12.3883 7.51636 12.37 7.52877 12.3493 7.53711C12.3078 7.55333 12.267 7.57117 12.2233 7.5848L12.2011 7.59521C12.1691 7.60484 12.1546 7.60484 12.1326 7.60865C12.1123 7.61143 12.0941 7.61111 12.075 7.61227C12.0366 7.61583 12.0014 7.60852 11.9652 7.6051C11.9295 7.60032 11.8958 7.58965 11.8619 7.58177C11.8274 7.57524 11.7973 7.5565 11.7657 7.54428C11.7016 7.52108 11.6491 7.47687 11.5952 7.44119C11.5693 7.42129 11.5466 7.39731 11.5239 7.37417C11.5011 7.35123 11.4798 7.32706 11.4594 7.30295L11.4766 7.27736C11.5081 7.28375 11.5386 7.29015 11.5677 7.29771C11.5977 7.30366 11.6244 7.3151 11.6538 7.31898C11.7121 7.32647 11.7662 7.34147 11.8207 7.34192C11.8478 7.3427 11.8741 7.3478 11.9001 7.34502C11.9259 7.34341 11.9516 7.34509 11.976 7.3414C11.9997 7.33572 12.0251 7.33591 12.0463 7.32932C12.0569 7.32635 12.0689 7.3246 12.0781 7.32117C12.0853 7.31807 12.1005 7.31342 12.097 7.3131L12.0748 7.32344C12.1232 7.29429 12.1744 7.26934 12.2251 7.24284C12.2511 7.23179 12.2762 7.21621 12.3029 7.20904C12.3293 7.20031 12.3565 7.19392 12.3832 7.18629C12.4369 7.17343 12.4906 7.1552 12.5451 7.15184L12.7072 7.13523C12.8147 7.13006 12.9213 7.1258 13.027 7.1311C13.1336 7.13394 13.2363 7.14441 13.3451 7.16083L13.3196 7.16102C13.5095 7.15856 13.6984 7.1552 13.8865 7.15753C14.0747 7.15591 14.2595 7.17117 14.4463 7.18099L14.4472 7.21188Z" fill="black"/>
<path d="M13.5995 7.25885C13.5995 7.25885 13.67 7.06218 13.815 6.78349C13.8513 6.71382 13.8912 6.6384 13.9377 6.56058C13.9828 6.48199 14.036 6.40211 14.0948 6.32119C14.1536 6.24014 14.2173 6.15748 14.2941 6.08018C14.3673 6.00062 14.4575 5.92869 14.5608 5.8667C14.6868 5.80718 14.7655 5.78527 14.8471 5.73848C14.9314 5.69401 15.0135 5.64521 15.0931 5.59958C15.2538 5.51046 15.4048 5.42754 15.5291 5.34998C15.59 5.31004 15.6464 5.27378 15.6931 5.23804C15.7406 5.20282 15.7774 5.16895 15.8089 5.13961C15.8352 5.10897 15.8598 5.08325 15.8696 5.06315C15.8825 5.04266 15.8893 5.03174 15.8893 5.03174L15.9199 5.03542C15.9164 5.03374 15.9343 5.09372 15.9048 5.19416C15.8887 5.24192 15.864 5.29899 15.8274 5.35787C15.7903 5.41616 15.7438 5.47808 15.6871 5.53903C15.6305 5.59958 15.5651 5.6606 15.4913 5.71812C15.4186 5.77713 15.3367 5.8318 15.2479 5.88092C15.1583 5.92901 15.062 5.97108 14.9588 6.00489C14.8549 6.0416 14.7323 6.06868 14.6677 6.0889C14.5901 6.12536 14.5098 6.1728 14.4377 6.23594C14.3636 6.29501 14.2961 6.36469 14.233 6.43391C14.1691 6.5028 14.1118 6.5748 14.0573 6.64305C14.0022 6.71098 13.9532 6.77832 13.9084 6.84076C13.7306 7.0923 13.6272 7.2721 13.6272 7.2721L13.5995 7.25885Z" fill="black"/>
<path d="M11.9002 2.6914C11.9002 2.6914 11.9351 2.61617 12.0243 2.5295C12.0674 2.48452 12.1265 2.43876 12.1985 2.40173C12.235 2.38408 12.2736 2.36624 12.3158 2.35532C12.3571 2.33994 12.4015 2.33613 12.4461 2.32869C12.5352 2.321 12.6287 2.32074 12.71 2.3455C12.7487 2.3612 12.7855 2.37839 12.8177 2.39875C12.8482 2.42086 12.8752 2.44425 12.8988 2.46694C12.948 2.50972 12.9735 2.56072 12.9928 2.59381C13.0112 2.62781 13.0183 2.64997 13.0183 2.64997L13.0035 2.66775C13.0035 2.66775 12.9792 2.66645 12.9427 2.65973C12.9243 2.6565 12.9031 2.65165 12.8799 2.64551C12.8574 2.63782 12.8313 2.63201 12.804 2.6258C12.7766 2.61947 12.7488 2.61068 12.7207 2.60034C12.6907 2.5953 12.662 2.58586 12.6329 2.5739C12.6039 2.56259 12.5742 2.55322 12.5437 2.53784C12.5129 2.52776 12.4801 2.51968 12.4469 2.51386C12.4139 2.51257 12.3794 2.50649 12.3462 2.5116C12.312 2.51225 12.2792 2.51948 12.2468 2.52685C12.1834 2.54488 12.1223 2.56718 12.0737 2.5953C11.9744 2.64959 11.9185 2.70536 11.9185 2.70536L11.9002 2.6914Z" fill="black"/>
<path d="M12.2012 2.69506C12.1108 2.70146 12.0194 2.70611 11.9278 2.7043C11.8818 2.70314 11.8362 2.70456 11.7893 2.70113C11.7416 2.69545 11.6931 2.69008 11.6446 2.68246L11.6658 2.68562C11.6451 2.69034 11.6147 2.69816 11.5911 2.71057C11.5789 2.71697 11.5653 2.71975 11.5546 2.72899L11.5211 2.75219C11.4966 2.76434 11.483 2.79071 11.4635 2.80803C11.4427 2.82464 11.4341 2.85295 11.4202 2.87538C11.4063 2.898 11.3938 2.9214 11.3899 2.95061L11.3697 3.03094C11.3664 3.05899 11.3688 3.08956 11.3678 3.11813C11.3675 3.14709 11.3666 3.17552 11.3639 3.2039L11.362 3.22225L11.3574 3.23983L11.3193 3.38364C11.3045 3.4325 11.2959 3.48175 11.2868 3.53035C11.2794 3.57908 11.2728 3.628 11.2758 3.67603C11.2774 3.69981 11.2793 3.72514 11.2863 3.74899C11.2906 3.76024 11.2914 3.77543 11.2979 3.78641L11.315 3.82494L11.3007 3.8431C11.2728 3.83185 11.242 3.81744 11.2185 3.79436C11.1928 3.7731 11.1728 3.74544 11.1561 3.717C11.1214 3.65922 11.104 3.59491 11.0954 3.53196C11.0851 3.46856 11.0873 3.4058 11.0919 3.3444C11.0957 3.31383 11.0992 3.28326 11.1064 3.2534C11.1134 3.22264 11.1203 3.19549 11.1329 3.16202L11.1264 3.19789C11.1313 3.16124 11.1382 3.12485 11.1455 3.08892C11.1537 3.05292 11.1588 3.01731 11.1701 2.98215L11.2147 2.87745C11.2269 2.84222 11.2484 2.81017 11.273 2.77953C11.2973 2.74941 11.3158 2.71568 11.3487 2.69312C11.3801 2.67024 11.4058 2.64025 11.4421 2.62597L11.4934 2.6007C11.5098 2.5912 11.5293 2.58855 11.5471 2.58254C11.5841 2.57103 11.6182 2.5656 11.662 2.56392L11.6701 2.5636L11.6832 2.56709C11.7232 2.57762 11.7632 2.59049 11.804 2.60302C11.8461 2.61382 11.891 2.62047 11.9346 2.62959C12.0226 2.64646 12.1118 2.65874 12.2018 2.67211L12.2012 2.69506Z" fill="black"/>
<path d="M11.1835 3.42468C11.1835 3.42468 11.1286 3.50069 11.0599 3.605C11.0433 3.63098 11.0255 3.65916 11.0067 3.68896C10.9868 3.71727 10.9728 3.75152 10.9527 3.78196C10.9199 3.84763 10.8831 3.91471 10.8594 3.98633C10.8432 4.02071 10.8355 4.05755 10.8237 4.0929C10.8104 4.128 10.8077 4.16496 10.7972 4.1998C10.7879 4.23502 10.7859 4.27044 10.7788 4.30424C10.7718 4.33817 10.772 4.37094 10.768 4.40197C10.7666 4.43273 10.759 4.46246 10.7599 4.48838C10.7598 4.51417 10.7575 4.53782 10.7562 4.5574C10.7528 4.5967 10.7492 4.62081 10.7492 4.62081C10.7492 4.62081 10.7345 4.60329 10.712 4.56962C10.6902 4.53595 10.6565 4.48683 10.6368 4.41987C10.6259 4.38671 10.6101 4.35058 10.6069 4.31013C10.6022 4.27012 10.5909 4.22682 10.5936 4.18196C10.5966 4.13737 10.5933 4.08941 10.6057 4.04326C10.6147 3.99647 10.6254 3.9489 10.644 3.90411C10.6604 3.85842 10.6821 3.81538 10.7067 3.77492C10.7291 3.73317 10.7599 3.6982 10.7868 3.66304C10.8474 3.59796 10.9087 3.5436 10.9694 3.50883C11.0873 3.43412 11.1835 3.42468 11.1835 3.42468Z" fill="black"/>
</svg>
