<svg width="24" height="24" viewBox="0 0 24 24" fill="none" xmlns="http://www.w3.org/2000/svg">
<path d="M15.125 6C13.8344 6 12.7044 6.555 12 7.49312C11.2956 6.555 10.1656 6 8.875 6C7.84764 6.00116 6.86269 6.40979 6.13624 7.13624C5.40979 7.86269 5.00116 8.84764 5 9.875C5 14.25 11.4869 17.7913 11.7631 17.9375C11.8359 17.9767 11.9173 17.9972 12 17.9972C12.0827 17.9972 12.1641 17.9767 12.2369 17.9375C12.5131 17.7913 19 14.25 19 9.875C18.9988 8.84764 18.5902 7.86269 17.8638 7.13624C17.1373 6.40979 16.1524 6.00116 15.125 6ZM12 16.925C10.8587 16.26 6 13.2306 6 9.875C6.00099 9.11281 6.30421 8.38212 6.84316 7.84316C7.38212 7.30421 8.11281 7.00099 8.875 7C10.0906 7 11.1112 7.6475 11.5375 8.6875C11.5752 8.77921 11.6393 8.85764 11.7216 8.91284C11.804 8.96804 11.9009 8.99752 12 8.99752C12.0991 8.99752 12.196 8.96804 12.2784 8.91284C12.3607 8.85764 12.4248 8.77921 12.4625 8.6875C12.8887 7.64562 13.9094 7 15.125 7C15.8872 7.00099 16.6179 7.30421 17.1568 7.84316C17.6958 8.38212 17.999 9.11281 18 9.875C18 13.2256 13.14 16.2594 12 16.925Z" fill="white"/>
<path d="M12 16.925C10.8587 16.26 6 13.2306 6 9.875C6.00099 9.11281 6.30421 8.38212 6.84316 7.84316C7.38212 7.30421 8.11281 7.00099 8.875 7C10.0906 7 11.1112 7.6475 11.5375 8.6875C11.5752 8.77921 11.6393 8.85764 11.7216 8.91284C11.804 8.96804 11.9009 8.99752 12 8.99752C12.0991 8.99752 12.196 8.96804 12.2784 8.91284C12.3607 8.85764 12.4248 8.77921 12.4625 8.6875C12.8887 7.64562 13.9094 7 15.125 7C15.8872 7.00099 16.6179 7.30421 17.1568 7.84316C17.6958 8.38212 17.999 9.11281 18 9.875C18 13.2256 13.14 16.2594 12 16.925Z" fill="white"/>
</svg>
