<svg width="16" height="16" viewBox="0 0 16 16" fill="none" xmlns="http://www.w3.org/2000/svg">
<path d="M7.99991 13.2427C6.2788 13.2484 4.5965 12.7322 3.17468 11.7623C1.75286 10.7924 0.658451 9.41441 0.0357211 7.80984C-0.0120291 7.68862 -0.0120291 7.55381 0.0357211 7.43258C0.663307 5.83141 1.75891 4.45661 3.17962 3.48753C4.60039 2.51845 6.2801 2.00012 7.99991 2.00012C9.71972 2.00012 11.3994 2.51847 12.8202 3.48753C14.2409 4.45661 15.3364 5.83131 15.9641 7.43258C16.0118 7.55381 16.0118 7.68861 15.9641 7.80984C15.3414 9.41439 14.247 10.7924 12.8251 11.7623C11.4033 12.7322 9.72095 13.2484 7.99991 13.2427ZM1.07148 7.62459C1.85421 9.43869 3.3173 10.8734 5.14618 11.6207C6.97524 12.3679 9.02435 12.3679 10.8534 11.6207C12.6824 10.8735 14.1455 9.43886 14.9281 7.62459C14.1454 5.81048 12.6823 4.37573 10.8534 3.6285C9.02437 2.88129 6.97526 2.88129 5.14618 3.6285C3.31719 4.37563 1.85411 5.81032 1.07148 7.62459Z" fill="#F4F4F5" stroke="#F4F4F5" stroke-width="0.16"/>
<path d="M8.00055 10.6907C7.18734 10.6907 6.40742 10.3676 5.83231 9.79255C5.25731 9.21747 4.93421 8.43753 4.93421 7.62432C4.93421 6.81111 5.25729 6.03119 5.83231 5.45608C6.4074 4.88108 7.18734 4.55798 8.00055 4.55798C8.81376 4.55798 9.59367 4.88106 10.1688 5.45608C10.7438 6.03117 11.0669 6.81111 11.0669 7.62432C11.0669 8.43753 10.7438 9.21745 10.1688 9.79255C9.59369 10.3676 8.81376 10.6907 8.00055 10.6907ZM8.00055 5.56641C7.45472 5.56641 6.93131 5.78321 6.54537 6.16916C6.15942 6.5551 5.94262 7.07852 5.94262 7.62434C5.94262 8.17016 6.15942 8.69358 6.54537 9.07952C6.93131 9.46547 7.45472 9.68227 8.00055 9.68227C8.54637 9.68227 9.06979 9.46547 9.45573 9.07952C9.84167 8.69358 10.0585 8.17016 10.0585 7.62434C10.0585 7.07852 9.84167 6.5551 9.45573 6.16916C9.06979 5.78321 8.54637 5.56641 8.00055 5.56641Z" fill="#F4F4F5" stroke="#F4F4F5" stroke-width="0.16"/>
<path d="M1.60006 14.4003L14.4001 1.60034" stroke="#F4F4F5" stroke-width="1.2" stroke-linecap="round"/>
</svg>
