<svg width="24" height="24" viewBox="0 0 24 24" fill="none" xmlns="http://www.w3.org/2000/svg">
<path d="M13.4324 18.5569C13.1289 18.8411 12.7231 19 12.3008 19C11.8785 19 11.4727 18.8411 11.1692 18.5569C8.38911 15.9382 4.66353 13.0128 6.48039 8.76576C7.46274 6.46941 9.82084 5 12.3008 5C14.7807 5 17.1388 6.46941 18.1212 8.76576C19.9357 13.0075 16.2193 15.9472 13.4324 18.5569Z" stroke="white" stroke-width="1.05"/>
<path d="M14.75 11.3C14.75 12.6531 13.6531 13.75 12.3 13.75C10.9469 13.75 9.84998 12.6531 9.84998 11.3C9.84998 9.94688 10.9469 8.84998 12.3 8.84998C13.6531 8.84998 14.75 9.94688 14.75 11.3Z" stroke="white" stroke-width="1.05"/>
</svg>
