<svg width="24" height="24" viewBox="0 0 24 24" fill="none" xmlns="http://www.w3.org/2000/svg">
<path d="M13.8421 7.57895C13.8078 6.77327 13.7056 6.25989 13.4018 5.86488C13.284 5.7116 13.1466 5.5744 12.993 5.45678C12.3965 5 11.5306 5 9.79893 5H9.42976C7.34157 5 6.29747 5 5.64875 5.64744C5.00003 6.29488 5.00001 7.33695 5.00001 9.42103L5 14.5789C4.99999 16.663 4.99999 17.7051 5.64872 18.3525C6.29744 19 7.34154 19 9.42976 19H9.7989C11.5306 19 12.3965 19 12.993 18.5432C13.1465 18.4256 13.284 18.2884 13.4018 18.1352C13.7056 17.7401 13.8078 17.2266 13.8421 16.4208" stroke="white" stroke-width="1.05" stroke-linecap="round" stroke-linejoin="round"/>
<path d="M18.2631 11.9999H9.42102M16.421 14.5789C16.421 14.5789 19 12.6796 19 12C19 11.3204 16.421 9.42102 16.421 9.42102" stroke="white" stroke-width="1.05" stroke-linecap="round" stroke-linejoin="round"/>
</svg>
