<svg width="24" height="24" viewBox="0 0 24 24" fill="none" xmlns="http://www.w3.org/2000/svg">
<path d="M16.2511 19H17.5504C17.742 19 17.9 18.8441 17.9 18.652V5.34795C17.9 5.15724 17.7434 5 17.5504 5H16.2511C16.0595 5 15.9016 5.15586 15.9016 5.34795V7.31881C15.9016 7.7864 15.5184 8.16785 15.0486 8.16785H8.85139C8.38165 8.16785 7.99844 7.7864 7.99844 7.31881V5.34795C7.99844 5.15724 7.84392 5 7.64888 5H6.34956C6.15796 5 6 5.15586 6 5.34795V18.6515C6 18.8422 6.15658 18.9995 6.34956 18.9995H7.64888C7.84392 18.9995 7.99844 18.8436 7.99844 18.6515V16.6807C7.99844 16.2131 8.38165 15.8316 8.85139 15.8316H15.0486C15.5184 15.8316 15.9016 16.2131 15.9016 16.6807V18.6515C15.9016 18.8422 16.0581 18.9995 16.2511 18.9995V19ZM16.453 5.75593C16.453 5.64246 16.5464 5.54949 16.6604 5.54949H17.1405C17.2545 5.54949 17.3479 5.64245 17.3479 5.75593V6.23377C17.3479 6.3493 17.2545 6.44022 17.1405 6.44022H16.6604C16.5464 6.44022 16.453 6.3493 16.453 6.23377V5.75593ZM16.453 8.1587C16.453 8.04522 16.5464 7.95225 16.6604 7.95225H17.1405C17.2545 7.95225 17.3479 8.04522 17.3479 8.1587V8.63654C17.3479 8.75001 17.2545 8.84298 17.1405 8.84298H16.6604C16.5464 8.84298 16.453 8.75002 16.453 8.63654V8.1587ZM16.453 10.5615C16.453 10.4459 16.5464 10.355 16.6604 10.355H17.1405C17.2545 10.355 17.3479 10.4459 17.3479 10.5615V11.0393C17.3479 11.1528 17.2545 11.2457 17.1405 11.2457H16.6604C16.5464 11.2457 16.453 11.1528 16.453 11.0393V10.5615ZM16.453 12.9602C16.453 12.8467 16.5464 12.7537 16.6604 12.7537H17.1405C17.2545 12.7537 17.3479 12.8467 17.3479 12.9602V13.438C17.3479 13.5536 17.2545 13.6445 17.1405 13.6445H16.6604C16.5464 13.6445 16.453 13.5536 16.453 13.438V12.9602ZM16.453 15.363C16.453 15.2495 16.5464 15.1565 16.6604 15.1565H17.1405C17.2545 15.1565 17.3479 15.2495 17.3479 15.363V15.8408C17.3479 15.9543 17.2545 16.0472 17.1405 16.0472H16.6604C16.5464 16.0472 16.453 15.9543 16.453 15.8408V15.363ZM16.453 17.7657C16.453 17.6502 16.5464 17.5593 16.6604 17.5593H17.1405C17.2545 17.5593 17.3479 17.6502 17.3479 17.7657V18.2436C17.3479 18.357 17.2545 18.45 17.1405 18.45H16.6604C16.5464 18.45 16.453 18.357 16.453 18.2436V17.7657ZM7.44832 18.2436C7.44832 18.357 7.35492 18.45 7.24092 18.45H6.76088C6.64688 18.45 6.55348 18.357 6.55348 18.2436V17.7657C6.55348 17.6502 6.64688 17.5593 6.76088 17.5593H7.24092C7.35492 17.5593 7.44832 17.6502 7.44832 17.7657V18.2436ZM7.44832 15.8408C7.44832 15.9543 7.35492 16.0472 7.24092 16.0472H6.76088C6.64688 16.0472 6.55348 15.9543 6.55348 15.8408V15.363C6.55348 15.2495 6.64688 15.1565 6.76088 15.1565H7.24092C7.35492 15.1565 7.44832 15.2495 7.44832 15.363V15.8408ZM7.44832 13.438C7.44832 13.5536 7.35492 13.6445 7.24092 13.6445H6.76088C6.64688 13.6445 6.55348 13.5536 6.55348 13.438V12.9602C6.55348 12.8467 6.64688 12.7537 6.76088 12.7537H7.24092C7.35492 12.7537 7.44832 12.8467 7.44832 12.9602V13.438ZM7.44832 11.0393C7.44832 11.1528 7.35492 11.2457 7.24092 11.2457H6.76088C6.64688 11.2457 6.55348 11.1528 6.55348 11.0393V10.5615C6.55348 10.4459 6.64688 10.355 6.76088 10.355H7.24092C7.35492 10.355 7.44832 10.4459 7.44832 10.5615V11.0393ZM7.44832 8.63654C7.44832 8.75001 7.35492 8.84298 7.24092 8.84298H6.76088C6.64688 8.84298 6.55348 8.75002 6.55348 8.63654V8.1587C6.55348 8.04522 6.64688 7.95225 6.76088 7.95225H7.24092C7.35492 7.95225 7.44832 8.04522 7.44832 8.1587V8.63654ZM7.44832 6.23377C7.44832 6.3493 7.35492 6.44022 7.24092 6.44022H6.76088C6.64688 6.44022 6.55348 6.3493 6.55348 6.23377V5.75593C6.55348 5.64246 6.64688 5.54949 6.76088 5.54949H7.24092C7.35492 5.54949 7.44832 5.64245 7.44832 5.75593V6.23377ZM15.0485 14.8123H8.85127C8.38153 14.8123 7.99832 14.4309 7.99832 13.9633V10.0347C7.99832 9.5671 8.38153 9.18565 8.85127 9.18565H15.0485C15.5182 9.18565 15.9014 9.5671 15.9014 10.0347V13.9633C15.9014 14.4309 15.5182 14.8123 15.0485 14.8123Z" fill="white"/>
</svg>
