<svg width="24" height="24" viewBox="0 0 24 24" fill="none" xmlns="http://www.w3.org/2000/svg">
<path d="M14.75 18.5C14.341 18.5 13.9887 18.3523 13.6932 18.0568C13.3977 17.7613 13.25 17.409 13.25 17V7C13.25 6.591 13.3977 6.23875 13.6932 5.94325C13.9887 5.64775 14.341 5.5 14.75 5.5H17C17.409 5.5 17.7613 5.64775 18.0568 5.94325C18.3523 6.23875 18.5 6.591 18.5 7V17C18.5 17.409 18.3523 17.7613 18.0568 18.0568C17.7613 18.3523 17.409 18.5 17 18.5H14.75ZM7 18.5C6.591 18.5 6.23875 18.3523 5.94325 18.0568C5.64775 17.7613 5.5 17.409 5.5 17V7C5.5 6.591 5.64775 6.23875 5.94325 5.94325C6.23875 5.64775 6.591 5.5 7 5.5H9.25C9.659 5.5 10.0113 5.64775 10.3067 5.94325C10.6022 6.23875 10.75 6.591 10.75 7V17C10.75 17.409 10.6022 17.7613 10.3067 18.0568C10.0113 18.3523 9.659 18.5 9.25 18.5H7ZM14.75 17H17V7H14.75V17ZM7 17H9.25V7H7V17Z" fill="white"/>
</svg>
