<svg width="24" height="24" viewBox="0 0 24 24" fill="none" xmlns="http://www.w3.org/2000/svg">
<path d="M16.0883 11.2365C16.2256 11.3302 16.3285 11.4424 16.397 11.573C16.4657 11.7039 16.5 11.8462 16.5 12C16.5 12.1539 16.4657 12.2962 16.397 12.427C16.3285 12.5577 16.2256 12.6699 16.0883 12.7635L9.09225 17.2173C9.01542 17.2609 8.93592 17.2936 8.85375 17.3153C8.77175 17.3371 8.69233 17.348 8.6155 17.348C8.37433 17.348 8.16341 17.2634 7.98275 17.0943C7.80191 16.9249 7.7115 16.7083 7.7115 16.4443L7.7115 7.55577C7.7115 7.29177 7.80192 7.07511 7.98275 6.90577C8.16342 6.73661 8.37433 6.65202 8.6155 6.65202C8.69233 6.65202 8.77175 6.66294 8.85375 6.68477C8.93592 6.70644 9.01542 6.73911 9.09225 6.78277L16.0883 11.2365ZM9.2115 8.65002L9.2115 15.35L14.4807 12L9.2115 8.65002Z" fill="white"/>
</svg>
