<svg width="24" height="24" viewBox="0 0 24 24" fill="none" xmlns="http://www.w3.org/2000/svg">
<path d="M19 12C19 12.1547 18.9385 12.3031 18.8291 12.4125C18.7197 12.5219 18.5714 12.5833 18.4167 12.5833H12.5833V18.4167C12.5833 18.5714 12.5219 18.7197 12.4125 18.8291C12.3031 18.9385 12.1547 19 12 19C11.8453 19 11.6969 18.9385 11.5875 18.8291C11.4781 18.7197 11.4167 18.5714 11.4167 18.4167V12.5833H5.58333C5.42862 12.5833 5.28025 12.5219 5.17085 12.4125C5.06146 12.3031 5 12.1547 5 12C5 11.8453 5.06146 11.6969 5.17085 11.5875C5.28025 11.4781 5.42862 11.4167 5.58333 11.4167H11.4167V5.58333C11.4167 5.42862 11.4781 5.28025 11.5875 5.17085C11.6969 5.06146 11.8453 5 12 5C12.1547 5 12.3031 5.06146 12.4125 5.17085C12.5219 5.28025 12.5833 5.42862 12.5833 5.58333V11.4167H18.4167C18.5714 11.4167 18.7197 11.4781 18.8291 11.5875C18.9385 11.6969 19 11.8453 19 12Z" fill="white"/>
</svg>
