<svg width="24" height="24" viewBox="0 0 24 24" fill="none" xmlns="http://www.w3.org/2000/svg">
<path d="M11.132 18.5751L6.13887 13.6593C5.86398 13.3845 5.71544 13.0559 5.69326 12.6736C5.67122 12.2914 5.78396 11.9518 6.03147 11.6548L8.59034 8.55241C8.72519 8.37663 8.89371 8.24267 9.09591 8.15054C9.29811 8.0584 9.51188 8.01233 9.73722 8.01233H14.5976C14.823 8.01233 15.0368 8.0584 15.239 8.15054C15.4412 8.24267 15.6096 8.37663 15.7443 8.55241L18.3034 11.6548C18.5509 11.9518 18.6636 12.2914 18.6414 12.6736C18.6192 13.0559 18.4708 13.3845 18.196 13.6593L13.2107 18.5751C12.9275 18.8584 12.581 19 12.1712 19C11.7616 19 11.4152 18.8584 11.132 18.5751ZM5.19098 5.69188C5.31323 5.56963 5.45622 5.5085 5.61995 5.5085C5.78368 5.5085 5.92928 5.56963 6.05673 5.69188L6.87341 6.48802C7.00073 6.61014 7.06438 6.75518 7.06438 6.92316C7.06438 7.09113 7.00073 7.23878 6.87341 7.3661C6.75116 7.48835 6.60604 7.54947 6.43807 7.54947C6.27009 7.54947 6.12244 7.48835 5.99513 7.3661L5.19098 6.55743C5.06366 6.43531 5 6.29232 5 6.12845C5 5.96472 5.06366 5.8192 5.19098 5.69188ZM12.1712 4C12.3461 4 12.4925 4.059 12.6105 4.17701C12.7283 4.29488 12.7873 4.44123 12.7873 4.61605V5.75348C12.7873 5.92831 12.7283 6.07465 12.6105 6.19252C12.4925 6.31053 12.3461 6.36953 12.1712 6.36953C11.9966 6.36953 11.8502 6.31053 11.7322 6.19252C11.6143 6.07465 11.5554 5.92831 11.5554 5.75348V4.61605C11.5554 4.44123 11.6143 4.29488 11.7322 4.17701C11.8502 4.059 11.9966 4 12.1712 4ZM19.1232 5.69188C19.2506 5.8192 19.3122 5.96342 19.308 6.12455C19.3037 6.28568 19.2379 6.42998 19.1106 6.55743L18.3065 7.3661C18.1844 7.48835 18.0401 7.55078 17.8738 7.55338C17.7073 7.55598 17.563 7.49355 17.4409 7.3661C17.3188 7.24398 17.2591 7.09764 17.2617 6.92706C17.2643 6.75648 17.3266 6.61014 17.4487 6.48802L18.2449 5.69188C18.3671 5.56963 18.5135 5.5085 18.6841 5.5085C18.8547 5.5085 19.001 5.56963 19.1232 5.69188ZM7.472 13.2566L11.9975 17.7096C12.0449 17.7569 12.1028 17.7806 12.1712 17.7806C12.2398 17.7806 12.2978 17.7569 12.3452 17.7096L16.8629 13.2566H7.472ZM7.31717 12.0245H17.0177L14.795 9.3391C14.7687 9.31282 14.7385 9.29043 14.7042 9.27195C14.67 9.25347 14.6345 9.24423 14.5976 9.24423H9.73722C9.70026 9.24423 9.66466 9.25347 9.63044 9.27195C9.59621 9.29043 9.56596 9.31282 9.53967 9.3391L7.31717 12.0245Z" fill="white"/>
</svg>
