<svg width="24" height="24" viewBox="0 0 24 24" fill="none" xmlns="http://www.w3.org/2000/svg">
<path d="M5.91627 19.4173C5.4111 19.4173 4.98352 19.2423 4.63352 18.8923C4.28352 18.5423 4.10852 18.1147 4.10852 17.6096V15.6481C4.10852 15.4352 4.18035 15.2571 4.32402 15.1136C4.46752 14.9699 4.64569 14.8981 4.85852 14.8981C5.07135 14.8981 5.24952 14.9699 5.39302 15.1136C5.53669 15.2571 5.60852 15.4352 5.60852 15.6481V17.6096C5.60852 17.6866 5.6406 17.7571 5.70477 17.8211C5.76877 17.8852 5.83927 17.9173 5.91627 17.9173H17.3008C17.3778 17.9173 17.4483 17.8852 17.5123 17.8211C17.5764 17.7571 17.6085 17.6866 17.6085 17.6096V15.6481C17.6085 15.4352 17.6804 15.2571 17.824 15.1136C17.9675 14.9699 18.1457 14.8981 18.3585 14.8981C18.5714 14.8981 18.7495 14.9699 18.893 15.1136C19.0367 15.2571 19.1085 15.4352 19.1085 15.6481V17.6096C19.1085 18.1147 18.9335 18.5423 18.5835 18.8923C18.2335 19.2423 17.8059 19.4173 17.3008 19.4173H5.91627ZM10.8585 7.30581L8.93552 9.22881C8.78669 9.37748 8.6101 9.4509 8.40577 9.44906C8.20127 9.44706 8.02144 9.36848 7.86627 9.21331C7.72144 9.05831 7.64644 8.88273 7.64127 8.68656C7.6361 8.49039 7.7111 8.31473 7.86627 8.15956L10.9758 5.05006C11.0694 4.95639 11.1682 4.89039 11.272 4.85206C11.3759 4.81356 11.488 4.79431 11.6085 4.79431C11.729 4.79431 11.8412 4.81356 11.945 4.85206C12.0489 4.89039 12.1476 4.95639 12.2413 5.05006L15.3508 8.15956C15.4994 8.30823 15.5729 8.48231 15.571 8.68181C15.569 8.88115 15.4956 9.05831 15.3508 9.21331C15.1956 9.36848 15.0174 9.44865 14.8163 9.45381C14.6149 9.45898 14.4367 9.38398 14.2815 9.22881L12.3585 7.30581V14.9558C12.3585 15.1686 12.2867 15.3468 12.143 15.4903C11.9995 15.634 11.8214 15.7058 11.6085 15.7058C11.3957 15.7058 11.2175 15.634 11.074 15.4903C10.9304 15.3468 10.8585 15.1686 10.8585 14.9558V7.30581Z" fill="white"/>
</svg>
