<svg width="24" height="24" viewBox="0 0 24 24" fill="none" xmlns="http://www.w3.org/2000/svg">
<path d="M3.79412 17.6471C3.35554 17.6471 3 17.2915 3 16.8529C3 16.4144 3.35554 16.0588 3.79412 16.0588H7.89706C8.33564 16.0588 8.69118 16.4144 8.69118 16.8529C8.69118 17.2915 8.33564 17.6471 7.89706 17.6471H3.79412ZM3.79412 12.6176C3.35554 12.6176 3 12.2621 3 11.8235C3 11.385 3.35554 11.0294 3.79412 11.0294H14.0464C14.485 11.0294 14.8406 11.385 14.8406 11.8235C14.8406 12.2621 14.485 12.6176 14.0464 12.6176H3.79412ZM3.79412 7.58824C3.35554 7.58824 3 7.2327 3 6.79412C3 6.35554 3.35554 6 3.79412 6H20.2059C20.6445 6 21 6.35554 21 6.79412C21 7.2327 20.6445 7.58824 20.2059 7.58824H3.79412Z" fill="white"/>
</svg>
