<svg width="24" height="24" viewBox="0 0 24 24" fill="none" xmlns="http://www.w3.org/2000/svg">
<path d="M17.55 7.44995L17.1163 14.4675C17.0054 16.2604 16.95 17.1569 16.5006 17.8015C16.2784 18.1201 15.9923 18.3891 15.6605 18.5912C14.9895 19 14.0913 19 12.2949 19C10.4962 19 9.59686 19 8.92538 18.5904C8.59341 18.3879 8.30725 18.1185 8.08512 17.7993C7.63586 17.1538 7.58166 16.256 7.47328 14.4606L7.05005 7.44995" stroke="white" stroke-width="1.05" stroke-linecap="round"/>
<path d="M6 7.45H18.6M15.139 7.45L14.6612 6.46421C14.3437 5.80938 14.185 5.48196 13.9112 5.27777C13.8505 5.23247 13.7862 5.19218 13.7189 5.15729C13.4157 5 13.0519 5 12.3242 5C11.5782 5 11.2052 5 10.897 5.16388C10.8287 5.20021 10.7635 5.24213 10.7021 5.28922C10.4251 5.50169 10.2704 5.84108 9.96103 6.51988L9.53704 7.45" stroke="white" stroke-width="1.05" stroke-linecap="round"/>
</svg>
