<svg width="24" height="24" viewBox="0 0 24 24" fill="none" xmlns="http://www.w3.org/2000/svg">
<path d="M18.3493 6.83202C18.3176 6.74851 18.2287 6.69841 18.1394 6.71511C17.8518 6.76892 17.5161 6.71511 17.1615 6.64645C16.8776 6.59078 16.5565 6.52954 16.2021 6.52954C15.8402 6.52954 15.4949 6.59263 15.1407 6.72253C13.7285 7.24212 13.7211 8.55593 13.7211 8.56892C13.7211 8.62088 13.7433 8.66913 13.7823 8.70439C13.8009 8.72109 14.2407 9.11263 15.033 9.11263C15.3483 9.11263 15.6769 9.04954 16.0126 8.92707C16.8423 8.62088 17.2337 8.14212 17.5788 7.71903C17.7996 7.44995 17.9889 7.21614 18.2673 7.05841C18.3456 7.01387 18.3808 6.91738 18.3493 6.83202ZM14.4635 8.3815C14.4171 8.3815 14.3707 8.3648 14.3355 8.32954C14.2614 8.25717 14.2596 8.14212 14.3301 8.06789C14.3652 8.02892 15.241 7.1382 17.0559 7.08253C17.16 7.07696 17.2435 7.16047 17.247 7.26253C17.2507 7.36459 17.1691 7.44995 17.067 7.45366C15.4136 7.50562 14.6044 8.31655 14.5969 8.32397C14.56 8.36294 14.5118 8.3815 14.4635 8.3815Z" fill="white"/>
<path d="M8.38802 15.1509C9.37895 15.1509 9.78349 14.4402 9.80204 14.4087C9.81503 14.3844 9.82246 14.3549 9.82431 14.327C9.82431 14.314 9.854 13.0652 8.38988 12.6569C8.09112 12.5734 7.79606 12.5326 7.48802 12.5326C7.02225 12.5326 6.60472 12.6272 6.23545 12.7089C5.86431 12.7922 5.52472 12.8703 5.20555 12.8367C5.11277 12.8256 5.03112 12.8831 5.00699 12.9705C4.98287 13.0577 5.02369 13.1505 5.1072 13.1895C5.39483 13.3231 5.63978 13.5699 5.92369 13.8557C6.37277 14.3066 6.88122 14.8169 7.73297 15.0544C7.95936 15.1175 8.18019 15.1509 8.38802 15.1509ZM6.44514 13.2099C6.49524 13.1988 7.67916 12.9633 9.18596 13.98C9.27132 14.0377 9.29359 14.1526 9.23606 14.238C9.20081 14.2918 9.14143 14.3196 9.08204 14.3196C9.04679 14.3196 9.00967 14.3085 8.97813 14.2881C7.59936 13.3584 6.53421 13.5718 6.52307 13.5736C6.42287 13.5939 6.32452 13.5309 6.30225 13.4306C6.28184 13.3305 6.34493 13.2322 6.44514 13.2099Z" fill="white"/>
<path d="M14.818 20.781C14.8174 20.7775 14.8165 20.774 14.8159 20.7705C14.815 20.7649 14.8135 20.7593 14.8126 20.7539C14.8092 20.7345 14.8063 20.7146 14.8011 20.6957C14.7972 20.6715 14.7916 20.6493 14.7844 20.627C14.7788 20.5994 14.7697 20.5719 14.7603 20.5442C14.7586 20.5394 14.7567 20.5346 14.7552 20.53C14.7475 20.5068 14.7398 20.4836 14.7306 20.4619C14.7211 20.4377 14.7118 20.4136 14.7009 20.3913C14.6942 20.3767 14.6855 20.362 14.6782 20.3474C14.6697 20.3299 14.6608 20.3128 14.6517 20.2958C14.6448 20.2832 14.6396 20.2705 14.6322 20.2579C14.6174 20.2301 14.5988 20.2004 14.5803 20.1726C14.5719 20.1598 14.5628 20.1473 14.5543 20.1345C14.5472 20.1239 14.5405 20.1137 14.5331 20.1032C14.5277 20.0955 14.5227 20.0872 14.5172 20.0798C14.4908 20.0434 14.4591 20.0078 14.4283 19.972C14.4058 19.9454 14.3839 19.9191 14.3598 19.8933C14.3392 19.871 14.3188 19.8486 14.2963 19.8274C14.2731 19.8025 14.2466 19.7793 14.2206 19.756C14.2049 19.7419 14.1887 19.7279 14.1724 19.7138C14.1202 19.6682 14.0647 19.624 14.0063 19.5813C13.9863 19.5665 13.9647 19.5524 13.9441 19.5379C13.9189 19.5207 13.8953 19.5027 13.8695 19.486C13.8359 19.4637 13.8003 19.4416 13.7641 19.4203C13.7526 19.4136 13.7415 19.4069 13.73 19.4002C13.6669 19.3627 13.6003 19.3275 13.5322 19.2939C13.4956 19.2753 13.4581 19.2577 13.4203 19.2401C13.3943 19.228 13.3689 19.2148 13.3425 19.2041C13.3221 19.1946 13.3 19.1868 13.2789 19.1779C13.2368 19.1603 13.1952 19.1427 13.1518 19.1261C13.144 19.123 13.1367 19.1196 13.1289 19.1167C13.0881 19.1 13.0475 19.0851 13.0066 19.0723C12.9924 19.0675 12.977 19.0634 12.9625 19.0588C12.8998 19.0378 12.8356 19.0183 12.7708 18.9998C12.7292 18.9877 12.6878 18.9756 12.6453 18.9645C12.585 18.9486 12.5236 18.9341 12.4616 18.9202C12.4308 18.9131 12.4013 18.9046 12.3702 18.8981C12.346 18.8933 12.3204 18.8897 12.2961 18.8851C12.2443 18.8749 12.1918 18.8658 12.1391 18.8573C12.0814 18.8478 12.0235 18.8391 11.9647 18.8313C11.9059 18.8233 11.8467 18.8161 11.7867 18.8099C11.7639 18.8075 11.7418 18.8038 11.7188 18.8018C11.6617 18.7962 11.6045 18.7923 11.5473 18.7888C11.4946 18.6997 11.4278 18.5802 11.3538 18.4288C11.1684 18.0484 10.9355 17.4707 10.8194 16.7433C10.7643 16.3801 10.7368 15.9806 10.7669 15.5592C10.7939 15.1398 10.8812 14.6905 11.0296 14.2563C11.1207 14.0056 11.1996 13.8009 11.307 13.5693C11.4089 13.3409 11.5266 13.1128 11.6481 12.8827C11.8955 12.4231 12.1749 11.961 12.447 11.4815C12.7188 11.0031 12.9805 10.506 13.1824 9.98864C13.3882 9.47369 13.5301 8.93981 13.6008 8.41763C13.6738 7.89544 13.6793 7.3868 13.6456 6.91194C13.6155 6.43596 13.5335 5.99468 13.4502 5.592C13.3605 5.19025 13.2612 4.82728 13.1603 4.51033C13.0629 4.19227 12.9629 3.92041 12.8812 3.6968C12.8001 3.47282 12.7255 3.30118 12.68 3.18223C12.6331 3.06309 12.6079 3 12.6079 3C12.6079 3 12.6279 3.06495 12.6658 3.18668C12.7016 3.30897 12.7623 3.48544 12.8248 3.71462C12.8881 3.94342 12.9656 4.22085 13.0369 4.54299C13.1117 4.86384 13.1805 5.2294 13.2369 5.62893C13.2869 6.02901 13.3319 6.46379 13.3242 6.92177C13.3201 7.3792 13.2755 7.85889 13.1688 8.33932C13.064 8.82012 12.8946 9.29926 12.6656 9.76113C12.4405 10.2249 12.1588 10.6717 11.8574 11.115C11.557 11.5585 11.2371 12.0026 10.9396 12.4632C10.7921 12.6949 10.6472 12.9282 10.5158 13.1689C10.3825 13.4029 10.2532 13.6727 10.153 13.8937C9.92252 14.4042 9.7685 14.9182 9.68444 15.4254C9.59797 15.9309 9.58294 16.4636 9.60669 16.9108C9.65642 17.7442 9.84292 18.4021 10.0153 18.9588C10.0149 18.9588 10.0142 18.9588 10.0136 18.9588C9.95797 18.9588 9.9023 18.9346 9.84848 18.9476C9.79318 18.9599 9.73955 18.9504 9.68611 18.9628C9.68184 18.964 9.67758 18.9536 9.67331 18.9547C9.62562 18.9656 9.57922 18.9723 9.5332 18.9847C9.47197 19.0014 9.41259 19.017 9.35506 19.0356C9.30681 19.0504 9.26042 19.0658 9.21403 19.0807C9.17172 19.0955 9.13219 19.1111 9.09211 19.1273C9.06261 19.1388 9.03347 19.1499 9.00452 19.1618C8.97019 19.1753 8.93623 19.1891 8.90413 19.2039C8.87073 19.2178 8.83881 19.2332 8.80671 19.2484C8.77535 19.2633 8.74454 19.2785 8.71393 19.2941C8.64805 19.3269 8.58403 19.3611 8.52205 19.3971C8.50368 19.4078 8.48586 19.419 8.46786 19.4299C8.40626 19.4672 8.34687 19.506 8.2899 19.5461C8.27432 19.5572 8.25836 19.568 8.24314 19.5791C8.18413 19.6225 8.1279 19.6673 8.07465 19.7136C8.0585 19.7276 8.04236 19.7413 8.02677 19.7556C8.00042 19.7792 7.97388 19.8024 7.9505 19.8274C7.92786 19.8486 7.90745 19.8714 7.88667 19.8938C7.87275 19.9087 7.85846 19.9235 7.8451 19.9387C7.82487 19.9612 7.80428 19.984 7.78535 20.0074C7.77069 20.0256 7.759 20.0454 7.74508 20.064C7.72188 20.0948 7.69962 20.1256 7.67883 20.1572C7.67215 20.1677 7.6638 20.1768 7.65731 20.1874C7.64061 20.2115 7.62576 20.2375 7.61092 20.2635C7.60609 20.2722 7.60312 20.2817 7.59848 20.2904C7.5751 20.3336 7.55599 20.3783 7.53669 20.4231C7.5237 20.4535 7.50922 20.4834 7.49809 20.5146C7.48232 20.5589 7.47155 20.6046 7.46005 20.6502C7.45281 20.6786 7.44186 20.7059 7.4363 20.7348C7.43463 20.7439 7.4337 20.753 7.43221 20.7621C7.43184 20.7647 7.43147 20.7673 7.4311 20.7699C7.4298 20.7786 7.42795 20.7873 7.4272 20.7961C7.41755 20.8627 7.41199 20.9313 7.41199 21H14.8347C14.8347 20.961 14.8328 20.9202 14.8291 20.8812C14.8272 20.8478 14.8235 20.8144 14.818 20.781Z" fill="white"/>
</svg>
