<svg width="24" height="24" viewBox="0 0 24 24" fill="none" xmlns="http://www.w3.org/2000/svg">
<path d="M11.6 15.15V13.75" stroke="white" stroke-width="1.05" stroke-linecap="round"/>
<path d="M6.18747 16.7913C6.34488 17.9605 7.31329 18.8765 8.49176 18.9307C9.48339 18.9762 10.4907 19 11.6 19C12.7093 19 13.7166 18.9762 14.7082 18.9307C15.8867 18.8765 16.8551 17.9605 17.0125 16.7913C17.1153 16.0283 17.2 15.2463 17.2 14.45C17.2 13.6537 17.1153 12.8717 17.0125 12.1087C16.8551 10.9395 15.8867 10.0236 14.7082 9.96939C13.7166 9.9238 12.7093 9.90002 11.6 9.90002C10.4907 9.90002 9.48339 9.9238 8.49176 9.96939C7.31329 10.0236 6.34488 10.9395 6.18747 12.1087C6.08473 12.8717 6 13.6537 6 14.45C6 15.2463 6.08473 16.0283 6.18747 16.7913Z" stroke="white" stroke-width="1.05"/>
<path d="M8.44995 9.9V8.15C8.44995 6.4103 9.86026 5 11.6 5C12.9715 5 14.05 6.05 14.4 7.1" stroke="white" stroke-width="1.05" stroke-linecap="round" stroke-linejoin="round"/>
</svg>
