<svg width="16" height="16" viewBox="0 0 16 16" fill="none" xmlns="http://www.w3.org/2000/svg">
<path d="M10.8962 6.76412L7.06397 9.81715C6.90045 9.9481 6.7336 9.99263 6.55877 9.95474C6.41918 9.92417 6.26962 9.84041 6.15395 9.73007L4.71549 8.00318C4.57456 7.83301 4.59783 7.56778 4.768 7.4262C4.84976 7.3584 4.95679 7.32583 5.06779 7.3358C5.17813 7.34577 5.27718 7.39695 5.34498 7.47871L6.53086 8.90654C6.6093 9.0016 6.75023 9.01556 6.84595 8.93912L10.3823 6.12127C10.4673 6.05347 10.5744 6.02289 10.6834 6.03618C10.7937 6.04815 10.8908 6.10266 10.9592 6.18774C11.1035 6.36256 11.073 6.6232 10.8962 6.76412Z" fill="#EB96FD"/>
<path fill-rule="evenodd" clip-rule="evenodd" d="M14.9364 8.8202L14.9305 8.8256C14.6326 9.09779 14.3249 9.37881 14.2318 9.71692C14.1348 10.0659 14.2657 10.4727 14.3934 10.8636L14.3945 10.8672C14.5118 11.2316 14.633 11.6081 14.5177 11.8082C14.4003 12.0072 14.0121 12.0837 13.6353 12.158L13.6329 12.1585C13.2327 12.2369 12.8213 12.3187 12.5694 12.5686C12.3194 12.8186 12.2377 13.232 12.1592 13.6322C12.0861 14.0097 12.0096 14.3999 11.8089 14.5169C11.6103 14.6341 11.2351 14.5126 10.8689 14.3941L10.8643 14.3926L10.8583 14.3907C10.4686 14.2656 10.0642 14.1359 9.71766 14.2311C9.37731 14.3248 9.09281 14.6346 8.82094 14.9357C8.54707 15.2368 8.26258 15.5466 8.00067 15.5466C7.73845 15.5466 7.45785 15.2394 7.18561 14.9414L7.1804 14.9357L7.17501 14.9298C6.90282 14.6318 6.6218 14.3242 6.28369 14.2311C6.1986 14.2072 6.11153 14.1972 6.02178 14.1972C5.74089 14.1972 5.43834 14.2944 5.14218 14.3896L5.13703 14.3913L5.13345 14.3924C4.76897 14.5097 4.39255 14.6309 4.19245 14.5156C3.99345 14.3982 3.91691 14.01 3.84261 13.6332L3.84214 13.6308C3.7637 13.2307 3.68194 12.8192 3.43199 12.5673C3.18205 12.3173 2.7686 12.2356 2.36843 12.1571C1.99086 12.084 1.60067 12.0076 1.48368 11.8068C1.36602 11.6074 1.489 11.2285 1.60799 10.8622L1.60992 10.8562C1.73496 10.4665 1.86474 10.0621 1.76951 9.71558C1.67579 9.37524 1.36602 9.09073 1.06491 8.81887L1.06385 8.81791C0.763724 8.54566 0.452687 8.26352 0.452687 7.99993C0.452687 7.7377 0.759842 7.45711 1.05786 7.18486L1.06356 7.17965L1.06947 7.17426C1.36743 6.90207 1.67506 6.62105 1.76817 6.28294C1.86522 5.93396 1.73427 5.52715 1.60664 5.13628L1.60549 5.13272C1.48819 4.76823 1.36704 4.3918 1.48234 4.1917C1.59975 3.9927 1.9879 3.91616 2.36471 3.84186L2.36709 3.84139C2.76726 3.76295 3.17871 3.68119 3.43065 3.43125C3.6806 3.1813 3.76235 2.76786 3.84079 2.36768C3.91391 1.99011 3.99036 1.59993 4.19111 1.48293C4.3897 1.36577 4.76494 1.48723 5.13108 1.60575L5.13569 1.60724L5.14172 1.60917C5.53139 1.73422 5.93581 1.86399 6.28234 1.76877C6.62269 1.67504 6.90719 1.36528 7.17906 1.06416C7.45293 0.763045 7.73742 0.453284 7.99933 0.453284C8.26155 0.453284 8.54214 0.760439 8.81439 1.05846L8.8196 1.06416L8.825 1.07007C9.09718 1.36803 9.37821 1.67565 9.71631 1.76877C10.0653 1.86382 10.4721 1.73487 10.863 1.60724L10.8665 1.60609C11.231 1.48879 11.6075 1.36764 11.8075 1.48293C12.0066 1.60035 12.0831 1.9885 12.1574 2.36531L12.1579 2.36768C12.2363 2.76786 12.3181 3.17931 12.568 3.42926C12.818 3.6792 13.2314 3.76095 13.6316 3.8394C14.0091 3.91252 14.3993 3.98896 14.5163 4.18971C14.6335 4.3883 14.512 4.76355 14.3935 5.12969L14.392 5.13429L14.3901 5.14032C14.265 5.52999 14.1353 5.93442 14.2305 6.28095C14.3242 6.62129 14.634 6.9058 14.9351 7.17766C15.2362 7.45153 15.546 7.73603 15.546 7.99793C15.5473 8.26102 15.2421 8.54039 14.9459 8.81154L14.9364 8.8202ZM2.68418 7.99981C2.68418 5.06982 5.06793 2.68404 7.99996 2.68404C10.932 2.68404 13.3157 5.06778 13.3157 7.99981C13.3157 10.9298 10.932 13.3156 7.99996 13.3156C5.06997 13.3156 2.68418 10.9318 2.68418 7.99981Z" fill="#EB96FD"/>
<path fill-rule="evenodd" clip-rule="evenodd" d="M15.2409 6.8447L15.2357 6.83996C14.9854 6.61143 14.7267 6.37526 14.6692 6.16203C14.6096 5.94325 14.7178 5.60547 14.8233 5.27658L14.8241 5.27394L14.8263 5.267C14.9739 4.80785 15.1261 4.33414 14.9072 3.96178C14.6858 3.58555 14.1939 3.4885 13.7193 3.39543C13.3876 3.33095 13.042 3.26249 12.8904 3.1096C12.7405 2.95974 12.6737 2.62594 12.6085 2.3004L12.6046 2.28068C12.5108 1.80407 12.4138 1.31218 12.0382 1.09281C11.6666 0.874988 11.1941 1.02617 10.7358 1.17278L10.7261 1.1759L10.7202 1.1778C10.3936 1.28291 10.056 1.39156 9.83797 1.33078C9.62327 1.27096 9.38529 1.01105 9.1553 0.759112C8.81508 0.386326 8.46249 0 8 0C7.53749 0 7.18826 0.382657 6.84939 0.753966L6.8447 0.759112L6.83997 0.764289C6.61144 1.01463 6.37526 1.27334 6.16203 1.33078C5.94324 1.39045 5.60547 1.28217 5.27658 1.17674L5.27394 1.1759L5.267 1.17367C4.80785 1.02612 4.33414 0.873896 3.96178 1.09281C3.58555 1.31218 3.4885 1.80606 3.39543 2.28068C3.33095 2.61238 3.26249 2.95804 3.1096 3.1096C2.95974 3.25946 2.62594 3.3263 2.3004 3.39148L2.28068 3.39543C1.80407 3.48916 1.31218 3.58621 1.09281 3.96178C0.874988 4.33338 1.02617 4.80592 1.17278 5.26419L1.1759 5.27394L1.1778 5.27984C1.28291 5.60639 1.39156 5.94397 1.33078 6.16203C1.27096 6.37673 1.01105 6.61471 0.759112 6.8447C0.386326 7.18493 0 7.53751 0 8C0 8.46251 0.382657 8.81174 0.753966 9.15061L0.759112 9.1553L0.76429 9.16003C1.01463 9.38856 1.27334 9.62474 1.33078 9.83797C1.39045 10.0568 1.28217 10.3945 1.17674 10.7234L1.1759 10.7261L1.17367 10.733C1.02612 11.1922 0.873897 11.6659 1.09281 12.0382C1.31218 12.4145 1.80606 12.5115 2.28068 12.6046C2.61238 12.669 2.95804 12.7375 3.1096 12.8904C3.25946 13.0403 3.3263 13.3741 3.39148 13.6996L3.39543 13.7193C3.48916 14.1959 3.58621 14.6878 3.96178 14.9072C4.33338 15.125 4.80592 14.9738 5.26419 14.8272L5.27394 14.8241L5.27983 14.8222C5.60638 14.7171 5.94397 14.6084 6.16203 14.6692C6.37673 14.729 6.61471 14.9889 6.8447 15.2409C7.18492 15.6137 7.53751 16 8 16C8.46251 16 8.81174 15.6173 9.1506 15.246L9.1553 15.2409L9.16003 15.2357C9.38856 14.9854 9.62474 14.7267 9.83797 14.6692C10.0568 14.6096 10.3945 14.7178 10.7234 14.8233L10.7261 14.8241L10.733 14.8263C11.1921 14.9739 11.6659 15.1261 12.0382 14.9072C12.4145 14.6858 12.5115 14.1939 12.6046 13.7193C12.669 13.3876 12.7375 13.042 12.8904 12.8904C13.0403 12.7405 13.3741 12.6737 13.6996 12.6085L13.7193 12.6046C14.1959 12.5108 14.6878 12.4138 14.9072 12.0382C15.125 11.6666 14.9738 11.1941 14.8272 10.7358L14.8241 10.7261L14.8222 10.7202C14.7171 10.3936 14.6084 10.056 14.6692 9.83797C14.729 9.62327 14.989 9.38529 15.2409 9.1553C15.6137 8.81508 16 8.46249 16 8C16 7.53535 15.6151 7.18504 15.2409 6.8447ZM14.9364 8.8202L14.9305 8.8256C14.6326 9.09779 14.3249 9.37881 14.2318 9.71692C14.1348 10.0659 14.2657 10.4727 14.3934 10.8636L14.3945 10.8672C14.5118 11.2316 14.633 11.6081 14.5177 11.8082C14.4003 12.0072 14.0121 12.0837 13.6353 12.158L13.6329 12.1585C13.2327 12.2369 12.8213 12.3187 12.5694 12.5686C12.3194 12.8186 12.2377 13.232 12.1592 13.6322C12.0861 14.0097 12.0096 14.3999 11.8089 14.5169C11.6103 14.6341 11.2351 14.5126 10.8689 14.3941L10.8643 14.3926L10.8583 14.3907C10.4686 14.2656 10.0642 14.1359 9.71766 14.2311C9.37731 14.3248 9.09281 14.6346 8.82094 14.9357C8.54707 15.2368 8.26258 15.5466 8.00067 15.5466C7.73845 15.5466 7.45785 15.2394 7.18561 14.9414L7.1804 14.9357L7.17501 14.9298C6.90282 14.6318 6.6218 14.3242 6.28369 14.2311C6.1986 14.2072 6.11153 14.1972 6.02178 14.1972C5.74089 14.1972 5.43834 14.2944 5.14218 14.3896L5.13703 14.3913L5.13345 14.3924C4.76897 14.5097 4.39255 14.6309 4.19245 14.5156C3.99345 14.3982 3.91691 14.01 3.84261 13.6332L3.84214 13.6308C3.7637 13.2307 3.68194 12.8192 3.43199 12.5673C3.18205 12.3173 2.7686 12.2356 2.36843 12.1571C1.99086 12.084 1.60067 12.0076 1.48368 11.8068C1.36602 11.6074 1.489 11.2285 1.60799 10.8622L1.60992 10.8562C1.73496 10.4665 1.86474 10.0621 1.76951 9.71558C1.67579 9.37524 1.36602 9.09073 1.06491 8.81887L1.06385 8.81791C0.763724 8.54566 0.452687 8.26352 0.452687 7.99993C0.452687 7.7377 0.759842 7.45711 1.05786 7.18486L1.06356 7.17965L1.06947 7.17426C1.36743 6.90207 1.67506 6.62105 1.76817 6.28294C1.86522 5.93396 1.73427 5.52715 1.60664 5.13628L1.60549 5.13272C1.48819 4.76823 1.36704 4.3918 1.48234 4.1917C1.59975 3.9927 1.9879 3.91616 2.36471 3.84186L2.36709 3.84139C2.76726 3.76295 3.17871 3.68119 3.43065 3.43125C3.6806 3.1813 3.76235 2.76786 3.84079 2.36768C3.91391 1.99011 3.99036 1.59993 4.19111 1.48293C4.3897 1.36577 4.76494 1.48723 5.13108 1.60575L5.13569 1.60724L5.14172 1.60917C5.53139 1.73422 5.93581 1.86399 6.28234 1.76877C6.62269 1.67504 6.90719 1.36528 7.17906 1.06416C7.45293 0.763045 7.73742 0.453284 7.99933 0.453284C8.26155 0.453284 8.54214 0.760439 8.81439 1.05846L8.8196 1.06416L8.825 1.07007C9.09718 1.36803 9.37821 1.67565 9.71631 1.76877C10.0653 1.86382 10.4721 1.73487 10.863 1.60724L10.8665 1.60609C11.231 1.48879 11.6075 1.36764 11.8075 1.48293C12.0066 1.60035 12.0831 1.9885 12.1574 2.36531L12.1579 2.36768C12.2363 2.76786 12.3181 3.17931 12.568 3.42926C12.818 3.6792 13.2314 3.76095 13.6316 3.8394C14.0091 3.91252 14.3993 3.98896 14.5163 4.18971C14.6335 4.3883 14.512 4.76355 14.3935 5.12969L14.392 5.13429L14.3901 5.14032C14.265 5.52999 14.1353 5.93442 14.2305 6.28095C14.3242 6.62129 14.634 6.9058 14.9351 7.17766C15.2362 7.45153 15.546 7.73603 15.546 7.99793C15.5473 8.26102 15.2421 8.54039 14.9459 8.81154L14.9364 8.8202Z" fill="#EB96FD"/>
</svg>
