<svg width="24" height="24" viewBox="0 0 24 24" fill="none" xmlns="http://www.w3.org/2000/svg">
<path d="M18.7596 15.8061L15.8193 12.8659C15.7081 12.7546 15.5491 12.7228 15.422 12.7705L15.0088 12.3573C16.5981 11.4832 17.5835 10.323 17.647 10.2594C17.9172 9.92563 17.9172 9.41705 17.647 9.08329C17.5358 8.95614 15.0247 6 11.4169 6C7.80913 6 5.298 8.95614 5.20264 9.08329C4.93245 9.41705 4.93245 9.92563 5.20264 10.2594C5.31389 10.3865 7.82502 13.3427 11.4328 13.3427C12.291 13.3427 13.0698 13.1837 13.785 12.9295L14.532 13.6764C14.4843 13.8195 14.5161 13.9784 14.6273 14.0738L17.5676 17.014C17.7265 17.173 17.9331 17.2524 18.1397 17.2524C18.3464 17.2524 18.553 17.173 18.7119 17.014L18.7755 16.9504C19.0774 16.6326 19.0774 16.124 18.7596 15.8061ZM17.2815 9.40115C17.4087 9.54419 17.4087 9.79849 17.2815 9.94152C17.2656 9.95742 16.2643 11.1494 14.6432 11.9918L14.4048 11.7534C14.8339 11.1494 15.0723 10.4183 15.0723 9.65545C15.0723 8.68596 14.6909 7.76415 14.0075 7.06485C13.9757 7.03306 13.9598 7.01717 13.928 7.00127C15.9465 7.84362 17.2497 9.38526 17.2815 9.40115ZM5.56818 9.94152C5.44104 9.79849 5.44104 9.54419 5.56818 9.40115C5.58408 9.38526 6.88732 7.84362 8.90577 7.01717C8.88987 7.03306 8.85809 7.04895 8.84219 7.08074C7.4118 8.51113 7.4118 10.8157 8.84219 12.246C8.87398 12.2778 8.90576 12.3096 8.95344 12.3414C6.90322 11.515 5.58408 9.97331 5.56818 9.94152ZM13.6102 11.8646C13.0221 12.4527 12.2433 12.7705 11.4169 12.7705C10.5904 12.7705 9.81168 12.4527 9.22363 11.8646C8.93755 11.5785 8.73094 11.2607 8.57201 10.911C8.57201 10.8951 8.55611 10.8951 8.55611 10.8792C8.52433 10.8157 8.50843 10.7362 8.47665 10.6726C8.46075 10.6408 8.46075 10.6249 8.44486 10.5931C8.42897 10.5296 8.41307 10.4819 8.39718 10.4183C8.38129 10.3706 8.38129 10.3389 8.36539 10.2912C8.3495 10.2435 8.3495 10.1799 8.33361 10.1322C8.33361 10.0846 8.31771 10.0369 8.31771 9.9892C8.31771 9.92563 8.31771 9.87795 8.30182 9.81438C8.30182 9.7667 8.30182 9.73491 8.30182 9.68723C8.30182 9.63955 8.30182 9.59187 8.30182 9.54419C8.30182 9.49651 8.30182 9.43294 8.31771 9.38526C8.31771 9.32169 8.33361 9.27401 8.3495 9.22633C8.3495 9.17865 8.36539 9.13097 8.36539 9.08329C8.38129 9.03561 8.38129 8.98793 8.39718 8.94025C8.41307 8.89257 8.42897 8.84489 8.42897 8.78132C8.44486 8.74953 8.46075 8.70185 8.46075 8.67007C8.47665 8.60649 8.50843 8.54292 8.52433 8.47935C8.54022 8.46345 8.54022 8.43167 8.55611 8.41577C8.5879 8.33631 8.61969 8.27273 8.66737 8.19327V8.17737C8.81041 7.92308 8.98523 7.68468 9.19184 7.47807C9.70043 6.96949 10.3521 6.66752 11.0514 6.58805H11.0672C11.1785 6.57216 11.2739 6.57216 11.3851 6.57216C11.4964 6.57216 11.5917 6.57216 11.703 6.58805C11.7189 6.58805 11.7348 6.58805 11.7507 6.58805C11.8301 6.60394 11.9255 6.60394 12.0049 6.61984H12.0208C12.6089 6.74698 13.1334 7.03306 13.5784 7.46218C14.0075 7.8913 14.2936 8.43167 14.4207 9.00382V9.01972C14.4366 9.09918 14.4525 9.19454 14.4525 9.27401C14.4525 9.2899 14.4525 9.30579 14.4684 9.33758C14.5161 9.44883 14.5161 9.56009 14.5161 9.65545C14.5161 9.65545 14.5161 9.65545 14.5161 9.67134C14.5161 9.78259 14.5161 9.87795 14.5002 9.9892C14.5002 10.0051 14.5002 10.0051 14.5002 10.021C14.4207 10.7203 14.1187 11.356 13.6102 11.8646ZM13.8327 12.405C13.8962 12.3573 13.9439 12.3096 14.0075 12.246C14.0552 12.1984 14.1187 12.1348 14.1664 12.0712L15.1041 13.0089L14.7704 13.3427L13.8327 12.405ZM18.4735 16.6644L18.4099 16.7279C18.251 16.8869 17.9967 16.8869 17.8378 16.7279L14.8975 13.7877L14.9134 13.7718L15.5174 13.1679L15.5332 13.152L18.4735 16.0922C18.6324 16.2511 18.6324 16.5054 18.4735 16.6644Z" fill="white"/>
<path d="M11.4169 11.1494C12.2332 11.1494 12.895 10.4876 12.895 9.67131C12.895 8.85499 12.2332 8.19324 11.4169 8.19324C10.6006 8.19324 9.93884 8.85499 9.93884 9.67131C9.93884 10.4876 10.6006 11.1494 11.4169 11.1494Z" fill="white"/>
</svg>
