<svg width="32" height="32" viewBox="0 0 32 32" fill="none" xmlns="http://www.w3.org/2000/svg">
<path d="M8.76074 2C9.72572 2.02003 10.6666 2.09622 11.5596 2.43652C12.2804 2.70484 12.9896 3.14333 13.6885 3.74805C14.139 4.1505 14.4871 4.47735 14.7354 4.72363C14.8975 4.87177 15.0541 5.02549 15.2002 5.18164C15.2963 5.28376 15.3884 5.38997 15.4785 5.49609C15.6387 5.67025 15.8287 5.88456 16.0469 6.13477C16.1631 6.2667 16.5081 6.68914 16.5195 6.70312C16.5439 6.67275 16.6743 6.54755 16.6982 6.51758C17.0086 6.12712 17.3009 5.77428 17.5732 5.46191C17.8655 5.1036 18.1356 4.78876 18.3838 4.52051C18.7221 4.16221 19.1729 3.79242 19.7354 3.41211C20.298 3.03166 20.9169 2.70484 21.5938 2.43652C22.665 2.06209 23.7425 1.96759 24.8438 2.13379C25.6547 2.27596 26.432 2.52821 27.1748 2.89062C28.3641 3.48532 29.3369 4.32308 30.0938 5.4043C30.8245 6.45751 31.1895 7.70119 31.1895 9.13281C31.1894 10.268 30.9185 11.2809 30.3779 12.1719C29.8093 13.0629 29.1065 13.8477 28.2695 14.5225C27.4326 15.1712 26.5937 15.754 25.7568 16.2666L24.1348 17.2402C23.5941 17.5646 23.1473 17.8225 22.7969 18.0107C22.4465 18.1729 22.0945 18.3619 21.7441 18.5781C21.3937 18.7663 20.9469 19.0643 20.4062 19.4688C19.7035 19.9813 19.2566 20.5902 19.0684 21.293C18.8521 21.9957 18.7441 22.5906 18.7441 23.0771C18.7442 24.5648 19.219 25.7125 20.1641 26.5234C21.1111 27.3343 22.2588 27.7383 23.6104 27.7383C27.1504 27.7382 29.3928 25.7919 30.3379 21.9014C30.5261 21.6591 30.865 21.5371 31.3516 21.5371C31.7838 21.5371 31.9999 21.6172 32 21.7793C32 22.2658 31.92 23.0488 31.7578 24.1299C31.5956 25.185 31.3377 26.5489 30.9873 28.2246C30.6089 28.2787 30.204 28.3756 29.7715 28.5098C29.313 28.6179 28.5821 28.7678 27.583 28.9561C27.0965 29.0642 26.4876 29.1601 25.7588 29.2402C25.028 29.3484 24.3391 29.4023 23.6904 29.4023C22.1768 29.4023 20.785 29.0903 19.5156 28.4697C18.2181 27.821 17.1765 26.9413 16.3936 25.834C16.2474 25.6258 16.1171 25.4116 15.999 25.1914C15.8809 25.4096 15.7486 25.6238 15.6045 25.834C14.8196 26.9432 13.7808 27.821 12.4834 28.4697C11.2139 29.0925 9.82141 29.4023 8.30762 29.4023C7.66095 29.4023 6.96994 29.3483 6.24121 29.2402C5.51249 29.1581 4.9035 29.0642 4.41699 28.9561C3.41798 28.7659 2.68701 28.6179 2.22852 28.5098C1.79616 28.3737 1.392 28.2787 1.01367 28.2246C0.661296 26.5488 0.404367 25.1831 0.242188 24.1299C0.0800327 23.0488 0 22.2658 0 21.7793C0.000130255 21.6173 0.216359 21.5372 0.648438 21.5371C1.13493 21.5371 1.47387 21.6592 1.66211 21.9014C2.60919 25.7918 4.85168 27.7381 8.3916 27.7383C9.74304 27.7383 10.8928 27.3342 11.8379 26.5234C12.785 25.7125 13.2578 24.5628 13.2578 23.0771C13.2578 22.5906 13.1498 21.9957 12.9336 21.293C12.7454 20.5901 12.2985 19.9814 11.5957 19.4688C11.0551 19.0643 10.6082 18.7663 10.2578 18.5781C9.90744 18.3619 9.55545 18.1729 9.20508 18.0107C8.85467 17.8205 8.40779 17.5646 7.86719 17.2402L6.24512 16.2666C5.40827 15.7521 4.56927 15.1711 3.73242 14.5225C2.89354 13.8477 2.19064 13.0628 1.62402 12.1719C1.0835 11.2809 0.813534 10.268 0.813477 9.13281C0.813477 7.70123 1.17946 6.45749 1.9082 5.4043C2.6651 4.32302 3.63872 3.48533 4.82812 2.89062C6.04546 2.29605 7.35523 2 8.76074 2ZM15.4805 10.0996C15.4766 10.1041 13.727 12.1067 13.1133 12.6631C12.5785 13.1479 12.0665 13.5594 11.6602 13.8057C11.2798 14.0159 10.7992 14.2263 10.2207 14.4365C10.527 14.6267 10.8371 14.8195 11.1494 15.0117C12.0144 15.5523 12.8792 16.1612 13.7441 16.8359C14.6092 17.4827 15.3259 18.2275 15.8926 19.0645C15.9306 19.1185 15.9669 19.1725 16.0029 19.2266C16.0389 19.1705 16.0753 19.1185 16.1133 19.0645C16.6799 18.2275 17.3968 17.4847 18.2617 16.8359C19.1266 16.1612 19.9916 15.5523 20.8564 15.0117C21.0526 14.8916 21.2473 14.7715 21.4395 14.6514C20.9971 14.5753 20.5669 14.4485 20.1465 14.2764V14.2744C19.3816 13.96 18.8964 13.6618 18.2197 13.0967C16.9213 12.0122 15.4827 10.1026 15.4805 10.0996ZM9.20215 3.88184C8.42575 3.88187 7.71521 4.11369 7.08496 4.57031L6.85742 4.73828C6.64788 4.90404 6.45561 5.08798 6.28027 5.28906C6.02091 5.57679 5.79769 5.90485 5.6123 6.27344C5.41348 6.69907 5.27839 7.15222 5.20508 7.63184C5.15394 7.94068 5.12795 8.25883 5.12793 8.58594C5.12799 9.42187 5.31498 10.1987 5.69336 10.9072C6.06818 11.6089 6.57711 12.1784 7.21875 12.6055C7.87386 13.0415 8.61418 13.2568 9.4248 13.2568C10.348 13.2567 11.3929 12.7962 12.1025 12.1465C12.4421 11.8355 13.1446 11.0685 13.7432 10.4023C14.0468 10.0644 14.3315 9.74471 14.5391 9.50977C14.6427 9.39251 14.7273 9.29552 14.7861 9.22852C14.8153 9.19527 14.8389 9.16916 14.8545 9.15137C14.862 9.1428 14.8681 9.13541 14.8721 9.13086C14.874 9.12867 14.876 9.12612 14.877 9.125L14.8779 9.12402L14.6104 8.88867L14.8789 9.12305L15.1396 8.8252L14.8955 8.5127L14.2246 7.65527L14.2178 7.64648L13.8076 7.14746L13.1992 6.40723L13.1875 6.39355C12.6821 5.82315 12.1129 5.27642 11.4805 4.75391C10.7923 4.18536 10.0287 3.88193 9.20215 3.88184ZM22.915 3.72363C21.9918 3.72364 20.947 4.18416 20.2373 4.83398C19.8978 5.14487 19.1953 5.91186 18.5967 6.57812C18.293 6.91608 18.0084 7.23573 17.8008 7.4707C17.6972 7.588 17.6126 7.68492 17.5537 7.75195C17.5245 7.78523 17.501 7.81128 17.4854 7.8291C17.4778 7.8377 17.4718 7.84503 17.4678 7.84961C17.4659 7.85181 17.4639 7.8543 17.4629 7.85547L17.4619 7.85645L17.4883 7.87988L17.4873 7.88086L17.4609 7.85742L17.2002 8.15527L17.4443 8.46777L18.1152 9.3252L18.1221 9.33398L18.5322 9.83301L19.1406 10.5732L19.1523 10.5869C19.6578 11.1573 20.227 11.7041 20.8594 12.2266C21.5476 12.7951 22.311 13.0986 23.1377 13.0986C23.9142 13.0986 24.6246 12.8669 25.2549 12.4102L25.4824 12.2422C25.9966 11.8354 26.4079 11.3207 26.7158 10.7061L26.7207 10.6943C27.0498 9.99033 27.2119 9.22056 27.2119 8.39453C27.2119 7.5587 27.0248 6.78169 26.6465 6.07324C26.2717 5.37169 25.7627 4.80204 25.1211 4.375C24.466 3.93896 23.7257 3.72368 22.915 3.72363Z" fill="#910EA2"/>
</svg>
