<svg width="52" height="51" viewBox="0 0 52 51" fill="none" xmlns="http://www.w3.org/2000/svg">
<g clip-path="url(#clip0_3014_102211)">
<path d="M18.0723 10.9177C19.0955 10.939 20.0932 11.0198 21.04 11.3806C21.8044 11.6651 22.5568 12.13 23.2979 12.7712C23.7755 13.1979 24.145 13.5443 24.4082 13.8054C24.5801 13.9625 24.7455 14.1262 24.9004 14.2917C25.0022 14.3999 25.0998 14.5123 25.1953 14.6248C25.3652 14.8095 25.5674 15.0371 25.7988 15.3025C25.9238 15.4445 26.2966 15.9011 26.2998 15.905C26.3254 15.8731 26.4623 15.74 26.4883 15.7078C26.8174 15.2937 27.1282 14.9198 27.417 14.5886C27.7269 14.2087 28.0132 13.875 28.2764 13.5906C28.6352 13.2106 29.1134 12.8182 29.71 12.4148C30.3065 12.0115 30.9622 11.6651 31.6797 11.3806C32.8156 10.9836 33.9582 10.8841 35.126 11.0603C35.9858 11.2111 36.81 11.4778 37.5977 11.8621C38.8588 12.4927 39.8908 13.3806 40.6934 14.5271C41.4682 15.6438 41.8544 16.9623 41.8545 18.4802C41.8545 19.6841 41.5674 20.759 40.9941 21.7039C40.3912 22.6485 39.6461 23.4806 38.7588 24.196C37.8713 24.884 36.9813 25.5021 36.0938 26.0457L34.374 27.0779C33.8009 27.4217 33.3275 27.6957 32.9561 27.8953C32.5845 28.0672 32.2104 28.2666 31.8389 28.4958C31.4674 28.6954 30.9939 29.0115 30.4209 29.4402C29.6757 29.9837 29.2026 30.6296 29.0029 31.3748C28.7737 32.1198 28.6583 32.7505 28.6582 33.2664C28.6582 34.8439 29.1619 36.0608 30.1641 36.9207C31.1683 37.7806 32.3852 38.2097 33.8184 38.2097C37.572 38.2096 39.95 36.1456 40.9521 32.0203C41.1517 31.7634 41.5105 31.6336 42.0264 31.6335C42.4846 31.6335 42.7134 31.7187 42.7139 31.8904C42.7139 32.4063 42.629 33.237 42.457 34.3835C42.2851 35.5025 42.0112 36.9483 41.6396 38.7253C41.2385 38.7827 40.8099 38.8849 40.3516 39.0271C39.8653 39.1418 39.0898 39.3011 38.0303 39.5007C37.5145 39.6153 36.8692 39.7166 36.0967 39.8015C35.3218 39.9161 34.5911 39.9743 33.9033 39.9744C32.2982 39.9744 30.8217 39.6423 29.4756 38.9841C28.1 38.2962 26.9961 37.3642 26.166 36.1902C26.0111 35.9694 25.8733 35.7421 25.748 35.5085C25.6228 35.74 25.482 35.9672 25.3291 36.1902C24.4969 37.3663 23.3952 38.2962 22.0195 38.9841C20.6735 39.6444 19.1978 39.9743 17.5928 39.9744C16.907 39.9744 16.1742 39.9162 15.4014 39.8015C14.6285 39.7145 13.9827 39.6154 13.4668 39.5007C12.4075 39.2991 11.6327 39.1417 11.1465 39.0271C10.6879 38.8827 10.2587 38.7827 9.85742 38.7253C9.48376 36.9483 9.21201 35.5003 9.04004 34.3835C8.86806 33.237 8.7832 32.4063 8.7832 31.8904C8.78363 31.7188 9.01277 31.6336 9.4707 31.6335C9.98665 31.6335 10.3463 31.7634 10.5459 32.0203C11.5502 36.1457 13.9278 38.2097 17.6816 38.2097C19.1148 38.2097 20.3338 37.7805 21.3359 36.9207C22.3401 36.0608 22.8408 34.8417 22.8408 33.2664C22.8408 32.7505 22.7263 32.1198 22.4971 31.3748C22.2975 30.6296 21.8243 29.9837 21.0791 29.4402C20.5058 29.0113 20.0317 28.6954 19.6602 28.4958C19.2888 28.2667 18.9153 28.0672 18.5439 27.8953C18.1724 27.6936 17.6983 27.4218 17.125 27.0779L15.4053 26.0457C14.5178 25.5 13.6286 24.8839 12.7412 24.196C11.8516 23.4805 11.1057 22.6487 10.5049 21.7039C9.93161 20.759 9.64551 19.6841 9.64551 18.4802C9.64557 16.9623 10.0339 15.6438 10.8066 14.5271C11.6092 13.3806 12.6412 12.4926 13.9023 11.8621C15.1932 11.2316 16.5819 10.9177 18.0723 10.9177ZM25.1982 19.5066C25.19 19.516 23.3389 21.6336 22.6885 22.2234C22.1211 22.7378 21.5775 23.1751 21.1465 23.4363C20.7431 23.6592 20.2336 23.8823 19.6201 24.1052C19.9449 24.3069 20.2743 24.5108 20.6055 24.7146C21.5226 25.2878 22.4403 25.9327 23.3574 26.6482C24.2745 27.3339 25.034 28.1242 25.6348 29.0115C25.675 29.0687 25.7138 29.1261 25.752 29.1833C25.7901 29.124 25.8289 29.0687 25.8691 29.0115C26.47 28.1242 27.2294 27.336 28.1465 26.6482C29.0636 25.9327 29.9813 25.2878 30.8984 24.7146C31.1065 24.5872 31.3128 24.4592 31.5166 24.3318C31.0474 24.2511 30.5904 24.1179 30.1445 23.9353V23.9333C29.3336 23.6 28.82 23.2835 28.1025 22.6843C26.7374 21.5443 25.2263 19.5438 25.1982 19.5066ZM18.54 12.9148C17.7166 12.9149 16.9633 13.1598 16.2949 13.6443C16.0119 13.8399 15.7567 14.0648 15.5264 14.3152C15.2151 14.6413 14.9506 15.019 14.7344 15.449C14.52 15.9079 14.3746 16.3967 14.2979 16.9148C14.2466 17.2345 14.2207 17.564 14.2207 17.9021C14.2209 18.7885 14.419 19.6128 14.8203 20.364C15.2177 21.1076 15.7574 21.7111 16.4375 22.1638C17.1321 22.626 17.9169 22.8552 18.7764 22.8552C19.7552 22.8552 20.8637 22.3673 21.6162 21.6785C21.976 21.349 22.7206 20.5345 23.3555 19.8279C23.6774 19.4696 23.9791 19.1307 24.1992 18.8816C24.3089 18.7575 24.3985 18.6548 24.4609 18.5837C24.492 18.5484 24.5176 18.5206 24.5342 18.5017C24.5423 18.4925 24.5485 18.4842 24.5527 18.4792C24.5545 18.4772 24.5565 18.4755 24.5576 18.4744L24.5586 18.4724H24.5596L24.8359 18.156L24.5771 17.825L23.8652 16.9148H23.8662L23.8584 16.906L23.4238 16.3777L22.7783 15.5925L22.7725 15.5847L22.7666 15.5779L22.3516 15.1287C21.9242 14.6846 21.458 14.2551 20.9551 13.8396C20.2253 13.2367 19.4166 12.9148 18.54 12.9148ZM33.0791 12.7468C32.1001 12.7468 30.9918 13.2345 30.2393 13.9236C29.8792 14.2534 29.1347 15.0678 28.5 15.7742C28.1781 16.1324 27.8763 16.4714 27.6562 16.7205C27.5466 16.8446 27.4569 16.9473 27.3945 17.0183C27.3635 17.0536 27.3378 17.0815 27.3213 17.1003C27.3132 17.1096 27.3069 17.118 27.3027 17.1228C27.3009 17.1248 27.2988 17.1266 27.2979 17.1277L27.2969 17.1296H27.2959L27.0195 17.446L27.2783 17.7771L27.9902 18.6873H27.9893L27.9971 18.696L28.4316 19.2244L29.0771 20.0095L29.083 20.0173L29.0889 20.0242L29.5039 20.4734C29.9312 20.9174 30.3975 21.347 30.9004 21.7625C31.63 22.3651 32.439 22.6873 33.3154 22.6873C34.1387 22.6872 34.8922 22.442 35.5605 21.9578C36.2195 21.5023 36.7362 20.895 37.1094 20.1501L37.1152 20.1384C37.4641 19.3921 37.6346 18.5757 37.6348 17.7C37.6347 16.8136 37.4363 15.9893 37.0352 15.238C36.6378 14.4943 36.0981 13.891 35.418 13.4382C34.7233 12.9759 33.9387 12.7469 33.0791 12.7468Z" fill="#ffffff"/>
</g>
<defs>
<clipPath id="clip0_3014_102211">
<rect width="33.9312" height="33.9312" fill="white" transform="translate(8.92383 8.49432)"/>
</clipPath>
</defs>
</svg>
