<svg width="30" height="30" viewBox="0 0 30 30" fill="none" xmlns="http://www.w3.org/2000/svg">
<g clip-path="url(#clip0_554_27676)">
<path d="M22.7362 10.2208C22.3744 10.2208 22.0005 10.3052 21.6145 10.4741C21.2286 10.6429 20.8909 10.8238 20.6014 11.0168C20.3119 11.2098 19.9622 11.5113 19.5521 11.9214C19.142 12.3073 18.8405 12.6089 18.6475 12.826C18.4545 13.0189 18.1651 13.3446 17.7791 13.8029C17.3932 14.2612 17.164 14.5266 17.0916 14.5989C17.0434 14.6472 17.0313 14.6834 17.0554 14.7075C17.1519 14.8281 17.3932 15.1417 17.7791 15.6483C18.1651 16.1307 18.4425 16.4805 18.6113 16.6976C18.7802 16.8905 19.0455 17.1921 19.4074 17.6021C19.7692 18.0122 20.0707 18.3258 20.3119 18.5429C20.5773 18.7359 20.8788 18.953 21.2165 19.1942C21.5783 19.4354 21.9281 19.6163 22.2658 19.7369C22.6035 19.8334 22.9412 19.8817 23.279 19.8817C24.4368 19.8817 25.3655 19.3992 26.0651 18.4344C26.7887 17.4695 27.1506 16.3478 27.1506 15.0693C27.1506 13.7667 26.7284 12.633 25.8841 11.6681C25.0399 10.7032 23.9906 10.2208 22.7362 10.2208ZM3.92095 15.2141C3.92095 16.5166 4.33103 17.6383 5.15118 18.5791C5.99545 19.5199 7.0327 19.9902 8.26293 19.9902C8.72125 19.9902 9.16751 19.9058 9.60171 19.7369C10.0359 19.544 10.4701 19.2666 10.9043 18.9047C11.3626 18.5188 11.7365 18.1811 12.026 17.8916C12.3154 17.6021 12.6893 17.1921 13.1477 16.6614C13.606 16.1307 13.9196 15.7809 14.0884 15.6121C14.1125 15.5879 14.1125 15.5638 14.0884 15.5397C13.9678 15.395 13.6904 15.0452 13.2562 14.4904C12.8461 13.9356 12.4722 13.4773 12.1345 13.1154C11.7968 12.7295 11.3867 12.3073 10.9043 11.849C10.446 11.3907 9.96354 11.0409 9.45698 10.7997C8.97454 10.5344 8.49209 10.4017 8.00965 10.4017C6.82767 10.4017 5.85072 10.8841 5.07881 11.849C4.30691 12.8139 3.92095 13.9356 3.92095 15.2141ZM8.44385 8.2307C9.264 8.2307 10.048 8.38749 10.7958 8.70108C11.5677 8.99055 12.3154 9.46093 13.0391 10.1122C13.7869 10.7635 14.3055 11.258 14.595 11.5957C14.9086 11.9093 15.379 12.4279 16.0061 13.1516C16.0303 13.1999 16.0664 13.224 16.1147 13.224C16.1629 13.224 16.1991 13.2119 16.2232 13.1878C16.9469 12.2712 17.5741 11.5354 18.1048 10.9806C18.6354 10.4017 19.4315 9.79864 20.4928 9.17146C21.5542 8.54429 22.6277 8.2307 23.7132 8.2307C25.4017 8.2307 26.8249 8.882 27.9828 10.1846C29.1406 11.4631 29.7196 12.9828 29.7196 14.7437C29.7196 16.7458 29.02 18.4464 27.6209 19.8455C26.2219 21.2446 24.5333 21.9441 22.5553 21.9441C21.6628 21.9441 20.8064 21.7753 19.9863 21.4376C19.1661 21.0998 18.4787 20.6898 17.9238 20.2073C17.369 19.7008 16.8745 19.2063 16.4403 18.7238C16.0303 18.2414 15.6925 17.8313 15.4272 17.4936C15.1619 17.1559 15.0051 16.987 14.9568 16.987H14.9206C14.3417 17.6624 13.9316 18.1449 13.6904 18.4344C13.4492 18.6997 13.0271 19.1218 12.424 19.7008C11.8451 20.2797 11.3385 20.7018 10.9043 20.9672C10.4701 21.2084 9.9153 21.4496 9.23988 21.6908C8.58858 21.9079 7.92522 22.0165 7.2498 22.0165C5.58538 22.0165 4.19836 21.3652 3.08874 20.0626C1.97912 18.7359 1.42431 17.1921 1.42431 15.4312C1.42431 13.4531 2.09973 11.7646 3.45057 10.3655C4.82553 8.9423 6.48996 8.2307 8.44385 8.2307Z" fill="#910EA2"/>
</g>
<defs>
<clipPath id="clip0_554_27676">
<rect width="30" height="30" fill="white"/>
</clipPath>
</defs>
</svg>
