<svg width="30" height="30" viewBox="0 0 30 30" fill="none" xmlns="http://www.w3.org/2000/svg">
<path d="M23.386 4.36918C21.0206 3.19228 18.1261 2.5 15 2.5C11.8739 2.5 8.97938 3.19228 6.61395 4.36918C5.45398 4.94633 4.87399 5.2349 4.312 6.14223C3.75 7.04956 3.75 7.9281 3.75 9.68517V14.0464C3.75 21.1506 9.42795 25.1005 12.7163 26.7922C13.6334 27.2641 14.0919 27.5 15 27.5C15.9081 27.5 16.3666 27.2641 17.2836 26.7922C20.572 25.1005 26.25 21.1506 26.25 14.0464V9.68517C26.25 7.92811 26.25 7.04958 25.688 6.14223C25.126 5.23489 24.546 4.94633 23.386 4.36918Z" stroke="#910EA2" stroke-width="1.5" stroke-linecap="round" stroke-linejoin="round"/>
</svg>
