<svg width="30" height="30" viewBox="0 0 30 30" fill="none" xmlns="http://www.w3.org/2000/svg">
<path d="M10.2445 3.19037C12.0881 2.04808 13.6972 2.50841 14.6638 3.24166C15.0601 3.5423 15.2582 3.69264 15.3749 3.69264C15.4915 3.69264 15.6896 3.5423 16.086 3.24166C17.0526 2.50841 18.6617 2.04808 20.5053 3.19037C22.9248 4.68949 23.4723 9.63517 17.8914 13.8077C16.8285 14.6025 16.297 14.9997 15.3749 14.9997C14.4528 14.9997 13.9213 14.6025 12.8583 13.8077C7.27746 9.63517 7.82494 4.68949 10.2445 3.19037Z" stroke="#910EA2" stroke-width="1.49997" stroke-linecap="round"/>
<path d="M4.75 17.5H7.74347C8.11115 17.5 8.47378 17.5829 8.80263 17.742L11.3551 18.977C11.6839 19.1361 12.0465 19.2188 12.4142 19.2188H13.7175C14.9779 19.2188 15.9998 20.2077 15.9998 21.4274C15.9998 21.4767 15.966 21.52 15.917 21.5335L12.741 22.4118C12.1712 22.5693 11.5611 22.5144 11.0311 22.2579L8.30257 20.9378" stroke="#910EA2" stroke-width="1.49997" stroke-linecap="round" stroke-linejoin="round"/>
<path d="M15.9998 20.625L21.7407 18.8612C22.7584 18.544 23.8585 18.92 24.496 19.8029C24.957 20.4411 24.7692 21.3552 24.0978 21.7427L14.7034 27.163C14.1059 27.5077 13.401 27.5919 12.7438 27.3969L4.75 25.0248" stroke="#910EA2" stroke-width="1.49997" stroke-linecap="round" stroke-linejoin="round"/>
</svg>
