
<svg width="16" height="16" viewBox="0 0 16 16" fill="none" xmlns="http://www.w3.org/2000/svg">
<path fill-rule="evenodd" clip-rule="evenodd" d="M15.5273 8.17825C15.5273 7.62226 15.4774 7.08766 15.3847 6.57443H7.99998V9.60744H12.2198C12.0381 10.5876 11.4856 11.418 10.6552 11.974V13.9413H13.1892C14.6719 12.5763 15.5273 10.5662 15.5273 8.17825Z" fill="#4285F4"/>
<path fill-rule="evenodd" clip-rule="evenodd" d="M7.99996 15.8408C10.117 15.8408 11.8919 15.1387 13.1892 13.9412L10.6552 11.9738C9.95306 12.4443 9.05492 12.7222 7.99996 12.7222C5.95776 12.7222 4.2292 11.343 3.61262 9.48965H0.993042V11.5212C2.28323 14.0837 4.93488 15.8408 7.99996 15.8408Z" fill="#34A853"/>
<path fill-rule="evenodd" clip-rule="evenodd" d="M3.61265 9.48978C3.45583 9.01933 3.36673 8.5168 3.36673 8.00001C3.36673 7.48322 3.45583 6.98069 3.61265 6.51024V4.47873H0.993076C0.462032 5.53725 0.159088 6.73477 0.159088 8.00001C0.159088 9.26525 0.462032 10.4628 0.993076 11.5213L3.61265 9.48978Z" fill="#FFBB38"/>
<path fill-rule="evenodd" clip-rule="evenodd" d="M7.99996 3.27763C9.15115 3.27763 10.1847 3.67324 10.9973 4.4502L13.2462 2.20129C11.8883 0.936051 10.1134 0.159088 7.99996 0.159088C4.93488 0.159088 2.28323 1.91616 0.993042 4.47872L3.61262 6.51022C4.2292 4.65692 5.95776 3.27763 7.99996 3.27763Z" fill="#EA4335"/>
</svg>
