<svg width="142" height="25" viewBox="0 0 142 25" fill="none" xmlns="http://www.w3.org/2000/svg">
<g clip-path="url(#clip0_4942_471)">
<path d="M4.62616 5.14984C5.14327 5.16058 5.64767 5.20183 6.12616 5.38422C6.51235 5.52801 6.8924 5.76241 7.26679 6.08636C7.50821 6.30204 7.69525 6.47684 7.82831 6.60883C7.91523 6.68824 7.999 6.77122 8.07734 6.85492C8.12879 6.9096 8.17753 6.96705 8.22577 7.02386C8.31155 7.11715 8.41361 7.23167 8.53046 7.36566C8.59365 7.43742 8.78362 7.66943 8.78437 7.67035C8.7978 7.65377 8.86726 7.58675 8.88007 7.57074C9.04633 7.36159 9.20294 7.17265 9.34882 7.00531C9.50546 6.81327 9.65035 6.6442 9.78339 6.50043C9.96461 6.30855 10.2059 6.11033 10.507 5.90668C10.8085 5.70285 11.1405 5.52799 11.5031 5.38422C12.0772 5.18354 12.6551 5.13304 13.2453 5.22211C13.6798 5.29831 14.0963 5.4332 14.4943 5.62738C15.1317 5.94609 15.6532 6.39464 16.0588 6.97406C16.4504 7.53848 16.6457 8.2049 16.6457 8.97211C16.6457 9.58048 16.5008 10.1235 16.2111 10.601C15.9064 11.0785 15.5297 11.4992 15.0812 11.8608C14.6328 12.2084 14.183 12.5207 13.7346 12.7953L12.8654 13.3168C12.5757 13.4907 12.3364 13.63 12.1486 13.7309C11.961 13.8177 11.7718 13.9179 11.5842 14.0336C11.3965 14.1344 11.1569 14.2946 10.8674 14.5112C10.4907 14.7859 10.2514 15.113 10.1506 15.4897C10.0347 15.8662 9.97675 16.185 9.97675 16.4457C9.97682 17.2429 10.2311 17.8579 10.7375 18.2924C11.245 18.7269 11.86 18.9438 12.5842 18.9438C14.4812 18.9437 15.6831 17.9006 16.1896 15.8159C16.2905 15.686 16.4718 15.6205 16.7326 15.6205C16.9644 15.6205 17.0803 15.6635 17.0803 15.7504C17.0802 16.0112 17.0373 16.431 16.9504 17.0102C16.8635 17.5757 16.7251 18.3065 16.5373 19.2045C16.3345 19.2335 16.1177 19.285 15.8859 19.3569C15.6402 19.4148 15.2485 19.4953 14.7131 19.5961C14.4523 19.6541 14.1261 19.7056 13.7355 19.7485C13.3439 19.8064 12.9748 19.8354 12.6271 19.8354C11.816 19.8354 11.0701 19.6679 10.3898 19.3354C9.69446 18.9877 9.13559 18.5167 8.71601 17.9233C8.63769 17.8117 8.56837 17.6966 8.50507 17.5786C8.44177 17.6955 8.37138 17.8106 8.29413 17.9233C7.87347 18.5178 7.31568 18.9877 6.6203 19.3354C5.94005 19.669 5.19413 19.8354 4.383 19.8354C4.03646 19.8354 3.66609 19.8064 3.27558 19.7485C2.88507 19.7045 2.55875 19.6541 2.29804 19.5961C1.76264 19.4942 1.37091 19.4148 1.12519 19.3569C0.893423 19.2839 0.676616 19.2335 0.47382 19.2045C0.284989 18.3065 0.147658 17.5746 0.0607338 17.0102C-0.0261427 16.431 -0.0691043 16.0112 -0.069149 15.7504C-0.069149 15.6635 0.0467945 15.6206 0.278507 15.6205C0.539273 15.6205 0.720604 15.686 0.821476 15.8159C1.32907 17.9005 2.531 18.9436 4.42792 18.9438C5.15227 18.9438 5.76907 18.727 6.27558 18.2924C6.78299 17.8579 7.03625 17.2417 7.03632 16.4457C7.03632 16.1851 6.97829 15.8661 6.86249 15.4897C6.76162 15.113 6.52234 14.7859 6.14569 14.5112C5.85602 14.2944 5.61667 14.1345 5.4289 14.0336C5.24128 13.9178 5.05206 13.8178 4.86444 13.7309C4.67668 13.629 4.43732 13.4906 4.14765 13.3168L3.27753 12.7953C2.82914 12.5196 2.37925 12.2083 1.93085 11.8608C1.48138 11.4992 1.10458 11.0784 0.800968 10.601C0.511343 10.1235 0.366398 9.58044 0.366398 8.97211C0.366424 8.20494 0.562768 7.53846 0.953312 6.97406C1.35887 6.39469 1.8805 5.94608 2.51777 5.62738C3.17022 5.30867 3.87284 5.14984 4.62616 5.14984ZM8.22675 9.49066C8.21059 9.50916 7.28597 10.5673 6.95917 10.8637C6.67245 11.1236 6.3977 11.345 6.17987 11.477C5.97605 11.5896 5.71839 11.7022 5.40839 11.8149C5.57251 11.9168 5.7391 12.0195 5.90644 12.1225C6.36997 12.4122 6.83353 12.7384 7.29706 13.1C7.76065 13.4467 8.14474 13.8468 8.44843 14.2953C8.46871 14.3242 8.4878 14.3534 8.50702 14.3823C8.52631 14.3523 8.54624 14.3243 8.56659 14.2953C8.87028 13.8468 9.25438 13.4477 9.71796 13.1C10.1814 12.7385 10.6451 12.4122 11.1086 12.1225C11.2137 12.0582 11.3182 11.9944 11.4211 11.9301C11.184 11.8893 10.953 11.8212 10.7277 11.7289V11.728C10.3179 11.5595 10.058 11.3998 9.6955 11.0971C8.99905 10.5155 8.22675 9.49066 8.22675 9.49066ZM4.86249 6.15863C4.49644 6.15864 4.15786 6.25509 3.85175 6.44476L3.72187 6.53168C3.58893 6.62414 3.46749 6.72873 3.35761 6.84515C3.19159 7.01459 3.05254 7.21348 2.93866 7.43988C2.83094 7.67046 2.75793 7.91607 2.71894 8.17621C2.69256 8.33907 2.67891 8.50685 2.6789 8.67914C2.67892 9.12702 2.77896 9.54365 2.98163 9.92328C3.18243 10.2991 3.45533 10.6046 3.79902 10.8334C4.15012 11.0671 4.54717 11.183 4.98163 11.183C5.4764 11.183 6.03684 10.9365 6.41718 10.5883C6.59909 10.4217 6.97526 10.0098 7.29609 9.65277C7.45874 9.47174 7.61065 9.30015 7.72187 9.17426C7.77737 9.11143 7.82311 9.0598 7.85468 9.02386C7.87038 9.00599 7.88341 8.99143 7.89179 8.98187C7.89566 8.97745 7.8985 8.97352 7.90058 8.97113C7.90159 8.97 7.90292 8.96884 7.90351 8.9682H7.90448V8.96722L8.04413 8.80804L7.91327 8.64008L7.5539 8.18109L7.54999 8.17621L7.33027 7.90863L7.00409 7.51215L6.99823 7.50433L6.78827 7.27777C6.57239 7.05347 6.33723 6.83631 6.08319 6.6264C5.71443 6.32174 5.30546 6.15868 4.86249 6.15863ZM12.2111 6.07367C11.7164 6.07369 11.1559 6.32018 10.7756 6.6684C10.5937 6.83501 10.2175 7.24687 9.89667 7.60394C9.73401 7.78499 9.58211 7.95657 9.47089 8.08246C9.41537 8.1453 9.36965 8.19692 9.33808 8.23285C9.32235 8.25074 9.30935 8.26529 9.30097 8.27484C9.29708 8.27929 9.29426 8.2832 9.29218 8.28558C9.29115 8.28674 9.28982 8.28789 9.28925 8.28851H9.28827V8.28949L9.14862 8.44867L9.27948 8.61664L9.63886 9.07562L9.64277 9.08051L9.86249 9.34808L10.1887 9.74457L10.1945 9.75238L10.4045 9.97894C10.6203 10.2032 10.8556 10.4204 11.1096 10.6303C11.4783 10.9349 11.8874 11.098 12.3303 11.0981C12.6962 11.098 13.0349 11.0016 13.341 10.812L13.4709 10.725C13.8013 10.4952 14.0607 10.1903 14.2482 9.81586L14.2512 9.81C14.4275 9.43276 14.5138 9.02019 14.5139 8.57758C14.5139 8.12968 14.4138 7.71308 14.2111 7.33344C14.0103 6.9576 13.7374 6.65211 13.3937 6.42328C13.0427 6.18961 12.6455 6.07371 12.2111 6.07367Z" fill="#910EA2"/>
</g>
<path d="M31.0109 20.8696C30.6098 20.8696 30.1837 20.8361 29.7325 20.7693C29.2813 20.7192 28.9054 20.6607 28.6046 20.5938C27.9863 20.4769 27.5351 20.385 27.251 20.3181C26.9837 20.2346 26.733 20.1761 26.4991 20.1427C26.2818 19.1066 26.1231 18.2628 26.0228 17.611C25.9226 16.9426 25.8724 16.458 25.8724 16.1572C25.8724 16.057 26.0061 16.0069 26.2735 16.0069C26.5743 16.0069 26.7831 16.0821 26.9001 16.2324C27.485 18.6387 28.8719 19.8419 31.061 19.8419C31.8965 19.8419 32.6067 19.5912 33.1916 19.0899C33.7764 18.5886 34.0688 17.8784 34.0688 16.9593C34.0688 16.6586 34.002 16.2909 33.8683 15.8565C33.7514 15.422 33.4756 15.046 33.0412 14.7285C32.707 14.4779 32.4312 14.294 32.214 14.1771C31.9968 14.0434 31.7795 13.9264 31.5623 13.8262C31.3451 13.7092 31.0693 13.5504 30.7351 13.3499L29.7325 12.7483C29.2145 12.4308 28.6965 12.0716 28.1785 11.6705C27.6604 11.2528 27.226 10.7682 26.8751 10.2167C26.5408 9.66529 26.3737 9.03865 26.3737 8.33682C26.3737 7.45117 26.5993 6.6825 27.0505 6.03079C27.5184 5.36238 28.12 4.84436 28.8552 4.47673C29.6072 4.10911 30.4176 3.92529 31.2866 3.92529C31.6542 3.92529 31.9968 3.95036 32.3143 4.00049C32.6485 4.03391 32.9242 4.07569 33.1414 4.12582C33.6427 4.24279 33.9937 4.3347 34.1942 4.40154C34.4114 4.46838 34.7038 4.54357 35.0715 4.62713C35.272 5.49606 35.3723 6.69085 35.3723 8.21149C35.3723 8.32846 35.2887 8.38695 35.1216 8.38695C34.7038 8.38695 34.4866 8.3034 34.4699 8.13629C34.3863 7.63498 34.2025 7.14203 33.9185 6.65743C33.6344 6.17283 33.25 5.77178 32.7654 5.45429C32.2808 5.12008 31.7043 4.95298 31.0359 4.95298C30.3508 4.95298 29.8161 5.08666 29.4317 5.35403C29.0474 5.60468 28.7717 5.93053 28.6046 6.33158C28.4542 6.71592 28.379 7.12532 28.379 7.55979C28.379 7.97755 28.4792 8.3953 28.6798 8.81306C28.8803 9.23082 29.1727 9.58174 29.5571 9.86581C30.0751 10.2502 30.5931 10.6094 31.1111 10.9436C31.6459 11.2778 32.1973 11.6204 32.7654 11.9713C33.3002 12.3055 33.8349 12.6815 34.3696 13.0993C34.9044 13.5003 35.3472 13.9598 35.6981 14.4779C36.0657 14.9959 36.2495 15.5975 36.2495 16.2826C36.2495 17.1682 36.0072 17.962 35.5226 18.6638C35.038 19.3489 34.3947 19.892 33.5926 20.2931C32.8072 20.6774 31.9466 20.8696 31.0109 20.8696Z" fill="white"/>
<path d="M37.5448 20.9462C37.4975 20.899 37.4739 20.8105 37.4739 20.6807C37.4739 20.5154 37.4975 20.4328 37.5448 20.4328C37.651 20.4328 37.7926 20.421 37.9697 20.3974C38.1467 20.362 38.312 20.3148 38.4654 20.2557C38.6189 20.1967 38.7074 20.1377 38.731 20.0787C38.7782 19.9134 38.8077 19.701 38.8195 19.4413C38.8432 19.1816 38.855 18.8688 38.855 18.5029V11.6332C38.855 11.2673 38.8432 10.9545 38.8195 10.6948C38.8077 10.4234 38.7782 10.2109 38.731 10.0574C38.7074 9.98663 38.6189 9.92761 38.4654 9.88039C38.312 9.82138 38.1467 9.77416 37.9697 9.73875C37.7926 9.70334 37.651 9.68564 37.5448 9.68564C37.4975 9.68564 37.4739 9.60891 37.4739 9.45547C37.4739 9.31382 37.4975 9.21939 37.5448 9.17218L39.6694 9.26071C39.7638 9.26071 39.9822 9.25481 40.3245 9.243C40.6668 9.21939 41.133 9.19579 41.7232 9.17218C41.7468 9.26661 41.7586 9.35514 41.7586 9.43776C41.7586 9.60301 41.735 9.68564 41.6878 9.68564C41.617 9.68564 41.4931 9.70924 41.316 9.75646C41.1389 9.79187 40.9737 9.83908 40.8203 9.8981C40.6668 9.94531 40.5783 9.99843 40.5547 10.0574C40.4484 10.4588 40.3953 11.0076 40.3953 11.704V18.4321C40.3953 19.1167 40.4484 19.6656 40.5547 20.0787C40.5783 20.1259 40.6668 20.179 40.8203 20.238C40.9737 20.297 41.1389 20.3443 41.316 20.3797C41.4931 20.4151 41.617 20.4328 41.6878 20.4328C41.735 20.4328 41.7586 20.5213 41.7586 20.6984C41.7586 20.7692 41.7468 20.8518 41.7232 20.9462C41.133 20.9226 40.6668 20.9049 40.3245 20.8931C39.9822 20.8695 39.7638 20.8577 39.6694 20.8577L37.5448 20.9462Z" fill="white"/>
<path d="M42.4594 20.9462C42.4004 20.8872 42.3708 20.7987 42.3708 20.6807C42.3708 20.5154 42.4004 20.4328 42.4594 20.4328C42.5774 20.4328 42.7309 20.4151 42.9197 20.3797C43.1086 20.3443 43.2915 20.297 43.4686 20.238C43.6456 20.179 43.7696 20.1141 43.8404 20.0433C44.0411 19.8308 44.1473 19.3174 44.1591 18.5029C44.1827 17.1337 44.2063 15.9061 44.2299 14.8202C44.2653 13.7225 44.2948 12.8254 44.3184 12.129C44.342 11.4208 44.3538 10.9663 44.3538 10.7657C44.3538 10.447 44.3302 10.2109 44.283 10.0574C44.2594 9.98663 44.1532 9.92761 43.9643 9.88039C43.7873 9.82138 43.5925 9.77416 43.3801 9.73875C43.1676 9.70334 43.0023 9.68564 42.8843 9.68564C42.8371 9.68564 42.8135 9.60301 42.8135 9.43776C42.8135 9.30792 42.8371 9.21939 42.8843 9.17218C43.1676 9.18398 43.4804 9.20169 43.8227 9.2253C44.165 9.2489 44.5132 9.26071 44.8673 9.26071C45.0916 9.26071 45.3335 9.25481 45.5932 9.243C45.8647 9.21939 46.1657 9.19579 46.4962 9.17218C46.5906 9.43186 47.7592 12.3887 50.0019 18.0426C50.0255 18.0662 50.0491 18.078 50.0727 18.078C50.1199 18.078 50.1494 18.0544 50.1612 18.0072C50.7396 16.6497 51.2589 15.4104 51.7193 14.289C52.1796 13.1677 52.5809 12.1703 52.9232 11.2968L53.6315 9.17218C54.0092 9.19579 54.3161 9.21349 54.5521 9.2253C54.8 9.2371 54.983 9.243 55.101 9.243C55.4669 9.243 55.8151 9.2371 56.1456 9.2253C56.4761 9.21349 56.7889 9.19579 57.084 9.17218C57.1194 9.27841 57.1371 9.36694 57.1371 9.43776C57.1371 9.60301 57.1076 9.68564 57.0486 9.68564H57.0132C56.8833 9.68564 56.7122 9.72695 56.4997 9.80957C56.2873 9.88039 56.1279 9.95712 56.0217 10.0397C55.88 10.146 55.8092 10.5414 55.8092 11.226L55.9686 18.4144C55.9922 19.099 56.0807 19.642 56.2341 20.0433C56.2696 20.1141 56.364 20.179 56.5174 20.238C56.6709 20.297 56.8361 20.3443 57.0132 20.3797C57.202 20.4151 57.3378 20.4328 57.4204 20.4328C57.4676 20.4328 57.4912 20.5154 57.4912 20.6807C57.4912 20.7633 57.4794 20.8518 57.4558 20.9462C56.8656 20.9226 56.3935 20.9049 56.0394 20.8931C55.6971 20.8695 55.4669 20.8577 55.3489 20.8577L53.2242 20.9462C53.177 20.899 53.1534 20.8046 53.1534 20.663C53.1534 20.5095 53.177 20.4328 53.2242 20.4328C53.3423 20.4328 53.5193 20.4033 53.7554 20.3443C54.0033 20.2852 54.1803 20.2262 54.2866 20.1672C54.4282 20.0728 54.499 19.819 54.499 19.4059V18.4675L54.2866 12.2352C54.2866 12.1054 54.2689 11.9637 54.2334 11.8103C54.2098 11.645 54.1803 11.5034 54.1449 11.3854C54.1095 11.2555 54.0682 11.1906 54.021 11.1906C53.9974 11.1906 53.9679 11.2319 53.9324 11.3145L50.232 20.1672C50.0078 20.6748 49.7894 20.9285 49.5769 20.9285C49.5651 20.9285 49.512 20.9167 49.4176 20.8931L45.3631 10.5886C45.3276 12.2529 45.2863 13.7402 45.2391 15.0504C45.1919 16.3488 45.1506 17.3934 45.1152 18.1842C45.0916 18.975 45.0798 19.4354 45.0798 19.5652C45.0798 19.7777 45.1152 19.9311 45.186 20.0256C45.2332 20.0846 45.3513 20.1495 45.5401 20.2203C45.729 20.2793 45.9237 20.3325 46.1244 20.3797C46.3369 20.4151 46.4785 20.4328 46.5493 20.4328C46.5965 20.4328 46.6201 20.5213 46.6201 20.6984C46.6201 20.7692 46.6083 20.8518 46.5847 20.9462C45.9945 20.9226 45.5283 20.9049 45.186 20.8931C44.8437 20.8695 44.6253 20.8577 44.5309 20.8577L42.4594 20.9462Z" fill="white"/>
<path d="M58.1919 20.9462C58.1329 20.8872 58.1034 20.7987 58.1034 20.6807C58.1034 20.5154 58.1329 20.4328 58.1919 20.4328C58.31 20.4328 58.4634 20.4151 58.6523 20.3797C58.8411 20.3443 59.0241 20.297 59.2012 20.238C59.3782 20.179 59.5021 20.1141 59.573 20.0433C59.7736 19.8308 59.8799 19.3174 59.8917 18.5029C59.9153 17.1337 59.9389 15.9061 59.9625 14.8202C59.9979 13.7225 60.0274 12.8254 60.051 12.129C60.0746 11.4208 60.0864 10.9663 60.0864 10.7657C60.0864 10.447 60.0628 10.2109 60.0156 10.0574C59.992 9.98663 59.8858 9.92761 59.6969 9.88039C59.5199 9.82138 59.3251 9.77416 59.1126 9.73875C58.9002 9.70334 58.7349 9.68564 58.6169 9.68564C58.5697 9.68564 58.5461 9.60301 58.5461 9.43776C58.5461 9.30792 58.5697 9.21939 58.6169 9.17218C58.9002 9.18398 59.213 9.20169 59.5553 9.2253C59.8976 9.2489 60.2458 9.26071 60.5999 9.26071C60.8241 9.26071 61.0661 9.25481 61.3258 9.243C61.5973 9.21939 61.8983 9.19579 62.2288 9.17218C62.3232 9.43186 63.4918 12.3887 65.7344 18.0426C65.758 18.0662 65.7816 18.078 65.8053 18.078C65.8525 18.078 65.882 18.0544 65.8938 18.0072C66.4722 16.6497 66.9915 15.4104 67.4519 14.289C67.9122 13.1677 68.3135 12.1703 68.6558 11.2968L69.364 9.17218C69.7417 9.19579 70.0486 9.21349 70.2847 9.2253C70.5326 9.2371 70.7155 9.243 70.8336 9.243C71.1995 9.243 71.5477 9.2371 71.8782 9.2253C72.2087 9.21349 72.5215 9.19579 72.8166 9.17218C72.852 9.27841 72.8697 9.36694 72.8697 9.43776C72.8697 9.60301 72.8402 9.68564 72.7812 9.68564H72.7458C72.6159 9.68564 72.4448 9.72695 72.2323 9.80957C72.0198 9.88039 71.8605 9.95712 71.7543 10.0397C71.6126 10.146 71.5418 10.5414 71.5418 11.226L71.7011 18.4144C71.7248 19.099 71.8133 19.642 71.9667 20.0433C72.0021 20.1141 72.0966 20.179 72.25 20.238C72.4035 20.297 72.5687 20.3443 72.7458 20.3797C72.9346 20.4151 73.0704 20.4328 73.153 20.4328C73.2002 20.4328 73.2238 20.5154 73.2238 20.6807C73.2238 20.7633 73.212 20.8518 73.1884 20.9462C72.5982 20.9226 72.1261 20.9049 71.772 20.8931C71.4297 20.8695 71.1995 20.8577 71.0815 20.8577L68.9568 20.9462C68.9096 20.899 68.886 20.8046 68.886 20.663C68.886 20.5095 68.9096 20.4328 68.9568 20.4328C69.0748 20.4328 69.2519 20.4033 69.488 20.3443C69.7358 20.2852 69.9129 20.2262 70.0191 20.1672C70.1608 20.0728 70.2316 19.819 70.2316 19.4059V18.4675L70.0191 12.2352C70.0191 12.1054 70.0014 11.9637 69.966 11.8103C69.9424 11.645 69.9129 11.5034 69.8775 11.3854C69.8421 11.2555 69.8008 11.1906 69.7536 11.1906C69.7299 11.1906 69.7004 11.2319 69.665 11.3145L65.9646 20.1672C65.7403 20.6748 65.522 20.9285 65.3095 20.9285C65.2977 20.9285 65.2446 20.9167 65.1502 20.8931L61.0956 10.5886C61.0602 12.2529 61.0189 13.7402 60.9717 15.0504C60.9245 16.3488 60.8832 17.3934 60.8478 18.1842C60.8241 18.975 60.8123 19.4354 60.8123 19.5652C60.8123 19.7777 60.8478 19.9311 60.9186 20.0256C60.9658 20.0846 61.0838 20.1495 61.2727 20.2203C61.4615 20.2793 61.6563 20.3325 61.857 20.3797C62.0694 20.4151 62.2111 20.4328 62.2819 20.4328C62.3291 20.4328 62.3527 20.5213 62.3527 20.6984C62.3527 20.7692 62.3409 20.8518 62.3173 20.9462C61.7271 20.9226 61.2609 20.9049 60.9186 20.8931C60.5763 20.8695 60.3579 20.8577 60.2635 20.8577L58.1919 20.9462Z" fill="white"/>
<path d="M75.5003 19.2775C74.3908 18.1208 73.836 16.7102 73.836 15.0459C73.836 14.2197 73.9836 13.4466 74.2787 12.7265C74.5737 11.9947 74.9751 11.3573 75.4826 10.8144C76.002 10.2596 76.604 9.82876 77.2886 9.52187C77.9732 9.20317 78.705 9.04382 79.484 9.04382C80.2631 9.04382 80.9949 9.20317 81.6795 9.52187C82.3641 9.82876 82.9661 10.2596 83.4854 10.8144C84.0048 11.3573 84.412 11.9947 84.7071 12.7265C85.0022 13.4466 85.1498 14.2197 85.1498 15.0459C85.1498 16.7102 84.595 18.1208 83.4854 19.2775C82.73 20.0802 81.8743 20.6113 80.9182 20.871C79.9621 21.1425 79.006 21.1425 78.0499 20.871C77.1056 20.6113 76.2558 20.0802 75.5003 19.2775ZM79.7673 20.269C80.5227 20.269 81.1838 20.0211 81.7503 19.5254C82.3169 19.0415 82.73 18.4395 82.9897 17.7195C83.2612 16.9876 83.3969 16.2086 83.3969 15.3823C83.3969 14.4499 83.2435 13.5587 82.9366 12.7088C82.6297 11.8708 82.1516 11.1744 81.5024 10.6196C80.8532 10.0648 80.0919 9.78745 79.2185 9.78745C78.4748 9.78745 77.8315 10.0176 77.2886 10.478C76.7456 10.9265 76.3266 11.5226 76.0315 12.2662C75.7364 12.998 75.5889 13.7948 75.5889 14.6564C75.5889 15.5889 75.7423 16.4801 76.0492 17.3299C76.3561 18.168 76.8341 18.8703 77.4833 19.4369C78.1325 19.9916 78.8939 20.269 79.7673 20.269Z" fill="white"/>
<path d="M96.4206 20.9462C94.7799 20.9462 93.3458 20.0964 92.1182 18.3967C92.0238 18.2668 91.8998 18.0898 91.7464 17.8655C91.6047 17.6412 91.3392 17.2458 90.9496 16.6793C90.7608 16.4078 90.5896 16.1835 90.4362 16.0065C90.2945 15.8176 90.1234 15.676 89.9227 15.5815C89.7339 15.4871 89.4742 15.4399 89.1437 15.4399C89.0138 15.4399 88.9076 15.4576 88.825 15.493C88.7542 15.5284 88.7188 15.611 88.7188 15.7409V18.3436C88.7188 19.1226 88.766 19.636 88.8604 19.8839C88.9076 19.9784 89.0198 20.0669 89.1968 20.1495C89.3857 20.2321 89.5863 20.297 89.7988 20.3443C90.0113 20.3797 90.1647 20.3974 90.2591 20.3974C90.3063 20.3974 90.3299 20.48 90.3299 20.6453C90.3299 20.7279 90.3181 20.8164 90.2945 20.9108C89.7044 20.8872 89.2145 20.8636 88.825 20.84C88.4473 20.8164 88.1699 20.8105 87.9928 20.8223L85.8328 20.9108C85.7974 20.8754 85.7797 20.7692 85.7797 20.5921C85.7797 20.4387 85.7974 20.362 85.8328 20.362C85.9508 20.362 86.0925 20.3443 86.2577 20.3089C86.4348 20.2734 86.6 20.2321 86.7535 20.1849C86.9187 20.1259 87.019 20.061 87.0545 19.9902C87.1371 19.8603 87.1784 19.3055 87.1784 18.3259V11.6332C87.1784 11.2909 87.1666 10.9899 87.143 10.7303C87.1312 10.4706 87.1017 10.264 87.0545 10.1106C87.0308 10.0397 86.9364 9.97482 86.7712 9.91581C86.6177 9.85679 86.4466 9.80957 86.2577 9.77416C86.0807 9.73875 85.939 9.72105 85.8328 9.72105C85.7856 9.72105 85.762 9.65023 85.762 9.50858C85.762 9.35514 85.7856 9.25481 85.8328 9.20759L87.9574 9.243C88.2997 9.2548 88.7188 9.2489 89.2145 9.2253C89.7103 9.18989 90.1234 9.17218 90.4539 9.17218C91.0913 9.17218 91.6992 9.29612 92.2775 9.54399C92.8677 9.79187 93.3458 10.1578 93.7117 10.6417C94.0894 11.1257 94.2782 11.7159 94.2782 12.4123C94.2782 12.908 94.0894 13.4274 93.7117 13.9703C93.3458 14.5133 92.8441 14.9323 92.2067 15.2274C92.0887 15.2746 92.0533 15.3336 92.1005 15.4045C92.6789 16.632 93.3576 17.6708 94.1366 18.5206C95.2697 19.76 96.1904 20.3797 96.8986 20.3797C96.934 20.4505 96.9518 20.5331 96.9518 20.6275C96.9518 20.7338 96.934 20.8223 96.8986 20.8931C96.7806 20.9285 96.6213 20.9462 96.4206 20.9462ZM90.2591 14.6785H90.7018C90.985 14.6785 91.2742 14.5841 91.5693 14.3953C91.8762 14.2064 92.13 13.9408 92.3307 13.5985C92.5431 13.2562 92.6493 12.8608 92.6493 12.4123C92.6493 10.7716 91.8231 9.95122 90.1706 9.95122C89.6276 9.95122 89.2145 9.99253 88.9312 10.0752C88.825 10.0988 88.7601 10.2935 88.7365 10.6594C88.7247 11.0135 88.7188 11.468 88.7188 12.0227V14.1651C88.7188 14.5074 89.2322 14.6785 90.2591 14.6785Z" fill="white"/>
<path d="M100.91 21.0259C100.863 20.9787 100.839 20.8902 100.839 20.7604C100.839 20.5951 100.863 20.5125 100.91 20.5125C101.016 20.5125 101.158 20.5007 101.335 20.4771C101.512 20.4417 101.677 20.3945 101.831 20.3354C101.984 20.2764 102.073 20.2174 102.097 20.1584C102.144 19.9931 102.173 19.7807 102.185 19.521C102.209 19.2613 102.22 18.9485 102.22 18.5826V12.1733C102.22 11.1464 102.167 10.5385 102.061 10.3496C101.978 10.1726 101.341 10.084 100.149 10.084C99.7004 10.084 99.3522 10.1253 99.1043 10.208C98.8564 10.2788 98.6676 10.4263 98.5377 10.6506C98.4079 10.8749 98.284 11.2113 98.1659 11.6598C98.1423 11.7188 98.0833 11.7483 97.9889 11.7483C97.7882 11.7483 97.6466 11.707 97.5639 11.6244L97.9004 9.09253C98.16 9.15155 98.3902 9.19876 98.5909 9.23417C98.7915 9.26958 98.9686 9.28729 99.122 9.28729C99.9719 9.28729 100.721 9.29909 101.371 9.3227C102.02 9.34631 102.563 9.35811 102.999 9.35811C103.908 9.35811 104.687 9.34631 105.337 9.3227C105.998 9.29909 106.517 9.28729 106.895 9.28729C107.048 9.28729 107.225 9.26958 107.426 9.23417C107.626 9.19876 107.857 9.15155 108.116 9.09253L108.453 11.6244C108.37 11.707 108.228 11.7483 108.028 11.7483C107.933 11.7483 107.874 11.7188 107.851 11.6598C107.745 11.2113 107.621 10.8749 107.479 10.6506C107.349 10.4263 107.16 10.2788 106.912 10.208C106.665 10.1253 106.316 10.084 105.868 10.084C104.628 10.084 103.979 10.1726 103.92 10.3496C103.814 10.7155 103.761 11.3057 103.761 12.1201V18.5118C103.761 19.1964 103.814 19.7453 103.92 20.1584C103.944 20.2056 104.032 20.2587 104.186 20.3177C104.339 20.3767 104.504 20.424 104.682 20.4594C104.859 20.4948 104.982 20.5125 105.053 20.5125C105.101 20.5125 105.124 20.601 105.124 20.7781C105.124 20.8489 105.112 20.9315 105.089 21.0259C104.499 21.0023 104.032 20.9846 103.69 20.9728C103.348 20.9492 103.129 20.9374 103.035 20.9374L100.91 21.0259Z" fill="white"/>
<path d="M109.136 20.9551C109.089 20.9079 109.065 20.8194 109.065 20.6895C109.065 20.5243 109.089 20.4416 109.136 20.4416C109.277 20.4416 109.46 20.4121 109.685 20.3531C109.909 20.2941 110.062 20.2115 110.145 20.1052C110.275 19.94 110.405 19.7216 110.535 19.4501C110.676 19.1787 110.824 18.8423 110.977 18.4409L114.058 10.5266C114.129 10.3496 114.17 10.2257 114.182 10.1548C114.205 10.084 114.223 10.025 114.235 9.97778C114.259 9.91876 114.3 9.82433 114.359 9.69449C114.441 9.52924 114.524 9.3994 114.607 9.30497C114.689 9.21054 114.825 9.16333 115.014 9.16333L115.173 9.21645L118.714 18.5649C118.821 18.8364 118.915 19.0783 118.998 19.2908C119.092 19.5033 119.169 19.6862 119.228 19.8397C119.275 19.9577 119.375 20.0639 119.529 20.1584C119.694 20.241 119.859 20.3118 120.025 20.3708C120.202 20.418 120.337 20.4416 120.432 20.4416C120.479 20.4416 120.503 20.5538 120.503 20.778C120.503 20.8017 120.497 20.8312 120.485 20.8666C120.485 20.8902 120.479 20.9197 120.467 20.9551C119.877 20.9315 119.417 20.9138 119.086 20.902C118.767 20.8784 118.579 20.8666 118.52 20.8666L116.466 20.9551C116.419 20.9079 116.395 20.8135 116.395 20.6718C116.407 20.5184 116.436 20.4416 116.484 20.4416C116.625 20.4416 116.802 20.4121 117.015 20.3531C117.227 20.2941 117.351 20.2174 117.386 20.1229C117.398 20.0757 117.404 20.0285 117.404 19.9813C117.416 19.9341 117.422 19.8869 117.422 19.8397C117.422 19.6862 117.404 19.5092 117.369 19.3085C117.333 19.096 117.292 18.9308 117.245 18.8128L116.448 16.6173C116.413 16.5701 116.377 16.5465 116.342 16.5465C115.882 16.5111 115.433 16.4934 114.996 16.4934C114.689 16.4934 114.347 16.5052 113.969 16.5288C113.603 16.5406 113.196 16.5583 112.748 16.5819L112.659 16.635L111.898 18.5826C111.78 18.8777 111.697 19.1255 111.65 19.3262C111.615 19.5269 111.597 19.6862 111.597 19.8043C111.597 19.9695 111.644 20.0875 111.738 20.1584C111.845 20.241 112.016 20.3118 112.252 20.3708C112.488 20.418 112.659 20.4416 112.765 20.4416C112.801 20.4416 112.818 20.5125 112.818 20.6541C112.83 20.7958 112.824 20.8961 112.801 20.9551L110.977 20.8666C110.647 20.843 110.322 20.8489 110.003 20.8843C109.696 20.9079 109.407 20.9315 109.136 20.9551ZM114.377 15.6435C114.908 15.6435 115.445 15.6258 115.988 15.5904L116.041 15.5018L114.607 11.589L113.084 15.5373C113.084 15.5845 113.096 15.6081 113.119 15.6081C113.426 15.6199 113.68 15.6317 113.881 15.6435C114.093 15.6435 114.259 15.6435 114.377 15.6435Z" fill="white"/>
<path d="M129.348 20.9551C128.734 20.9551 127.778 20.9374 126.48 20.902C125.83 20.8784 125.24 20.8607 124.709 20.8489C124.178 20.8371 123.712 20.8371 123.31 20.8489L121.168 20.902C121.133 20.8666 121.115 20.7721 121.115 20.6187C121.115 20.4653 121.133 20.3885 121.168 20.3885C121.286 20.3885 121.428 20.3708 121.593 20.3354C121.77 20.3 121.935 20.2587 122.089 20.2115C122.254 20.1525 122.354 20.0875 122.39 20.0167C122.472 19.8869 122.514 19.3321 122.514 18.3524V11.6598C122.514 10.8808 122.472 10.3437 122.39 10.0486C122.366 9.97778 122.277 9.91876 122.124 9.87154C121.971 9.81253 121.805 9.76531 121.628 9.7299C121.451 9.69449 121.31 9.67679 121.203 9.67679C121.156 9.67679 121.133 9.60006 121.133 9.44662C121.133 9.30497 121.156 9.21054 121.203 9.16333C121.31 9.16333 121.487 9.17513 121.735 9.19874C121.994 9.21054 122.272 9.22825 122.567 9.25186C122.862 9.26366 123.116 9.26956 123.328 9.26956C123.706 9.26956 124.083 9.25776 124.461 9.23415C124.839 9.19874 125.146 9.17513 125.382 9.16333C125.405 9.25776 125.417 9.34629 125.417 9.42891C125.417 9.59416 125.394 9.67679 125.346 9.67679C125.276 9.67679 125.152 9.70039 124.975 9.74761C124.798 9.78302 124.632 9.83023 124.479 9.88925C124.325 9.93646 124.237 9.98958 124.213 10.0486C124.107 10.4499 124.054 10.9988 124.054 11.6952V18.3701C124.054 18.9957 124.107 19.5151 124.213 19.9282C124.249 20.0462 124.65 20.1052 125.417 20.1052H126.267C127.353 20.1052 128.097 20.0049 128.498 19.8043C128.675 19.7098 128.87 19.5033 129.082 19.1846C129.307 18.8541 129.484 18.4645 129.613 18.016C129.637 17.9452 129.72 17.9098 129.861 17.9098C130.086 17.9098 130.233 17.9452 130.304 18.016C130.269 18.1104 130.209 18.258 130.127 18.4586C130.056 18.6475 129.985 18.8423 129.914 19.0429C129.844 19.2436 129.785 19.4147 129.737 19.5564C129.667 19.7688 129.59 20.0108 129.507 20.2823C129.425 20.5538 129.371 20.778 129.348 20.9551Z" fill="white"/>
<path d="M136.667 20.8696C136.266 20.8696 135.839 20.8361 135.388 20.7693C134.937 20.7192 134.561 20.6607 134.26 20.5938C133.642 20.4769 133.191 20.385 132.907 20.3181C132.639 20.2346 132.389 20.1761 132.155 20.1427C131.938 19.1066 131.779 18.2628 131.679 17.611C131.578 16.9426 131.528 16.458 131.528 16.1572C131.528 16.057 131.662 16.0069 131.929 16.0069C132.23 16.0069 132.439 16.0821 132.556 16.2324C133.141 18.6387 134.528 19.8419 136.717 19.8419C137.552 19.8419 138.262 19.5912 138.847 19.0899C139.432 18.5886 139.725 17.8784 139.725 16.9593C139.725 16.6586 139.658 16.2909 139.524 15.8565C139.407 15.422 139.131 15.046 138.697 14.7285C138.363 14.4779 138.087 14.294 137.87 14.1771C137.653 14.0434 137.435 13.9264 137.218 13.8262C137.001 13.7092 136.725 13.5504 136.391 13.3499L135.388 12.7483C134.87 12.4308 134.352 12.0716 133.834 11.6705C133.316 11.2528 132.882 10.7682 132.531 10.2167C132.197 9.66529 132.03 9.03865 132.03 8.33682C132.03 7.45117 132.255 6.6825 132.706 6.03079C133.174 5.36238 133.776 4.84436 134.511 4.47673C135.263 4.10911 136.073 3.92529 136.942 3.92529C137.31 3.92529 137.653 3.95036 137.97 4.00049C138.304 4.03391 138.58 4.07569 138.797 4.12582C139.299 4.24279 139.649 4.3347 139.85 4.40154C140.067 4.46838 140.36 4.54357 140.727 4.62713C140.928 5.49606 141.028 6.69085 141.028 8.21149C141.028 8.32846 140.944 8.38695 140.777 8.38695C140.36 8.38695 140.142 8.3034 140.126 8.13629C140.042 7.63498 139.858 7.14203 139.574 6.65743C139.29 6.17283 138.906 5.77178 138.421 5.45429C137.937 5.12008 137.36 4.95298 136.692 4.95298C136.007 4.95298 135.472 5.08666 135.088 5.35403C134.703 5.60468 134.427 5.93053 134.26 6.33158C134.11 6.71592 134.035 7.12532 134.035 7.55979C134.035 7.97755 134.135 8.3953 134.336 8.81306C134.536 9.23082 134.829 9.58174 135.213 9.86581C135.731 10.2502 136.249 10.6094 136.767 10.9436C137.302 11.2778 137.853 11.6204 138.421 11.9713C138.956 12.3055 139.491 12.6815 140.025 13.0993C140.56 13.5003 141.003 13.9598 141.354 14.4779C141.722 14.9959 141.905 15.5975 141.905 16.2826C141.905 17.1682 141.663 17.962 141.178 18.6638C140.694 19.3489 140.05 19.892 139.248 20.2931C138.463 20.6774 137.602 20.8696 136.667 20.8696Z" fill="white"/>
<defs>
<clipPath id="clip0_4942_471">
<rect width="17.1494" height="17.1494" fill="white" transform="translate(0 3.92529)"/>
</clipPath>
</defs>
</svg>
