<svg width="662" height="102" viewBox="0 0 662 102" fill="none" xmlns="http://www.w3.org/2000/svg">
<g clip-path="url(#clip0_4023_6307)">
<path d="M21.5788 16.5957C23.9915 16.6458 26.3443 16.8356 28.5768 17.6866C30.379 18.3574 32.1511 19.4541 33.8981 20.9659C35.0243 21.9719 35.8956 22.7877 36.5163 23.4034C36.9217 23.7737 37.3121 24.1595 37.6774 24.5498C37.9177 24.8051 38.1484 25.0707 38.3737 25.336C38.7742 25.7715 39.25 26.3069 39.7956 26.9327C40.0883 27.2651 40.9609 28.3357 40.9763 28.3545C41.0363 28.2794 41.3625 27.9638 41.4225 27.8887C42.1983 26.9128 42.9294 26.0318 43.61 25.251C44.3409 24.355 45.0167 23.5692 45.6374 22.8985C46.4834 22.0024 47.6096 21.0762 49.0163 20.125C50.4229 19.1739 51.9698 18.3573 53.6618 17.6866C56.3397 16.7506 59.0328 16.5153 61.7858 16.9307C63.8132 17.2861 65.7558 17.9173 67.613 18.8233C70.5864 20.31 73.0196 22.4024 74.9118 25.1055C76.7389 27.7386 77.6501 30.8476 77.6501 34.4268C77.6501 37.2652 76.9743 39.7988 75.6227 42.0264C74.2011 44.2539 72.4436 46.2164 70.3513 47.9034C68.2589 49.5251 66.1613 50.9813 64.069 52.2627L60.0143 54.6963C58.6629 55.5072 57.5466 56.1525 56.6706 56.6231C55.7945 57.0286 54.9128 57.4994 54.0368 58.0401C53.1608 58.5106 52.0445 59.2565 50.6931 60.2676C48.936 61.5491 47.8199 63.0711 47.3493 64.8282C46.8087 66.5851 46.5378 68.0717 46.5378 69.2881C46.5378 73.0075 47.7248 75.876 50.0876 77.9034C52.4554 79.9307 55.3238 80.9424 58.7028 80.9424C67.5532 80.9423 73.1594 76.0761 75.5222 66.3496C75.9927 65.744 76.839 65.4386 78.0554 65.4385C79.1362 65.4385 79.677 65.6388 79.6774 66.044C79.6774 67.2604 79.4774 69.2187 79.072 71.9219C78.6665 74.5599 78.0202 77.9686 77.1442 82.1582C76.1982 82.2934 75.1872 82.5339 74.1061 82.8692C72.9598 83.1395 71.1324 83.5148 68.6345 83.9854C67.418 84.2557 65.8961 84.4961 64.0739 84.6963C62.2468 84.9666 60.5249 85.1026 58.903 85.1026C55.1186 85.1026 51.6392 84.3214 48.4655 82.7696C45.2217 81.1476 42.6181 78.95 40.6608 76.1817C40.2954 75.6611 39.9708 75.1249 39.6755 74.5743C39.3801 75.1199 39.0496 75.6561 38.6891 76.1817C36.7268 78.955 34.1283 81.1476 30.8845 82.7696C27.7107 84.3264 24.2314 85.1026 20.447 85.1026C18.8301 85.1026 17.103 84.9666 15.2809 84.6963C13.4588 84.4911 11.9368 84.2557 10.7204 83.9854C8.22258 83.5099 6.39503 83.1395 5.24872 82.8692C4.16762 82.5289 3.15661 82.2934 2.21063 82.1582C1.32966 77.9686 0.68837 74.5549 0.282895 71.9219C-0.122587 69.2187 -0.322574 67.2604 -0.322574 66.044C-0.322151 65.6388 0.218635 65.4385 1.2995 65.4385C2.51591 65.4385 3.36215 65.7439 3.8327 66.3496C6.20051 76.0762 11.8074 80.9424 20.6579 80.9424C24.0367 80.9423 26.9104 79.9307 29.2731 77.9034C31.6407 75.876 32.822 73.0023 32.822 69.2881C32.8219 68.0717 32.551 66.5852 32.0104 64.8282C31.5399 63.0711 30.4238 61.5491 28.6667 60.2676C27.3152 59.2565 26.1989 58.5106 25.3229 58.0401C24.4469 57.4995 23.5661 57.0286 22.6901 56.6231C21.8141 56.1475 20.697 55.5073 19.3454 54.6963L15.2907 52.2627C13.1984 50.9763 11.1008 49.5251 9.00848 47.9034C6.91105 46.2164 5.15366 44.254 3.737 42.0264C2.38539 39.7988 1.70965 37.2652 1.70965 34.4268C1.70967 30.8476 2.62579 27.7386 4.44793 25.1055C6.34016 22.4024 8.77328 20.31 11.7468 18.8233C14.7904 17.3365 18.0646 16.5957 21.5788 16.5957ZM38.3786 36.8448C38.3786 36.8448 33.9979 41.8592 32.4616 43.252C31.1238 44.4647 29.843 45.4947 28.8268 46.1104C27.8758 46.636 26.6747 47.162 25.2282 47.6875C25.994 48.163 26.7697 48.6436 27.5505 49.1241C29.713 50.4757 31.8762 51.9976 34.0388 53.6846C36.2012 55.3015 37.9932 57.1645 39.4098 59.2569C39.5049 59.3919 39.5952 59.5271 39.6852 59.6621C39.7753 59.522 39.8656 59.392 39.9606 59.2569C41.3773 57.1644 43.1692 55.3065 45.3317 53.6846C47.4942 51.9977 49.6565 50.4756 51.819 49.1241C52.3095 48.8238 52.7956 48.524 53.2761 48.2237C52.1699 48.0335 51.0938 47.7176 50.0427 47.2871V47.2823C48.1304 46.4963 46.918 45.7518 45.2263 44.3389C41.9834 41.6307 38.3918 36.8623 38.3786 36.8448ZM22.6823 21.3018C20.8525 21.3019 19.1696 21.8159 17.6628 22.8311L17.363 23.0411C16.6685 23.5239 16.0423 24.0785 15.4831 24.7012C14.7889 25.4479 14.1982 26.307 13.7097 27.2784C13.2057 28.3569 12.8629 29.5056 12.6813 30.7227C12.5589 31.4798 12.4968 32.2594 12.4968 33.0606C12.4968 35.1509 12.9645 37.0937 13.9108 38.8653C14.8477 40.6189 16.1197 42.0419 17.7233 43.1094C19.3612 44.1994 21.2123 44.7402 23.2389 44.7403C25.547 44.7402 28.1591 43.5883 29.9333 41.9639C30.7818 41.187 32.5389 39.2687 34.0358 37.6026C34.795 36.7576 35.5041 35.9586 36.0231 35.3711C36.2826 35.0774 36.4948 34.8358 36.6423 34.668C36.7158 34.5843 36.774 34.5193 36.8132 34.4746C36.8326 34.4524 36.847 34.4345 36.8571 34.4229C36.862 34.4173 36.8662 34.4131 36.8688 34.4102C36.87 34.4088 36.8711 34.4071 36.8718 34.4063H36.8727V34.4053L37.5261 33.6592L36.9147 32.8789L35.238 30.7344L35.2292 30.7227L35.2194 30.712L34.196 29.4659L32.6745 27.6153L32.6608 27.5977L32.6462 27.5811L32.1647 27.0489C31.0241 25.8142 29.7601 24.6256 28.3766 23.4825C26.6562 22.0611 24.749 21.3018 22.6823 21.3018ZM56.9626 20.9043C54.6544 20.9044 52.0425 22.0562 50.2682 23.6807C49.4197 24.4577 47.6626 26.376 46.1657 28.042C45.4065 28.887 44.6974 29.686 44.1784 30.2735C43.9189 30.5673 43.7067 30.8088 43.5593 30.9766C43.4857 31.0603 43.4275 31.1253 43.3884 31.17C43.3688 31.1922 43.3545 31.2102 43.3444 31.2217C43.3395 31.2273 43.3353 31.2315 43.3327 31.2344C43.3315 31.2359 43.3304 31.2376 43.3298 31.2383H43.3288V31.2393L42.6755 31.9854L43.2868 32.7657L44.9636 34.9102L44.9723 34.9219L44.9821 34.9327L46.0056 36.1788L47.527 38.0293L47.5407 38.0469L47.5554 38.0635L48.0368 38.5957C49.1775 39.8305 50.4413 41.019 51.8249 42.1621C53.5454 43.5836 55.4525 44.3427 57.5192 44.3428C59.3491 44.3428 61.0319 43.8287 62.5388 42.8135L62.8386 42.6036C64.3806 41.5314 65.5894 40.1087 66.4645 38.3614L66.4782 38.3321C67.301 36.5718 67.7047 34.6494 67.7048 32.584C67.7047 30.4936 67.2371 28.5511 66.2907 26.7793C65.3538 25.0256 64.082 23.6028 62.4782 22.5352C60.8403 21.4451 58.9894 20.9044 56.9626 20.9043Z" fill="white"/>
</g>
<path d="M144.662 89.9264C142.792 89.9264 140.804 89.7705 138.699 89.4587C136.594 89.2248 134.841 88.952 133.437 88.6402C130.553 88.0945 128.448 87.6658 127.123 87.354C125.876 86.9642 124.707 86.6914 123.615 86.5355C122.602 81.7025 121.862 77.7659 121.394 74.7258C120.926 71.6077 120.692 69.3471 120.692 67.9439C120.692 67.4762 121.316 67.2424 122.563 67.2424C123.966 67.2424 124.941 67.5932 125.486 68.2947C128.215 79.5198 134.685 85.1323 144.896 85.1323C148.794 85.1323 152.107 83.9631 154.835 81.6245C157.564 79.2859 158.928 75.973 158.928 71.6856C158.928 70.2825 158.616 68.5675 157.992 66.5408C157.447 64.514 156.16 62.7601 154.134 61.279C152.575 60.1098 151.288 59.2523 150.275 58.7066C149.262 58.083 148.248 57.5374 147.235 57.0696C146.222 56.524 144.935 55.7834 143.376 54.848L138.699 52.0417C136.283 50.5607 133.866 48.8847 131.45 47.0138C129.033 45.065 127.006 42.8044 125.369 40.232C123.81 37.6596 123.031 34.7364 123.031 31.4624C123.031 27.331 124.083 23.7452 126.188 20.7051C128.371 17.587 131.177 15.1705 134.607 13.4555C138.115 11.7406 141.895 10.8831 145.949 10.8831C147.664 10.8831 149.262 11.0001 150.743 11.2339C152.302 11.3898 153.588 11.5847 154.601 11.8185C156.94 12.3642 158.577 12.7929 159.512 13.1048C160.526 13.4166 161.89 13.7673 163.605 14.1571C164.54 18.2106 165.008 23.7842 165.008 30.8778C165.008 31.4235 164.618 31.6963 163.839 31.6963C161.89 31.6963 160.876 31.3065 160.799 30.527C160.409 28.1885 159.551 25.8889 158.226 23.6283C156.901 21.3677 155.108 19.4968 152.847 18.0157C150.587 16.4567 147.897 15.6772 144.779 15.6772C141.583 15.6772 139.089 16.3008 137.296 17.548C135.503 18.7173 134.217 20.2374 133.437 22.1082C132.736 23.9011 132.385 25.8109 132.385 27.8377C132.385 29.7865 132.853 31.7353 133.788 33.6841C134.724 35.6329 136.088 37.2699 137.881 38.595C140.297 40.3879 142.714 42.0639 145.13 43.6229C147.625 45.182 150.197 46.78 152.847 48.417C155.342 49.976 157.836 51.7299 160.331 53.6787C162.825 55.5496 164.891 57.6933 166.528 60.1098C168.243 62.5263 169.1 65.3326 169.1 68.5286C169.1 72.66 167.97 76.3627 165.709 79.6367C163.449 82.8328 160.448 85.3662 156.706 87.237C153.042 89.0299 149.028 89.9264 144.662 89.9264Z" fill="white"/>
<path d="M175.142 90.2843C174.922 90.0641 174.812 89.6511 174.812 89.0454C174.812 88.2746 174.922 87.8891 175.142 87.8891C175.638 87.8891 176.299 87.8341 177.125 87.7239C177.951 87.5587 178.722 87.3385 179.437 87.0632C180.153 86.7879 180.566 86.5126 180.676 86.2373C180.896 85.4664 181.034 84.4753 181.089 83.2639C181.199 82.0525 181.254 80.5934 181.254 78.8864V46.8401C181.254 45.1331 181.199 43.674 181.089 42.4626C181.034 41.1962 180.896 40.205 180.676 39.4892C180.566 39.1588 180.153 38.8835 179.437 38.6633C178.722 38.388 177.951 38.1677 177.125 38.0025C176.299 37.8373 175.638 37.7548 175.142 37.7548C174.922 37.7548 174.812 37.3968 174.812 36.681C174.812 36.0203 174.922 35.5798 175.142 35.3595L185.054 35.7725C185.494 35.7725 186.513 35.745 188.11 35.6899C189.706 35.5798 191.881 35.4697 194.635 35.3595C194.745 35.8 194.8 36.213 194.8 36.5984C194.8 37.3693 194.69 37.7548 194.469 37.7548C194.139 37.7548 193.561 37.8649 192.735 38.0851C191.909 38.2503 191.138 38.4706 190.422 38.7459C189.706 38.9661 189.293 39.2139 189.183 39.4892C188.688 41.3613 188.44 43.9218 188.44 47.1704V78.556C188.44 81.7497 188.688 84.3101 189.183 86.2373C189.293 86.4575 189.706 86.7053 190.422 86.9806C191.138 87.2559 191.909 87.4762 192.735 87.6413C193.561 87.8065 194.139 87.8891 194.469 87.8891C194.69 87.8891 194.8 88.3021 194.8 89.128C194.8 89.4584 194.745 89.8438 194.635 90.2843C191.881 90.1742 189.706 90.0916 188.11 90.0366C186.513 89.9264 185.494 89.8714 185.054 89.8714L175.142 90.2843Z" fill="white"/>
<path d="M198.069 90.2843C197.793 90.009 197.656 89.5961 197.656 89.0454C197.656 88.2746 197.793 87.8891 198.069 87.8891C198.619 87.8891 199.335 87.8065 200.216 87.6413C201.097 87.4762 201.951 87.2559 202.776 86.9806C203.602 86.7053 204.181 86.4024 204.511 86.0721C205.447 85.0809 205.943 82.6857 205.998 78.8864C206.108 72.4992 206.218 66.7727 206.328 61.7069C206.493 56.5861 206.631 52.4014 206.741 49.1527C206.851 45.8489 206.906 43.729 206.906 42.793C206.906 41.3063 206.796 40.205 206.576 39.4892C206.466 39.1588 205.97 38.8835 205.089 38.6633C204.263 38.388 203.355 38.1677 202.363 38.0025C201.372 37.8373 200.601 37.7548 200.051 37.7548C199.831 37.7548 199.72 37.3693 199.72 36.5984C199.72 35.9928 199.831 35.5798 200.051 35.3595C201.372 35.4146 202.832 35.4972 204.428 35.6073C206.025 35.7174 207.649 35.7725 209.301 35.7725C210.348 35.7725 211.476 35.745 212.688 35.6899C213.954 35.5798 215.358 35.4697 216.9 35.3595C217.34 36.5709 222.792 50.3641 233.254 76.739C233.364 76.8491 233.474 76.9042 233.584 76.9042C233.804 76.9042 233.942 76.794 233.997 76.5738C236.695 70.2416 239.118 64.4601 241.265 59.2291C243.413 53.9982 245.285 49.3454 246.881 45.2708L250.185 35.3595C251.947 35.4697 253.379 35.5523 254.48 35.6073C255.636 35.6624 256.49 35.6899 257.041 35.6899C258.747 35.6899 260.372 35.6624 261.914 35.6073C263.455 35.5523 264.914 35.4697 266.291 35.3595C266.456 35.8551 266.539 36.2681 266.539 36.5984C266.539 37.3693 266.401 37.7548 266.126 37.7548H265.961C265.355 37.7548 264.557 37.9475 263.565 38.3329C262.574 38.6633 261.831 39.0212 261.335 39.4066C260.675 39.9022 260.344 41.7468 260.344 44.9404L261.088 78.4734C261.198 81.6671 261.611 84.1999 262.327 86.0721C262.492 86.4024 262.932 86.7053 263.648 86.9806C264.364 87.2559 265.135 87.4762 265.961 87.6413C266.842 87.8065 267.475 87.8891 267.86 87.8891C268.081 87.8891 268.191 88.2746 268.191 89.0454C268.191 89.4309 268.136 89.8438 268.025 90.2843C265.272 90.1742 263.07 90.0916 261.418 90.0366C259.821 89.9264 258.747 89.8714 258.197 89.8714L248.286 90.2843C248.065 90.0641 247.955 89.6236 247.955 88.9628C247.955 88.247 248.065 87.8891 248.286 87.8891C248.836 87.8891 249.662 87.7515 250.763 87.4762C251.92 87.2008 252.746 86.9255 253.241 86.6502C253.902 86.2097 254.232 85.0259 254.232 83.0987V78.7212L253.241 49.6482C253.241 49.0426 253.159 48.3818 252.993 47.666C252.883 46.8951 252.746 46.2344 252.58 45.6838C252.415 45.0781 252.223 44.7752 252.002 44.7752C251.892 44.7752 251.755 44.9679 251.589 45.3534L234.327 86.6502C233.281 89.0179 232.262 90.2018 231.271 90.2018C231.216 90.2018 230.968 90.1467 230.528 90.0366L211.614 41.967C211.449 49.7308 211.256 56.6687 211.036 62.7806C210.816 68.8375 210.623 73.7105 210.458 77.3997C210.348 81.0889 210.292 83.2364 210.292 83.842C210.292 84.8332 210.458 85.549 210.788 85.9895C211.008 86.2648 211.559 86.5676 212.44 86.898C213.321 87.1733 214.229 87.4211 215.166 87.6413C216.157 87.8065 216.817 87.8891 217.148 87.8891C217.368 87.8891 217.478 88.3021 217.478 89.128C217.478 89.4584 217.423 89.8438 217.313 90.2843C214.56 90.1742 212.385 90.0916 210.788 90.0366C209.191 89.9264 208.173 89.8714 207.732 89.8714L198.069 90.2843Z" fill="white"/>
<path d="M271.459 90.2843C271.184 90.009 271.047 89.5961 271.047 89.0454C271.047 88.2746 271.184 87.8891 271.459 87.8891C272.01 87.8891 272.726 87.8065 273.607 87.6413C274.488 87.4762 275.341 87.2559 276.167 86.9806C276.993 86.7053 277.571 86.4024 277.902 86.0721C278.838 85.0809 279.333 82.6857 279.388 78.8864C279.499 72.4992 279.609 66.7727 279.719 61.7069C279.884 56.5861 280.022 52.4014 280.132 49.1527C280.242 45.8489 280.297 43.729 280.297 42.793C280.297 41.3063 280.187 40.205 279.967 39.4892C279.856 39.1588 279.361 38.8835 278.48 38.6633C277.654 38.388 276.745 38.1677 275.754 38.0025C274.763 37.8373 273.992 37.7548 273.442 37.7548C273.221 37.7548 273.111 37.3693 273.111 36.5984C273.111 35.9928 273.221 35.5798 273.442 35.3595C274.763 35.4146 276.222 35.4972 277.819 35.6073C279.416 35.7174 281.04 35.7725 282.692 35.7725C283.738 35.7725 284.867 35.745 286.079 35.6899C287.345 35.5798 288.749 35.4697 290.291 35.3595C290.731 36.5709 296.183 50.3641 306.644 76.739C306.755 76.8491 306.865 76.9042 306.975 76.9042C307.195 76.9042 307.333 76.794 307.388 76.5738C310.086 70.2416 312.509 64.4601 314.656 59.2291C316.803 53.9982 318.676 49.3454 320.272 45.2708L323.576 35.3595C325.338 35.4697 326.77 35.5523 327.871 35.6073C329.027 35.6624 329.881 35.6899 330.431 35.6899C332.138 35.6899 333.763 35.6624 335.304 35.6073C336.846 35.5523 338.305 35.4697 339.682 35.3595C339.847 35.8551 339.93 36.2681 339.93 36.5984C339.93 37.3693 339.792 37.7548 339.517 37.7548H339.351C338.746 37.7548 337.947 37.9475 336.956 38.3329C335.965 38.6633 335.222 39.0212 334.726 39.4066C334.066 39.9022 333.735 41.7468 333.735 44.9404L334.478 78.4734C334.589 81.6671 335.002 84.1999 335.717 86.0721C335.883 86.4024 336.323 86.7053 337.039 86.9806C337.755 87.2559 338.526 87.4762 339.351 87.6413C340.232 87.8065 340.866 87.8891 341.251 87.8891C341.471 87.8891 341.582 88.2746 341.582 89.0454C341.582 89.4309 341.526 89.8438 341.416 90.2843C338.663 90.1742 336.461 90.0916 334.809 90.0366C333.212 89.9264 332.138 89.8714 331.588 89.8714L321.676 90.2843C321.456 90.0641 321.346 89.6236 321.346 88.9628C321.346 88.247 321.456 87.8891 321.676 87.8891C322.227 87.8891 323.053 87.7515 324.154 87.4762C325.311 87.2008 326.137 86.9255 326.632 86.6502C327.293 86.2097 327.623 85.0259 327.623 83.0987V78.7212L326.632 49.6482C326.632 49.0426 326.549 48.3818 326.384 47.666C326.274 46.8951 326.137 46.2344 325.971 45.6838C325.806 45.0781 325.613 44.7752 325.393 44.7752C325.283 44.7752 325.145 44.9679 324.98 45.3534L307.718 86.6502C306.672 89.0179 305.653 90.2018 304.662 90.2018C304.607 90.2018 304.359 90.1467 303.919 90.0366L285.005 41.967C284.84 49.7308 284.647 56.6687 284.427 62.7806C284.206 68.8375 284.014 73.7105 283.849 77.3997C283.738 81.0889 283.683 83.2364 283.683 83.842C283.683 84.8332 283.849 85.549 284.179 85.9895C284.399 86.2648 284.95 86.5676 285.831 86.898C286.712 87.1733 287.62 87.4211 288.556 87.6413C289.547 87.8065 290.208 87.8891 290.539 87.8891C290.759 87.8891 290.869 88.3021 290.869 89.128C290.869 89.4584 290.814 89.8438 290.704 90.2843C287.951 90.1742 285.776 90.0916 284.179 90.0366C282.582 89.9264 281.563 89.8714 281.123 89.8714L271.459 90.2843Z" fill="white"/>
<path d="M352.201 82.4999C347.025 77.1038 344.437 70.5238 344.437 62.76C344.437 58.9056 345.126 55.299 346.502 51.9402C347.879 48.5264 349.751 45.553 352.119 43.0201C354.541 40.4322 357.35 38.4224 360.543 36.9908C363.737 35.5041 367.151 34.7607 370.785 34.7607C374.419 34.7607 377.833 35.5041 381.026 36.9908C384.22 38.4224 387.028 40.4322 389.451 43.0201C391.874 45.553 393.773 48.5264 395.15 51.9402C396.527 55.299 397.215 58.9056 397.215 62.76C397.215 70.5238 394.627 77.1038 389.451 82.4999C385.927 86.2441 381.935 88.722 377.475 89.9333C373.015 91.1998 368.555 91.1998 364.095 89.9333C359.69 88.722 355.725 86.2441 352.201 82.4999ZM372.106 87.1252C375.63 87.1252 378.714 85.9688 381.357 83.6562C384 81.3987 385.927 78.5905 387.138 75.2317C388.405 71.8178 389.038 68.1837 389.038 64.3293C389.038 59.9794 388.322 55.8221 386.891 51.8576C385.459 47.9482 383.229 44.6995 380.201 42.1116C377.172 39.5236 373.621 38.2297 369.546 38.2297C366.077 38.2297 363.076 39.3034 360.543 41.4508C358.01 43.5432 356.056 46.3239 354.679 49.7928C353.303 53.2067 352.614 56.9234 352.614 60.9429C352.614 65.2929 353.33 69.4501 354.762 73.4146C356.193 77.324 358.423 80.6002 361.452 83.2432C364.48 85.8312 368.032 87.1252 372.106 87.1252Z" fill="white"/>
<path d="M449.792 90.2843C442.138 90.2843 435.448 86.3199 429.722 78.3909C429.281 77.7852 428.703 76.9592 427.987 75.913C427.327 74.8669 426.088 73.0223 424.271 70.3793C423.39 69.1128 422.591 68.0666 421.875 67.2407C421.215 66.3597 420.416 65.699 419.48 65.2585C418.599 64.818 417.388 64.5977 415.846 64.5977C415.24 64.5977 414.745 64.6803 414.359 64.8455C414.029 65.0107 413.864 65.3961 413.864 66.0018V78.1431C413.864 81.7772 414.084 84.1724 414.525 85.3287C414.745 85.7692 415.268 86.1822 416.094 86.5676C416.975 86.9531 417.911 87.2559 418.902 87.4762C419.893 87.6413 420.609 87.7239 421.05 87.7239C421.27 87.7239 421.38 88.1094 421.38 88.8803C421.38 89.2657 421.325 89.6787 421.215 90.1192C418.462 90.009 416.176 89.8989 414.359 89.7888C412.597 89.6787 411.303 89.6511 410.478 89.7062L400.401 90.1192C400.236 89.954 400.153 89.4584 400.153 88.6325C400.153 87.9167 400.236 87.5588 400.401 87.5588C400.952 87.5588 401.612 87.4762 402.383 87.311C403.209 87.1458 403.98 86.9531 404.696 86.7328C405.467 86.4575 405.935 86.1547 406.1 85.8243C406.485 85.2186 406.678 82.6307 406.678 78.0605V46.8401C406.678 45.2432 406.623 43.8392 406.513 42.6278C406.458 41.4164 406.32 40.4528 406.1 39.737C405.99 39.4066 405.549 39.1038 404.779 38.8285C404.063 38.5532 403.264 38.3329 402.383 38.1677C401.557 38.0025 400.897 37.9199 400.401 37.9199C400.181 37.9199 400.071 37.5896 400.071 36.9288C400.071 36.213 400.181 35.745 400.401 35.5247L410.312 35.6899C411.909 35.745 413.864 35.7174 416.176 35.6073C418.489 35.4421 420.416 35.3595 421.958 35.3595C424.931 35.3595 427.767 35.9377 430.465 37.094C433.218 38.2503 435.448 39.9573 437.155 42.2148C438.917 44.4724 439.798 47.2255 439.798 50.4742C439.798 52.7868 438.917 55.2096 437.155 57.7424C435.448 60.2753 433.108 62.23 430.135 63.6066C429.584 63.8268 429.419 64.1021 429.639 64.4325C432.337 70.159 435.503 75.0045 439.138 78.969C444.424 84.7506 448.718 87.6413 452.022 87.6413C452.187 87.9717 452.27 88.3572 452.27 88.7977C452.27 89.2932 452.187 89.7062 452.022 90.0366C451.472 90.2018 450.728 90.2843 449.792 90.2843ZM421.05 61.0462H423.114C424.436 61.0462 425.785 60.6057 427.161 59.7247C428.593 58.8437 429.777 57.6048 430.713 56.008C431.704 54.4112 432.2 52.5666 432.2 50.4742C432.2 42.8205 428.345 38.9937 420.637 38.9937C418.104 38.9937 416.176 39.1864 414.855 39.5718C414.359 39.6819 414.057 40.5905 413.946 42.2974C413.891 43.9493 413.864 46.0692 413.864 48.6571V58.651C413.864 60.2478 416.259 61.0462 421.05 61.0462Z" fill="white"/>
<path d="M470.736 90.656C470.516 90.4358 470.406 90.0228 470.406 89.4171C470.406 88.6463 470.516 88.2608 470.736 88.2608C471.232 88.2608 471.892 88.2058 472.718 88.0956C473.544 87.9304 474.315 87.7102 475.031 87.4349C475.747 87.1596 476.16 86.8843 476.27 86.6089C476.49 85.8381 476.628 84.8469 476.683 83.6356C476.793 82.4242 476.848 80.965 476.848 79.2581V49.3592C476.848 44.5688 476.6 41.733 476.105 40.852C475.719 40.0261 472.746 39.6131 467.184 39.6131C465.092 39.6131 463.468 39.8059 462.311 40.1913C461.155 40.5217 460.274 41.2099 459.668 42.2561C459.063 43.3023 458.485 44.8716 457.934 46.964C457.824 47.2393 457.549 47.3769 457.108 47.3769C456.172 47.3769 455.511 47.1842 455.126 46.7988L456.695 34.9879C457.906 35.2632 458.98 35.4834 459.916 35.6486C460.852 35.8138 461.678 35.8964 462.394 35.8964C466.359 35.8964 469.855 35.9515 472.883 36.0616C475.912 36.1717 478.445 36.2268 480.482 36.2268C484.722 36.2268 488.356 36.1717 491.384 36.0616C494.468 35.9515 496.891 35.8964 498.653 35.8964C499.368 35.8964 500.194 35.8138 501.13 35.6486C502.067 35.4834 503.14 35.2632 504.352 34.9879L505.921 46.7988C505.535 47.1842 504.875 47.3769 503.939 47.3769C503.498 47.3769 503.223 47.2393 503.113 46.964C502.617 44.8716 502.039 43.3023 501.378 42.2561C500.773 41.2099 499.892 40.5217 498.735 40.1913C497.579 39.8059 495.955 39.6131 493.862 39.6131C488.081 39.6131 485.052 40.0261 484.777 40.852C484.281 42.559 484.034 45.3121 484.034 49.1114V78.9277C484.034 82.1214 484.281 84.6818 484.777 86.6089C484.887 86.8292 485.3 87.077 486.016 87.3523C486.732 87.6276 487.503 87.8479 488.328 88.013C489.154 88.1782 489.733 88.2608 490.063 88.2608C490.283 88.2608 490.393 88.6738 490.393 89.4997C490.393 89.8301 490.338 90.2155 490.228 90.656C487.475 90.5459 485.3 90.4633 483.703 90.4083C482.106 90.2981 481.088 90.2431 480.647 90.2431L470.736 90.656Z" fill="white"/>
<path d="M509.107 90.3256C508.887 90.1054 508.777 89.6924 508.777 89.0867C508.777 88.3159 508.887 87.9304 509.107 87.9304C509.768 87.9304 510.621 87.7928 511.668 87.5175C512.714 87.2421 513.43 86.8567 513.815 86.3611C514.421 85.5903 515.026 84.5716 515.632 83.3052C516.293 82.0387 516.981 80.4695 517.697 78.5973L532.068 41.678C532.399 40.852 532.591 40.2739 532.646 39.9435C532.756 39.6131 532.839 39.3378 532.894 39.1176C533.004 38.8422 533.197 38.4017 533.472 37.7961C533.858 37.0252 534.243 36.4195 534.629 35.979C535.014 35.5385 535.647 35.3182 536.528 35.3182L537.272 35.566L553.79 79.1755C554.286 80.4419 554.726 81.5707 555.112 82.5618C555.552 83.553 555.91 84.4064 556.186 85.1222C556.406 85.6729 556.874 86.1684 557.59 86.6089C558.361 86.9944 559.131 87.3247 559.902 87.6001C560.728 87.8203 561.361 87.9304 561.802 87.9304C562.022 87.9304 562.132 88.4535 562.132 89.4997C562.132 89.6098 562.105 89.7475 562.05 89.9127C562.05 90.0228 562.022 90.1605 561.967 90.3256C559.214 90.2155 557.067 90.1329 555.525 90.0779C554.038 89.9677 553.157 89.9127 552.882 89.9127L543.301 90.3256C543.081 90.1054 542.971 89.6649 542.971 89.0041C543.026 88.2883 543.163 87.9304 543.384 87.9304C544.044 87.9304 544.87 87.7928 545.861 87.5175C546.852 87.2421 547.431 86.8842 547.596 86.4437C547.651 86.2235 547.678 86.0032 547.678 85.783C547.733 85.5627 547.761 85.3425 547.761 85.1222C547.761 84.4064 547.678 83.5805 547.513 82.6444C547.348 81.6533 547.155 80.8824 546.935 80.3318L543.218 70.0902C543.053 69.8699 542.888 69.7598 542.723 69.7598C540.575 69.5946 538.483 69.512 536.446 69.512C535.014 69.512 533.417 69.5671 531.655 69.6772C529.948 69.7323 528.049 69.8149 525.956 69.925L525.543 70.1728L521.992 79.2581C521.441 80.6347 521.056 81.791 520.835 82.727C520.67 83.6631 520.588 84.4064 520.588 84.9571C520.588 85.7279 520.808 86.2786 521.248 86.6089C521.744 86.9944 522.542 87.3247 523.644 87.6001C524.745 87.8203 525.543 87.9304 526.039 87.9304C526.204 87.9304 526.287 88.2608 526.287 88.9216C526.342 89.5823 526.314 90.0503 526.204 90.3256L517.697 89.9127C516.155 89.8026 514.641 89.8301 513.154 89.9953C511.723 90.1054 510.374 90.2155 509.107 90.3256ZM533.555 65.5475C536.033 65.5475 538.538 65.4649 541.071 65.2998L541.319 64.8868L534.629 46.6336L527.526 65.052C527.526 65.2722 527.581 65.3823 527.691 65.3823C529.122 65.4374 530.306 65.4925 531.242 65.5475C532.233 65.5475 533.004 65.5475 533.555 65.5475Z" fill="white"/>
<path d="M603.394 90.3257C600.531 90.3257 596.071 90.243 590.014 90.0779C586.986 89.9677 584.233 89.8851 581.755 89.8301C579.277 89.775 577.102 89.775 575.23 89.8301L565.236 90.0779C565.071 89.9127 564.988 89.4722 564.988 88.7564C564.988 88.0405 565.071 87.6826 565.236 87.6826C565.787 87.6826 566.447 87.6001 567.218 87.4349C568.044 87.2697 568.815 87.077 569.531 86.8567C570.302 86.5814 570.77 86.2786 570.935 85.9482C571.32 85.3425 571.513 82.7546 571.513 78.1844V46.964C571.513 43.3298 571.32 40.8245 570.935 39.4479C570.825 39.1176 570.412 38.8422 569.696 38.622C568.98 38.3467 568.209 38.1264 567.383 37.9612C566.557 37.7961 565.897 37.7135 565.401 37.7135C565.181 37.7135 565.071 37.3556 565.071 36.6397C565.071 35.979 565.181 35.5385 565.401 35.3182C565.897 35.3182 566.723 35.3733 567.879 35.4834C569.09 35.5385 570.384 35.6211 571.761 35.7312C573.137 35.7863 574.321 35.8138 575.312 35.8138C577.074 35.8138 578.836 35.7587 580.598 35.6486C582.36 35.4834 583.792 35.3733 584.893 35.3182C585.003 35.7587 585.059 36.1717 585.059 36.5571C585.059 37.328 584.948 37.7135 584.728 37.7135C584.398 37.7135 583.82 37.8236 582.994 38.0438C582.168 38.209 581.397 38.4293 580.681 38.7046C579.965 38.9248 579.552 39.1726 579.442 39.4479C578.947 41.3201 578.699 43.8805 578.699 47.1291V78.267C578.699 81.1853 578.947 83.608 579.442 85.5352C579.607 86.0858 581.479 86.3611 585.059 86.3611H589.023C594.089 86.3611 597.558 85.8931 599.43 84.9571C600.256 84.5166 601.164 83.553 602.155 82.0663C603.202 80.5245 604.028 78.7075 604.633 76.6151C604.743 76.2847 605.129 76.1195 605.79 76.1195C606.836 76.1195 607.524 76.2847 607.854 76.6151C607.689 77.0556 607.414 77.7439 607.028 78.6799C606.698 79.5609 606.368 80.4695 606.037 81.4055C605.707 82.3416 605.432 83.14 605.211 83.8007C604.881 84.7919 604.523 85.9206 604.138 87.1871C603.752 88.4535 603.504 89.4997 603.394 90.3257Z" fill="white"/>
<path d="M637.536 89.9264C635.665 89.9264 633.677 89.7705 631.573 89.4587C629.468 89.2248 627.714 88.952 626.311 88.6402C623.427 88.0945 621.322 87.6658 619.997 87.354C618.75 86.9642 617.58 86.6914 616.489 86.5355C615.476 81.7025 614.735 77.7659 614.267 74.7258C613.8 71.6077 613.566 69.3471 613.566 67.944C613.566 67.4762 614.189 67.2424 615.437 67.2424C616.84 67.2424 617.814 67.5932 618.36 68.2947C621.088 79.5198 627.558 85.1323 637.77 85.1323C641.667 85.1323 644.98 83.9631 647.709 81.6245C650.437 79.286 651.801 75.973 651.801 71.6856C651.801 70.2825 651.489 68.5676 650.866 66.5408C650.32 64.5141 649.034 62.7601 647.007 61.2791C645.448 60.1098 644.162 59.2523 643.148 58.7066C642.135 58.083 641.122 57.5374 640.108 57.0697C639.095 56.524 637.809 55.7835 636.25 54.848L631.573 52.0418C629.156 50.5607 626.74 48.8847 624.323 47.0139C621.907 45.0651 619.88 42.8045 618.243 40.232C616.684 37.6596 615.904 34.7364 615.904 31.4625C615.904 27.331 616.957 23.7452 619.061 20.7051C621.244 17.587 624.05 15.1705 627.48 13.4556C630.988 11.7406 634.769 10.8831 638.822 10.8831C640.537 10.8831 642.135 11.0001 643.616 11.2339C645.175 11.3898 646.461 11.5847 647.475 11.8186C649.813 12.3642 651.45 12.793 652.386 13.1048C653.399 13.4166 654.763 13.7674 656.478 14.1571C657.414 18.2106 657.881 23.7842 657.881 30.8778C657.881 31.4235 657.492 31.6963 656.712 31.6963C654.763 31.6963 653.75 31.3065 653.672 30.527C653.282 28.1885 652.425 25.8889 651.1 23.6283C649.774 21.3677 647.981 19.4968 645.721 18.0157C643.46 16.4567 640.771 15.6772 637.653 15.6772C634.457 15.6772 631.962 16.3008 630.169 17.548C628.377 18.7173 627.09 20.2374 626.311 22.1082C625.609 23.9011 625.259 25.8109 625.259 27.8377C625.259 29.7865 625.726 31.7353 626.662 33.6841C627.597 35.6329 628.961 37.2699 630.754 38.5951C633.171 40.3879 635.587 42.0639 638.004 43.623C640.498 45.182 643.07 46.78 645.721 48.417C648.215 49.976 650.71 51.73 653.204 53.6788C655.699 55.5496 657.764 57.6933 659.401 60.1098C661.116 62.5263 661.974 65.3326 661.974 68.5286C661.974 72.66 660.844 76.3628 658.583 79.6367C656.322 82.8328 653.321 85.3662 649.579 87.2371C645.916 89.0299 641.901 89.9264 637.536 89.9264Z" fill="white"/>
<defs>
<clipPath id="clip0_4023_6307">
<rect width="80" height="80" fill="white" transform="translate(0 10.8831)"/>
</clipPath>
</defs>
</svg>
