<svg width="65" height="66" viewBox="0 0 65 66" fill="none" xmlns="http://www.w3.org/2000/svg">
<g clip-path="url(#clip0_4193_1406)">
<path d="M17.3923 5.24749C19.3371 5.28784 21.2335 5.44147 23.033 6.12738C24.4854 6.66804 25.9139 7.55148 27.322 8.76995C28.2298 9.5809 28.9321 10.2385 29.4324 10.7348C29.7591 11.0333 30.0735 11.344 30.3679 11.6586C30.5616 11.8644 30.7479 12.0786 30.9294 12.2924C31.2522 12.6434 31.6353 13.0753 32.075 13.5795C32.3115 13.8482 33.0178 14.7136 33.0271 14.725C33.0758 14.6643 33.3381 14.4105 33.3865 14.35C34.0117 13.5634 34.6005 12.8534 35.1492 12.2241C35.7383 11.5018 36.2836 10.8682 36.7839 10.3276C37.4657 9.60544 38.373 8.85872 39.5066 8.09222C40.6404 7.32561 41.888 6.66804 43.2517 6.12738C45.4102 5.37298 47.5806 5.18316 49.7996 5.518C51.4336 5.80446 52.999 6.31313 54.4958 7.04339C56.8925 8.24172 58.8535 9.92808 60.3787 12.1069C61.8514 14.2292 62.5857 16.7347 62.5857 19.6196C62.5857 21.9072 62.0413 23.9491 60.9519 25.7446C59.806 27.54 58.3894 29.1212 56.7029 30.4809C55.0164 31.7881 53.3259 32.9627 51.6394 33.9955L48.3718 35.9565C47.2827 36.61 46.3825 37.13 45.6765 37.5092C44.9704 37.836 44.2596 38.216 43.5535 38.6518C42.8474 39.0311 41.9473 39.6318 40.8582 40.4467C39.4421 41.4795 38.5431 42.7065 38.1638 44.1225C37.7281 45.5385 37.5096 46.7369 37.5095 47.7172C37.5095 50.7151 38.4664 53.0275 40.3708 54.6616C42.2792 56.2955 44.5909 57.1108 47.3142 57.1108C54.4477 57.1108 58.9664 53.1887 60.8708 45.3491C61.2501 44.8608 61.9324 44.6147 62.9128 44.6147C63.7841 44.6147 64.2203 44.7763 64.2205 45.103C64.2205 46.0834 64.059 47.6615 63.7322 49.8403C63.4054 51.9666 62.8845 54.7142 62.1785 58.0912C61.4159 58.2002 60.6008 58.3942 59.7292 58.6645C58.8053 58.8824 57.3323 59.1847 55.3191 59.5639C54.3387 59.7818 53.1119 59.9758 51.6433 60.1371C50.1707 60.355 48.7825 60.4633 47.4753 60.4633C44.4252 60.4633 41.6212 59.8341 39.0632 58.5834C36.4488 57.2762 34.3508 55.505 32.7732 53.2739C32.4787 52.8542 32.2163 52.4218 31.9783 51.978C31.7402 52.4178 31.4739 52.8502 31.1833 53.2739C29.6018 55.509 27.5077 57.2762 24.8933 58.5834C22.3353 59.8382 19.5305 60.4633 16.4802 60.4633C15.177 60.4633 13.7848 60.355 12.3162 60.1371C10.8476 59.9717 9.62076 59.7818 8.64038 59.5639C6.62758 59.1807 5.15513 58.8823 4.2312 58.6645C3.3598 58.3902 2.54447 58.2002 1.78198 58.0912C1.07189 54.7143 0.555092 51.9625 0.228271 49.8403C-0.0985466 47.6615 -0.26001 46.0834 -0.26001 45.103C-0.259833 44.7763 0.17627 44.6147 1.04761 44.6147C2.02772 44.6147 2.70934 44.8611 3.08862 45.3491C4.99708 53.1887 9.51664 57.1108 16.6501 57.1108C19.3735 57.1107 21.6892 56.2955 23.5935 54.6616C25.502 53.0275 26.4548 50.711 26.4548 47.7172C26.4548 46.7369 26.2362 45.5385 25.8005 44.1225C25.4212 42.7064 24.5213 41.4796 23.1052 40.4467C22.016 39.6318 21.1159 39.031 20.4099 38.6518C19.7039 38.2161 18.9939 37.836 18.2878 37.5092C17.5818 37.1259 16.6818 36.61 15.5925 35.9565L12.325 33.9955C10.6384 32.9586 8.94704 31.7882 7.2605 30.4809C5.57017 29.1213 4.15418 27.5398 3.01245 25.7446C1.92308 23.9491 1.37868 21.9072 1.37866 19.6196C1.37866 16.7347 2.11703 14.2292 3.58569 12.1069C5.11073 9.92827 7.07112 8.2417 9.46753 7.04339C11.9207 5.84506 14.5599 5.24749 17.3923 5.24749ZM30.9333 21.5678C30.9333 21.5678 27.4018 25.6106 26.1638 26.7328C25.0857 27.7101 24.0541 28.5403 23.2351 29.0366C22.4685 29.4602 21.4998 29.8844 20.3337 30.308C20.9509 30.6913 21.5765 31.078 22.2058 31.4653C23.9488 32.5547 25.6923 33.7813 27.4353 35.141C29.1783 36.4443 30.6226 37.9458 31.7644 39.6323C31.8409 39.741 31.9136 39.8497 31.9861 39.9584C32.0586 39.8457 32.1312 39.741 32.2078 39.6323C33.3496 37.9457 34.7948 36.4483 36.5378 35.141C38.2807 33.7814 40.0235 32.5546 41.7664 31.4653C42.1616 31.2233 42.553 30.9817 42.9402 30.7397C42.0486 30.5864 41.1809 30.3317 40.3337 29.9848V29.9809C38.7926 29.3475 37.8164 28.7465 36.4529 27.6078C33.8343 25.421 30.9333 21.5678 30.9333 21.5678ZM18.283 9.04046C16.7178 9.04046 15.2858 9.50735 14.0154 10.4282C13.4474 10.8207 12.9354 11.2725 12.4792 11.7807C11.9197 12.3825 11.4433 13.0749 11.0496 13.8578C10.6421 14.7298 10.3654 15.6586 10.2195 16.643C10.1219 17.2503 10.073 17.8755 10.073 18.518C10.073 20.2029 10.4498 21.7687 11.2126 23.1967C11.9679 24.6103 12.9931 25.7572 14.2859 26.6176C15.606 27.4961 17.0977 27.9311 18.7312 27.9311C20.5915 27.9309 22.6968 27.0031 24.1267 25.6938C24.8107 25.0674 26.2269 23.5219 27.4333 22.1791C28.0452 21.4981 28.6166 20.8538 29.0349 20.3803C29.244 20.1437 29.4151 19.9491 29.5339 19.8139C29.5932 19.7465 29.6401 19.6936 29.6716 19.6576C29.6872 19.6399 29.6996 19.6259 29.7078 19.6166C29.7118 19.6121 29.7155 19.6082 29.7175 19.6059C29.7184 19.6048 29.719 19.6035 29.7195 19.603L29.7205 19.602L30.2468 19.0004L29.7537 18.3715L28.4021 16.643L28.3953 16.6342L28.3875 16.6254L27.5623 15.6215L26.3367 14.1293L26.3132 14.102L25.9255 13.6733C25.006 12.6779 23.9871 11.7198 22.8718 10.7983C21.4853 9.65269 19.9485 9.0407 18.283 9.04046ZM45.9128 8.72113C44.0525 8.72113 41.9474 9.64916 40.5173 10.9584C39.8335 11.5846 38.4172 13.1302 37.2107 14.4731C36.5989 15.154 36.0275 15.7984 35.6091 16.2719C35.4002 16.5085 35.2289 16.7031 35.1101 16.8383C35.051 16.9056 35.004 16.9586 34.9724 16.9946C34.9569 17.0123 34.9444 17.0263 34.9363 17.0356C34.9324 17.04 34.9286 17.0439 34.9265 17.0463C34.9257 17.0473 34.925 17.0486 34.9246 17.0493L34.9236 17.0502L34.3972 17.6518L34.8904 18.2807L36.2419 20.0092L36.2488 20.018L36.2566 20.0268L37.0818 21.0307L38.3074 22.5229L38.3308 22.5502L38.7185 22.9789C39.6381 23.9743 40.6569 24.9324 41.7722 25.8539C43.1588 26.9994 44.6955 27.6117 46.3611 27.6118C47.9261 27.6116 49.3584 27.1449 50.6287 26.2241C51.881 25.3583 52.8619 24.2063 53.571 22.7905L53.5828 22.767C54.2459 21.3483 54.571 19.7988 54.571 18.1342C54.571 16.4494 54.1941 14.8835 53.4314 13.4555C52.6763 12.042 51.6508 10.8951 50.3582 10.0346C49.0381 9.15604 47.5462 8.72128 45.9128 8.72113Z" fill="white"/>
</g>
<defs>
<clipPath id="clip0_4193_1406">
<rect width="64.48" height="64.48" fill="white" transform="translate(0 0.643124)"/>
</clipPath>
</defs>
</svg>
